%
M48
M72
T01C0.0197
T02C0.0320
T03C0.0354
T04C0.0394
T05C0.0400
T06C0.0440
T07C0.0590
T08C0.1181
T09C0.1260
T10C0.1300
%
T01
X12552Y7152
X13552Y7652
X14552Y8152
X22552Y7152
X23552Y7652
X24552Y8152
X25552Y8152
X29740Y6152
X29052Y4652
X31552Y7652
X32552Y7152
X32052Y10152
X30802Y13152
X30052Y13152
X30052Y13902
X30802Y13902
X30802Y14652
X25177Y18152
X28052Y25652
X28052Y30652
X28052Y35652
X31552Y35652
X35802Y30652
X40052Y25652
X39552Y15152
X40552Y15152
X41552Y15152
X42552Y15152
X40302Y13402
X38802Y11402
X37052Y10152
X37052Y8152
X38052Y8152
X40552Y10152
X41552Y10152
X43552Y8152
X44552Y7652
X49052Y8652
X50052Y8652
X52302Y10402
X54052Y9402
X53552Y7652
X56052Y8277
X56802Y8277
X57052Y7652
X58052Y7652
X56552Y6652
X58552Y3652
T02
X59552Y4652
X60552Y4652
X53052Y7152
X51552Y6652
X50552Y6652
X49552Y6652
X48552Y6652
X47552Y6652
X46552Y6652
X45552Y6652
X44552Y6652
X43552Y6652
X42552Y6652
X41052Y6652
X39552Y6152
X38552Y6152
X37552Y6152
X36552Y6152
X35552Y6152
X34552Y6152
X33552Y6152
X32552Y6152
X31552Y6152
X30552Y6152
X29052Y6652
X27552Y6152
X26552Y6152
X25552Y6152
X24552Y6152
X23552Y6152
X22552Y6152
X21552Y6152
X20552Y6152
X19052Y6652
X17552Y6152
X16552Y6152
X15552Y6152
X14552Y6152
X13552Y6152
X12552Y6152
X11552Y6152
X10552Y6152
X9252Y4652
X7852Y4652
X10552Y9152
X11552Y9152
X12552Y9152
X13552Y9152
X14552Y9152
X15552Y9152
X16552Y9152
X17552Y9152
X19052Y8652
X20552Y9152
X21552Y9152
X22552Y9152
X23552Y9152
X24552Y9152
X25552Y9152
X26552Y9152
X27552Y9152
X29052Y8652
X30552Y9152
X31552Y9152
X32552Y9152
X33552Y9152
X34552Y9152
X35552Y9152
X36552Y9152
X37552Y9152
X38552Y9152
X39552Y9152
X41052Y8652
X42552Y9652
X43552Y9652
X44552Y9652
X45552Y9652
X46552Y9652
X47552Y9652
X48552Y9652
X49552Y9652
X50552Y9652
X51552Y9652
X53052Y9152
X44552Y3152
X40552Y3152
X41802Y11152
X41802Y12152
X31052Y4152
X31052Y3152
X31052Y2152
X27052Y2152
X27052Y3152
X27052Y4152
X26552Y10652
X25552Y10652
X25552Y11652
X26552Y11652
X27552Y11652
X27552Y10652
X28552Y10652
X28552Y11652
X24552Y11652
X24552Y10652
X23552Y10652
X22552Y10652
X22552Y11652
X23552Y11652
X21552Y11652
X21552Y10652
X18552Y10652
X17552Y10652
X17552Y11652
X18552Y11652
X16552Y11652
X16552Y10652
X15552Y10652
X15552Y11652
X14552Y11652
X14552Y10652
X13552Y10652
X12552Y10652
X12552Y11652
X13552Y11652
X11552Y11652
X11552Y10652
X10052Y13652
X9052Y13652
T03
X9177Y17152
X7177Y17152
X7177Y19152
X9177Y19152
X11427Y19152
X13427Y19152
X13427Y17152
X11427Y17152
X15677Y17152
X17677Y17152
X17677Y19152
X15677Y19152
X15677Y22152
X17677Y22152
X17677Y24152
X15677Y24152
X13427Y24152
X11427Y24152
X11427Y22152
X13427Y22152
X9177Y22152
X7177Y22152
X7177Y24152
X9177Y24152
X9177Y27152
X7177Y27152
X7177Y29152
X9177Y29152
X11427Y29152
X13427Y29152
X13427Y27152
X11427Y27152
X15677Y27152
X17677Y27152
X17677Y29152
X15677Y29152
X15677Y32152
X17677Y32152
X17677Y34152
X15677Y34152
X13427Y34152
X11427Y34152
X11427Y32152
X13427Y32152
X9177Y32152
X7177Y32152
X7177Y34152
X9177Y34152
X9177Y37152
X7177Y37152
X7177Y39152
X9177Y39152
X11427Y39152
X13427Y39152
X13427Y37152
X11427Y37152
X15677Y37152
X17677Y37152
X17677Y39152
X15677Y39152
X15677Y42152
X17677Y42152
X17677Y44152
X15677Y44152
X13427Y44152
X11427Y44152
X11427Y42152
X13427Y42152
X9177Y42152
X7177Y42152
X7177Y44152
X9177Y44152
X9177Y47152
X7177Y47152
X7177Y49152
X9177Y49152
X11427Y49152
X13427Y49152
X13427Y47152
X11427Y47152
X15677Y47152
X17677Y47152
X17677Y49152
X15677Y49152
X15677Y52152
X17677Y52152
X17677Y54152
X15677Y54152
X13427Y54152
X11427Y54152
X11427Y52152
X13427Y52152
X9177Y52152
X7177Y52152
X7177Y54152
X9177Y54152
X4927Y54152
X2927Y54152
X2927Y52152
X4927Y52152
X4927Y49152
X2927Y49152
X2927Y47152
X4927Y47152
X4927Y44152
X2927Y44152
X2927Y42152
X4927Y42152
X4927Y39152
X2927Y39152
X2927Y37152
X4927Y37152
X4927Y34152
X2927Y34152
X2927Y32152
X4927Y32152
X4927Y29152
X2927Y29152
X2927Y27152
X4927Y27152
X4927Y24152
X2927Y24152
X2927Y22152
X4927Y22152
X4927Y19152
X2927Y19152
X2927Y17152
X4927Y17152
X19927Y17152
X21927Y17152
X24177Y17152
X26177Y17152
X28427Y17152
X30427Y17152
X30427Y19152
X28427Y19152
X26177Y19152
X24177Y19152
X21927Y19152
X19927Y19152
X19927Y22152
X21927Y22152
X24177Y22152
X26177Y22152
X28427Y22152
X30427Y22152
X30427Y24152
X28427Y24152
X26177Y24152
X24177Y24152
X21927Y24152
X19927Y24152
X19927Y27152
X21927Y27152
X24177Y27152
X26177Y27152
X28427Y27152
X30427Y27152
X30427Y29152
X28427Y29152
X26177Y29152
X24177Y29152
X21927Y29152
X19927Y29152
X19927Y32152
X21927Y32152
X24177Y32152
X26177Y32152
X28427Y32152
X30427Y32152
X30427Y34152
X28427Y34152
X26177Y34152
X24177Y34152
X21927Y34152
X19927Y34152
X19927Y37152
X21927Y37152
X24177Y37152
X26177Y37152
X28427Y37152
X30427Y37152
X30427Y39152
X28427Y39152
X26177Y39152
X24177Y39152
X21927Y39152
X19927Y39152
X19927Y42152
X21927Y42152
X24177Y42152
X26177Y42152
X28427Y42152
X30427Y42152
X30427Y44152
X28427Y44152
X26177Y44152
X24177Y44152
X21927Y44152
X19927Y44152
X19927Y47152
X21927Y47152
X24177Y47152
X26177Y47152
X28427Y47152
X30427Y47152
X30427Y49152
X28427Y49152
X26177Y49152
X24177Y49152
X21927Y49152
X19927Y49152
X19927Y52152
X21927Y52152
X24177Y52152
X26177Y52152
X28427Y52152
X30427Y52152
X30427Y54152
X28427Y54152
X26177Y54152
X24177Y54152
X21927Y54152
X19927Y54152
X32677Y54152
X34677Y54152
X34677Y52152
X32677Y52152
X32677Y49152
X34677Y49152
X34677Y47152
X32677Y47152
X32677Y44152
X34677Y44152
X34677Y42152
X32677Y42152
X32677Y39152
X34677Y39152
X34677Y37152
X32677Y37152
X32677Y34152
X34677Y34152
X34677Y32152
X32677Y32152
X32677Y29152
X34677Y29152
X34677Y27152
X32677Y27152
X32677Y24152
X34677Y24152
X34677Y22152
X32677Y22152
X32677Y19152
X34677Y19152
X34677Y17152
X32677Y17152
X36927Y17152
X38927Y17152
X38927Y19152
X36927Y19152
X36927Y22152
X38927Y22152
X38927Y24152
X36927Y24152
X36927Y27152
X38927Y27152
X38927Y29152
X36927Y29152
X36927Y32152
X38927Y32152
X38927Y34152
X36927Y34152
X36927Y37152
X38927Y37152
X38927Y39152
X36927Y39152
X36927Y42152
X38927Y42152
X38927Y44152
X36927Y44152
X36927Y47152
X38927Y47152
X38927Y49152
X36927Y49152
X36927Y52152
X38927Y52152
X38927Y54152
X36927Y54152
X41177Y54152
X43177Y54152
X43177Y52152
X41177Y52152
X41177Y49152
X43177Y49152
X43177Y47152
X41177Y47152
X41177Y44152
X43177Y44152
X43177Y42152
X41177Y42152
X41177Y39152
X43177Y39152
X43177Y37152
X41177Y37152
X41177Y34152
X43177Y34152
X43177Y32152
X41177Y32152
X41177Y29152
X43177Y29152
X43177Y27152
X41177Y27152
X41177Y24152
X43177Y24152
X43177Y22152
X41177Y22152
X41177Y19152
X43177Y19152
X43177Y17152
X41177Y17152
X45427Y17152
X47427Y17152
X49677Y17152
X51677Y17152
X53927Y17152
X55927Y17152
X55927Y19152
X53927Y19152
X51677Y19152
X49677Y19152
X47427Y19152
X45427Y19152
X45427Y22152
X47427Y22152
X49677Y22152
X51677Y22152
X53927Y22152
X55927Y22152
X55927Y24152
X53927Y24152
X51677Y24152
X49677Y24152
X47427Y24152
X45427Y24152
X45427Y27152
X47427Y27152
X49677Y27152
X51677Y27152
X53927Y27152
X55927Y27152
X55927Y29152
X53927Y29152
X51677Y29152
X49677Y29152
X47427Y29152
X45427Y29152
X45427Y32152
X47427Y32152
X49677Y32152
X51677Y32152
X53927Y32152
X55927Y32152
X55927Y34152
X53927Y34152
X51677Y34152
X49677Y34152
X47427Y34152
X45427Y34152
X45427Y37152
X47427Y37152
X49677Y37152
X51677Y37152
X53927Y37152
X55927Y37152
X55927Y39152
X53927Y39152
X51677Y39152
X49677Y39152
X47427Y39152
X45427Y39152
X45427Y42152
X47427Y42152
X49677Y42152
X51677Y42152
X53927Y42152
X55927Y42152
X55927Y44152
X53927Y44152
X51677Y44152
X49677Y44152
X47427Y44152
X45427Y44152
X45427Y47152
X47427Y47152
X49677Y47152
X51677Y47152
X53927Y47152
X55927Y47152
X55927Y49152
X53927Y49152
X51677Y49152
X49677Y49152
X47427Y49152
X45427Y49152
X45427Y52152
X47427Y52152
X49677Y52152
X51677Y52152
X53927Y52152
X55927Y52152
X55927Y54152
X53927Y54152
X51677Y54152
X49677Y54152
X47427Y54152
X45427Y54152
X58177Y54152
X60177Y54152
X60177Y52152
X58177Y52152
X58177Y49152
X60177Y49152
X60177Y47152
X58177Y47152
X58177Y44152
X60177Y44152
X60177Y42152
X58177Y42152
X58177Y39152
X60177Y39152
X60177Y37152
X58177Y37152
X58177Y34152
X60177Y34152
X60177Y32152
X58177Y32152
X58177Y29152
X60177Y29152
X60177Y27152
X58177Y27152
X58177Y24152
X60177Y24152
X60177Y22152
X58177Y22152
X58177Y19152
X60177Y19152
X60177Y17152
X58177Y17152
T04
X56552Y12652
X55552Y12652
X54552Y12652
X53552Y12652
X52552Y12652
X51552Y12652
X50552Y14652
X49552Y14652
X48552Y14652
X47552Y14652
X46552Y14652
X45552Y14652
X44552Y14652
X43552Y14652
X38552Y14652
X37552Y14652
X36552Y14652
X35552Y14652
X34552Y14652
X33552Y14652
X32552Y14652
X31552Y14652
X28552Y14652
X27552Y14652
X26552Y14652
X25552Y14652
X24552Y14652
X23552Y14652
X22552Y14652
X21552Y14652
X18552Y14652
X17552Y14652
X16552Y14652
X15552Y14652
X14552Y14652
X13552Y14652
X12552Y14652
X11552Y14652
X60052Y12152
X60052Y11152
X60052Y10152
T05
X57052Y2652
X56052Y2652
X56052Y1652
X57052Y1652
X55052Y1652
X55052Y2652
X37442Y2162
X35662Y2162
X23942Y2162
X22162Y2162
X19442Y2162
X17662Y2162
X14942Y2162
X13162Y2162
T06
X9052Y2152
X5052Y2152
X9052Y9652
X9052Y10652
X9052Y11652
T07
X12672Y3142
X15432Y3142
X17172Y3142
X19932Y3142
X21672Y3142
X24432Y3142
X35172Y3142
X37932Y3142
T08
X5552Y6152
X3190Y6152
X4371Y4302
T09
X3052Y2152
X3052Y14152
X6052Y20652
X6052Y50652
X57052Y50652
X57052Y20652
X60052Y14152
X60052Y2152
T10
X3152Y10652
M30
