G75*
G70*
%OFA0B0*%
%FSLAX24Y24*%
%IPPOS*%
%LPD*%
%AMOC8*
5,1,8,0,0,1.08239X$1,22.5*
%
%ADD10C,0.0100*%
%ADD11C,0.0000*%
%ADD12C,0.0080*%
%ADD13C,0.0070*%
%ADD14C,0.0050*%
%ADD15C,0.0000*%
D10*
X001552Y000652D02*
X061552Y000652D01*
X061552Y055652D01*
X001552Y055652D01*
X001552Y000652D01*
D11*
X002422Y002152D02*
X002424Y002202D01*
X002430Y002252D01*
X002440Y002301D01*
X002454Y002349D01*
X002471Y002396D01*
X002492Y002441D01*
X002517Y002485D01*
X002545Y002526D01*
X002577Y002565D01*
X002611Y002602D01*
X002648Y002636D01*
X002688Y002666D01*
X002730Y002693D01*
X002774Y002717D01*
X002820Y002738D01*
X002867Y002754D01*
X002915Y002767D01*
X002965Y002776D01*
X003014Y002781D01*
X003065Y002782D01*
X003115Y002779D01*
X003164Y002772D01*
X003213Y002761D01*
X003261Y002746D01*
X003307Y002728D01*
X003352Y002706D01*
X003395Y002680D01*
X003436Y002651D01*
X003475Y002619D01*
X003511Y002584D01*
X003543Y002546D01*
X003573Y002506D01*
X003600Y002463D01*
X003623Y002419D01*
X003642Y002373D01*
X003658Y002325D01*
X003670Y002276D01*
X003678Y002227D01*
X003682Y002177D01*
X003682Y002127D01*
X003678Y002077D01*
X003670Y002028D01*
X003658Y001979D01*
X003642Y001931D01*
X003623Y001885D01*
X003600Y001841D01*
X003573Y001798D01*
X003543Y001758D01*
X003511Y001720D01*
X003475Y001685D01*
X003436Y001653D01*
X003395Y001624D01*
X003352Y001598D01*
X003307Y001576D01*
X003261Y001558D01*
X003213Y001543D01*
X003164Y001532D01*
X003115Y001525D01*
X003065Y001522D01*
X003014Y001523D01*
X002965Y001528D01*
X002915Y001537D01*
X002867Y001550D01*
X002820Y001566D01*
X002774Y001587D01*
X002730Y001611D01*
X002688Y001638D01*
X002648Y001668D01*
X002611Y001702D01*
X002577Y001739D01*
X002545Y001778D01*
X002517Y001819D01*
X002492Y001863D01*
X002471Y001908D01*
X002454Y001955D01*
X002440Y002003D01*
X002430Y002052D01*
X002424Y002102D01*
X002422Y002152D01*
X002502Y010652D02*
X002504Y010702D01*
X002510Y010752D01*
X002520Y010802D01*
X002533Y010850D01*
X002550Y010898D01*
X002571Y010944D01*
X002595Y010988D01*
X002623Y011030D01*
X002654Y011070D01*
X002688Y011107D01*
X002725Y011142D01*
X002764Y011173D01*
X002805Y011202D01*
X002849Y011227D01*
X002895Y011249D01*
X002942Y011267D01*
X002990Y011281D01*
X003039Y011292D01*
X003089Y011299D01*
X003139Y011302D01*
X003190Y011301D01*
X003240Y011296D01*
X003290Y011287D01*
X003338Y011275D01*
X003386Y011258D01*
X003432Y011238D01*
X003477Y011215D01*
X003520Y011188D01*
X003560Y011158D01*
X003598Y011125D01*
X003633Y011089D01*
X003666Y011050D01*
X003695Y011009D01*
X003721Y010966D01*
X003744Y010921D01*
X003763Y010874D01*
X003778Y010826D01*
X003790Y010777D01*
X003798Y010727D01*
X003802Y010677D01*
X003802Y010627D01*
X003798Y010577D01*
X003790Y010527D01*
X003778Y010478D01*
X003763Y010430D01*
X003744Y010383D01*
X003721Y010338D01*
X003695Y010295D01*
X003666Y010254D01*
X003633Y010215D01*
X003598Y010179D01*
X003560Y010146D01*
X003520Y010116D01*
X003477Y010089D01*
X003432Y010066D01*
X003386Y010046D01*
X003338Y010029D01*
X003290Y010017D01*
X003240Y010008D01*
X003190Y010003D01*
X003139Y010002D01*
X003089Y010005D01*
X003039Y010012D01*
X002990Y010023D01*
X002942Y010037D01*
X002895Y010055D01*
X002849Y010077D01*
X002805Y010102D01*
X002764Y010131D01*
X002725Y010162D01*
X002688Y010197D01*
X002654Y010234D01*
X002623Y010274D01*
X002595Y010316D01*
X002571Y010360D01*
X002550Y010406D01*
X002533Y010454D01*
X002520Y010502D01*
X002510Y010552D01*
X002504Y010602D01*
X002502Y010652D01*
X002422Y014152D02*
X002424Y014202D01*
X002430Y014252D01*
X002440Y014301D01*
X002454Y014349D01*
X002471Y014396D01*
X002492Y014441D01*
X002517Y014485D01*
X002545Y014526D01*
X002577Y014565D01*
X002611Y014602D01*
X002648Y014636D01*
X002688Y014666D01*
X002730Y014693D01*
X002774Y014717D01*
X002820Y014738D01*
X002867Y014754D01*
X002915Y014767D01*
X002965Y014776D01*
X003014Y014781D01*
X003065Y014782D01*
X003115Y014779D01*
X003164Y014772D01*
X003213Y014761D01*
X003261Y014746D01*
X003307Y014728D01*
X003352Y014706D01*
X003395Y014680D01*
X003436Y014651D01*
X003475Y014619D01*
X003511Y014584D01*
X003543Y014546D01*
X003573Y014506D01*
X003600Y014463D01*
X003623Y014419D01*
X003642Y014373D01*
X003658Y014325D01*
X003670Y014276D01*
X003678Y014227D01*
X003682Y014177D01*
X003682Y014127D01*
X003678Y014077D01*
X003670Y014028D01*
X003658Y013979D01*
X003642Y013931D01*
X003623Y013885D01*
X003600Y013841D01*
X003573Y013798D01*
X003543Y013758D01*
X003511Y013720D01*
X003475Y013685D01*
X003436Y013653D01*
X003395Y013624D01*
X003352Y013598D01*
X003307Y013576D01*
X003261Y013558D01*
X003213Y013543D01*
X003164Y013532D01*
X003115Y013525D01*
X003065Y013522D01*
X003014Y013523D01*
X002965Y013528D01*
X002915Y013537D01*
X002867Y013550D01*
X002820Y013566D01*
X002774Y013587D01*
X002730Y013611D01*
X002688Y013638D01*
X002648Y013668D01*
X002611Y013702D01*
X002577Y013739D01*
X002545Y013778D01*
X002517Y013819D01*
X002492Y013863D01*
X002471Y013908D01*
X002454Y013955D01*
X002440Y014003D01*
X002430Y014052D01*
X002424Y014102D01*
X002422Y014152D01*
X005422Y020652D02*
X005424Y020702D01*
X005430Y020752D01*
X005440Y020801D01*
X005454Y020849D01*
X005471Y020896D01*
X005492Y020941D01*
X005517Y020985D01*
X005545Y021026D01*
X005577Y021065D01*
X005611Y021102D01*
X005648Y021136D01*
X005688Y021166D01*
X005730Y021193D01*
X005774Y021217D01*
X005820Y021238D01*
X005867Y021254D01*
X005915Y021267D01*
X005965Y021276D01*
X006014Y021281D01*
X006065Y021282D01*
X006115Y021279D01*
X006164Y021272D01*
X006213Y021261D01*
X006261Y021246D01*
X006307Y021228D01*
X006352Y021206D01*
X006395Y021180D01*
X006436Y021151D01*
X006475Y021119D01*
X006511Y021084D01*
X006543Y021046D01*
X006573Y021006D01*
X006600Y020963D01*
X006623Y020919D01*
X006642Y020873D01*
X006658Y020825D01*
X006670Y020776D01*
X006678Y020727D01*
X006682Y020677D01*
X006682Y020627D01*
X006678Y020577D01*
X006670Y020528D01*
X006658Y020479D01*
X006642Y020431D01*
X006623Y020385D01*
X006600Y020341D01*
X006573Y020298D01*
X006543Y020258D01*
X006511Y020220D01*
X006475Y020185D01*
X006436Y020153D01*
X006395Y020124D01*
X006352Y020098D01*
X006307Y020076D01*
X006261Y020058D01*
X006213Y020043D01*
X006164Y020032D01*
X006115Y020025D01*
X006065Y020022D01*
X006014Y020023D01*
X005965Y020028D01*
X005915Y020037D01*
X005867Y020050D01*
X005820Y020066D01*
X005774Y020087D01*
X005730Y020111D01*
X005688Y020138D01*
X005648Y020168D01*
X005611Y020202D01*
X005577Y020239D01*
X005545Y020278D01*
X005517Y020319D01*
X005492Y020363D01*
X005471Y020408D01*
X005454Y020455D01*
X005440Y020503D01*
X005430Y020552D01*
X005424Y020602D01*
X005422Y020652D01*
X005422Y050652D02*
X005424Y050702D01*
X005430Y050752D01*
X005440Y050801D01*
X005454Y050849D01*
X005471Y050896D01*
X005492Y050941D01*
X005517Y050985D01*
X005545Y051026D01*
X005577Y051065D01*
X005611Y051102D01*
X005648Y051136D01*
X005688Y051166D01*
X005730Y051193D01*
X005774Y051217D01*
X005820Y051238D01*
X005867Y051254D01*
X005915Y051267D01*
X005965Y051276D01*
X006014Y051281D01*
X006065Y051282D01*
X006115Y051279D01*
X006164Y051272D01*
X006213Y051261D01*
X006261Y051246D01*
X006307Y051228D01*
X006352Y051206D01*
X006395Y051180D01*
X006436Y051151D01*
X006475Y051119D01*
X006511Y051084D01*
X006543Y051046D01*
X006573Y051006D01*
X006600Y050963D01*
X006623Y050919D01*
X006642Y050873D01*
X006658Y050825D01*
X006670Y050776D01*
X006678Y050727D01*
X006682Y050677D01*
X006682Y050627D01*
X006678Y050577D01*
X006670Y050528D01*
X006658Y050479D01*
X006642Y050431D01*
X006623Y050385D01*
X006600Y050341D01*
X006573Y050298D01*
X006543Y050258D01*
X006511Y050220D01*
X006475Y050185D01*
X006436Y050153D01*
X006395Y050124D01*
X006352Y050098D01*
X006307Y050076D01*
X006261Y050058D01*
X006213Y050043D01*
X006164Y050032D01*
X006115Y050025D01*
X006065Y050022D01*
X006014Y050023D01*
X005965Y050028D01*
X005915Y050037D01*
X005867Y050050D01*
X005820Y050066D01*
X005774Y050087D01*
X005730Y050111D01*
X005688Y050138D01*
X005648Y050168D01*
X005611Y050202D01*
X005577Y050239D01*
X005545Y050278D01*
X005517Y050319D01*
X005492Y050363D01*
X005471Y050408D01*
X005454Y050455D01*
X005440Y050503D01*
X005430Y050552D01*
X005424Y050602D01*
X005422Y050652D01*
X056422Y050652D02*
X056424Y050702D01*
X056430Y050752D01*
X056440Y050801D01*
X056454Y050849D01*
X056471Y050896D01*
X056492Y050941D01*
X056517Y050985D01*
X056545Y051026D01*
X056577Y051065D01*
X056611Y051102D01*
X056648Y051136D01*
X056688Y051166D01*
X056730Y051193D01*
X056774Y051217D01*
X056820Y051238D01*
X056867Y051254D01*
X056915Y051267D01*
X056965Y051276D01*
X057014Y051281D01*
X057065Y051282D01*
X057115Y051279D01*
X057164Y051272D01*
X057213Y051261D01*
X057261Y051246D01*
X057307Y051228D01*
X057352Y051206D01*
X057395Y051180D01*
X057436Y051151D01*
X057475Y051119D01*
X057511Y051084D01*
X057543Y051046D01*
X057573Y051006D01*
X057600Y050963D01*
X057623Y050919D01*
X057642Y050873D01*
X057658Y050825D01*
X057670Y050776D01*
X057678Y050727D01*
X057682Y050677D01*
X057682Y050627D01*
X057678Y050577D01*
X057670Y050528D01*
X057658Y050479D01*
X057642Y050431D01*
X057623Y050385D01*
X057600Y050341D01*
X057573Y050298D01*
X057543Y050258D01*
X057511Y050220D01*
X057475Y050185D01*
X057436Y050153D01*
X057395Y050124D01*
X057352Y050098D01*
X057307Y050076D01*
X057261Y050058D01*
X057213Y050043D01*
X057164Y050032D01*
X057115Y050025D01*
X057065Y050022D01*
X057014Y050023D01*
X056965Y050028D01*
X056915Y050037D01*
X056867Y050050D01*
X056820Y050066D01*
X056774Y050087D01*
X056730Y050111D01*
X056688Y050138D01*
X056648Y050168D01*
X056611Y050202D01*
X056577Y050239D01*
X056545Y050278D01*
X056517Y050319D01*
X056492Y050363D01*
X056471Y050408D01*
X056454Y050455D01*
X056440Y050503D01*
X056430Y050552D01*
X056424Y050602D01*
X056422Y050652D01*
X056422Y020652D02*
X056424Y020702D01*
X056430Y020752D01*
X056440Y020801D01*
X056454Y020849D01*
X056471Y020896D01*
X056492Y020941D01*
X056517Y020985D01*
X056545Y021026D01*
X056577Y021065D01*
X056611Y021102D01*
X056648Y021136D01*
X056688Y021166D01*
X056730Y021193D01*
X056774Y021217D01*
X056820Y021238D01*
X056867Y021254D01*
X056915Y021267D01*
X056965Y021276D01*
X057014Y021281D01*
X057065Y021282D01*
X057115Y021279D01*
X057164Y021272D01*
X057213Y021261D01*
X057261Y021246D01*
X057307Y021228D01*
X057352Y021206D01*
X057395Y021180D01*
X057436Y021151D01*
X057475Y021119D01*
X057511Y021084D01*
X057543Y021046D01*
X057573Y021006D01*
X057600Y020963D01*
X057623Y020919D01*
X057642Y020873D01*
X057658Y020825D01*
X057670Y020776D01*
X057678Y020727D01*
X057682Y020677D01*
X057682Y020627D01*
X057678Y020577D01*
X057670Y020528D01*
X057658Y020479D01*
X057642Y020431D01*
X057623Y020385D01*
X057600Y020341D01*
X057573Y020298D01*
X057543Y020258D01*
X057511Y020220D01*
X057475Y020185D01*
X057436Y020153D01*
X057395Y020124D01*
X057352Y020098D01*
X057307Y020076D01*
X057261Y020058D01*
X057213Y020043D01*
X057164Y020032D01*
X057115Y020025D01*
X057065Y020022D01*
X057014Y020023D01*
X056965Y020028D01*
X056915Y020037D01*
X056867Y020050D01*
X056820Y020066D01*
X056774Y020087D01*
X056730Y020111D01*
X056688Y020138D01*
X056648Y020168D01*
X056611Y020202D01*
X056577Y020239D01*
X056545Y020278D01*
X056517Y020319D01*
X056492Y020363D01*
X056471Y020408D01*
X056454Y020455D01*
X056440Y020503D01*
X056430Y020552D01*
X056424Y020602D01*
X056422Y020652D01*
X059422Y014152D02*
X059424Y014202D01*
X059430Y014252D01*
X059440Y014301D01*
X059454Y014349D01*
X059471Y014396D01*
X059492Y014441D01*
X059517Y014485D01*
X059545Y014526D01*
X059577Y014565D01*
X059611Y014602D01*
X059648Y014636D01*
X059688Y014666D01*
X059730Y014693D01*
X059774Y014717D01*
X059820Y014738D01*
X059867Y014754D01*
X059915Y014767D01*
X059965Y014776D01*
X060014Y014781D01*
X060065Y014782D01*
X060115Y014779D01*
X060164Y014772D01*
X060213Y014761D01*
X060261Y014746D01*
X060307Y014728D01*
X060352Y014706D01*
X060395Y014680D01*
X060436Y014651D01*
X060475Y014619D01*
X060511Y014584D01*
X060543Y014546D01*
X060573Y014506D01*
X060600Y014463D01*
X060623Y014419D01*
X060642Y014373D01*
X060658Y014325D01*
X060670Y014276D01*
X060678Y014227D01*
X060682Y014177D01*
X060682Y014127D01*
X060678Y014077D01*
X060670Y014028D01*
X060658Y013979D01*
X060642Y013931D01*
X060623Y013885D01*
X060600Y013841D01*
X060573Y013798D01*
X060543Y013758D01*
X060511Y013720D01*
X060475Y013685D01*
X060436Y013653D01*
X060395Y013624D01*
X060352Y013598D01*
X060307Y013576D01*
X060261Y013558D01*
X060213Y013543D01*
X060164Y013532D01*
X060115Y013525D01*
X060065Y013522D01*
X060014Y013523D01*
X059965Y013528D01*
X059915Y013537D01*
X059867Y013550D01*
X059820Y013566D01*
X059774Y013587D01*
X059730Y013611D01*
X059688Y013638D01*
X059648Y013668D01*
X059611Y013702D01*
X059577Y013739D01*
X059545Y013778D01*
X059517Y013819D01*
X059492Y013863D01*
X059471Y013908D01*
X059454Y013955D01*
X059440Y014003D01*
X059430Y014052D01*
X059424Y014102D01*
X059422Y014152D01*
X059422Y002152D02*
X059424Y002202D01*
X059430Y002252D01*
X059440Y002301D01*
X059454Y002349D01*
X059471Y002396D01*
X059492Y002441D01*
X059517Y002485D01*
X059545Y002526D01*
X059577Y002565D01*
X059611Y002602D01*
X059648Y002636D01*
X059688Y002666D01*
X059730Y002693D01*
X059774Y002717D01*
X059820Y002738D01*
X059867Y002754D01*
X059915Y002767D01*
X059965Y002776D01*
X060014Y002781D01*
X060065Y002782D01*
X060115Y002779D01*
X060164Y002772D01*
X060213Y002761D01*
X060261Y002746D01*
X060307Y002728D01*
X060352Y002706D01*
X060395Y002680D01*
X060436Y002651D01*
X060475Y002619D01*
X060511Y002584D01*
X060543Y002546D01*
X060573Y002506D01*
X060600Y002463D01*
X060623Y002419D01*
X060642Y002373D01*
X060658Y002325D01*
X060670Y002276D01*
X060678Y002227D01*
X060682Y002177D01*
X060682Y002127D01*
X060678Y002077D01*
X060670Y002028D01*
X060658Y001979D01*
X060642Y001931D01*
X060623Y001885D01*
X060600Y001841D01*
X060573Y001798D01*
X060543Y001758D01*
X060511Y001720D01*
X060475Y001685D01*
X060436Y001653D01*
X060395Y001624D01*
X060352Y001598D01*
X060307Y001576D01*
X060261Y001558D01*
X060213Y001543D01*
X060164Y001532D01*
X060115Y001525D01*
X060065Y001522D01*
X060014Y001523D01*
X059965Y001528D01*
X059915Y001537D01*
X059867Y001550D01*
X059820Y001566D01*
X059774Y001587D01*
X059730Y001611D01*
X059688Y001638D01*
X059648Y001668D01*
X059611Y001702D01*
X059577Y001739D01*
X059545Y001778D01*
X059517Y001819D01*
X059492Y001863D01*
X059471Y001908D01*
X059454Y001955D01*
X059440Y002003D01*
X059430Y002052D01*
X059424Y002102D01*
X059422Y002152D01*
D12*
X028012Y013296D02*
X027909Y013192D01*
X027702Y013192D01*
X027598Y013296D01*
X027598Y013399D01*
X027702Y013503D01*
X027909Y013503D01*
X028012Y013606D01*
X028012Y013709D01*
X027909Y013813D01*
X027702Y013813D01*
X027598Y013709D01*
X027368Y013813D02*
X027368Y013296D01*
X027264Y013192D01*
X027057Y013192D01*
X026954Y013296D01*
X026954Y013813D01*
X026723Y013813D02*
X026723Y013192D01*
X026723Y013399D02*
X026413Y013399D01*
X026309Y013503D01*
X026309Y013709D01*
X026413Y013813D01*
X026723Y013813D01*
X026516Y013399D02*
X026309Y013192D01*
X026079Y013192D02*
X026079Y013813D01*
X025768Y013813D01*
X025665Y013709D01*
X025665Y013503D01*
X025768Y013399D01*
X026079Y013399D01*
X025872Y013399D02*
X025665Y013192D01*
X025434Y013192D02*
X025434Y013813D01*
X025020Y013813D01*
X024789Y013606D02*
X024789Y013192D01*
X025020Y013192D02*
X025434Y013192D01*
X025434Y013503D02*
X025227Y013503D01*
X024789Y013503D02*
X024376Y013503D01*
X024376Y013606D02*
X024376Y013192D01*
X024145Y013192D02*
X024145Y013813D01*
X024376Y013606D02*
X024583Y013813D01*
X024789Y013606D01*
X024145Y013192D02*
X023731Y013192D01*
X023500Y013192D02*
X023294Y013192D01*
X023397Y013192D02*
X023397Y013813D01*
X023500Y013813D02*
X023294Y013813D01*
X023071Y013813D02*
X022657Y013813D01*
X022864Y013813D02*
X022864Y013192D01*
X022219Y013192D02*
X022219Y013503D01*
X022013Y013709D01*
X022013Y013813D01*
X021782Y013813D02*
X021782Y013192D01*
X021368Y013192D01*
X021137Y013192D02*
X021137Y013606D01*
X020930Y013813D01*
X020724Y013606D01*
X020724Y013192D01*
X020493Y013192D02*
X020493Y013813D01*
X020182Y013813D01*
X020079Y013709D01*
X020079Y013606D01*
X020182Y013503D01*
X020493Y013503D01*
X020724Y013503D02*
X021137Y013503D01*
X020493Y013192D02*
X020182Y013192D01*
X020079Y013296D01*
X020079Y013399D01*
X020182Y013503D01*
X019848Y013606D02*
X019745Y013503D01*
X019538Y013503D01*
X019434Y013399D01*
X019434Y013296D01*
X019538Y013192D01*
X019745Y013192D01*
X019848Y013296D01*
X019848Y013606D02*
X019848Y013709D01*
X019745Y013813D01*
X019538Y013813D01*
X019434Y013709D01*
X018559Y013813D02*
X018559Y013192D01*
X018352Y013399D01*
X018145Y013192D01*
X018145Y013813D01*
X017915Y013709D02*
X017915Y013296D01*
X017811Y013192D01*
X017604Y013192D01*
X017501Y013296D01*
X017501Y013709D01*
X017604Y013813D01*
X017811Y013813D01*
X017915Y013709D01*
X017270Y013813D02*
X017270Y013192D01*
X017270Y013399D02*
X016960Y013399D01*
X016856Y013503D01*
X016856Y013709D01*
X016960Y013813D01*
X017270Y013813D01*
X017063Y013399D02*
X016856Y013192D01*
X016625Y013192D02*
X016625Y013813D01*
X016315Y013813D01*
X016212Y013709D01*
X016212Y013296D01*
X016315Y013192D01*
X016625Y013192D01*
X015336Y013296D02*
X015233Y013192D01*
X015026Y013192D01*
X014923Y013296D01*
X014692Y013192D02*
X014278Y013192D01*
X014047Y013296D02*
X013944Y013192D01*
X013737Y013192D01*
X013634Y013296D01*
X013634Y013709D01*
X013737Y013813D01*
X013944Y013813D01*
X014047Y013709D01*
X014047Y013296D01*
X013403Y013296D02*
X013403Y013709D01*
X013299Y013813D01*
X013093Y013813D01*
X012989Y013709D01*
X012758Y013813D02*
X012758Y013192D01*
X012758Y013399D02*
X012345Y013813D01*
X012655Y013503D02*
X012345Y013192D01*
X012989Y013296D02*
X013093Y013192D01*
X013299Y013192D01*
X013403Y013296D01*
X014692Y013192D02*
X014692Y013813D01*
X014923Y013709D02*
X015026Y013813D01*
X015233Y013813D01*
X015336Y013709D01*
X015336Y013296D01*
X022219Y013503D02*
X022426Y013709D01*
X022426Y013813D01*
D13*
X022017Y012678D02*
X022017Y012351D01*
X021854Y012187D01*
X021690Y012351D01*
X021690Y012678D01*
X021501Y012678D02*
X021501Y012187D01*
X021175Y012187D01*
X020986Y012187D02*
X020986Y012678D01*
X020741Y012678D01*
X020659Y012596D01*
X020659Y012432D01*
X020741Y012351D01*
X020986Y012351D01*
X020822Y012351D02*
X020659Y012187D01*
X020470Y012269D02*
X020389Y012187D01*
X020225Y012187D01*
X020143Y012269D01*
X020143Y012351D01*
X020225Y012432D01*
X020389Y012432D01*
X020470Y012514D01*
X020470Y012596D01*
X020389Y012678D01*
X020225Y012678D01*
X020143Y012596D01*
X019955Y012678D02*
X019791Y012678D01*
X019873Y012678D02*
X019873Y012187D01*
X019955Y012187D02*
X019791Y012187D01*
X019611Y012269D02*
X019529Y012187D01*
X019366Y012187D01*
X019284Y012269D01*
X019284Y012596D01*
X019366Y012678D01*
X019529Y012678D01*
X019611Y012596D01*
X019611Y012269D01*
X019095Y012187D02*
X019095Y012678D01*
X018768Y012187D01*
X018768Y012678D01*
X018064Y012514D02*
X017901Y012678D01*
X017901Y012187D01*
X018064Y012187D02*
X017737Y012187D01*
X021175Y012678D02*
X021501Y012678D01*
X021501Y012432D02*
X021338Y012432D01*
D14*
X047152Y004577D02*
X047152Y001577D01*
X047154Y001518D01*
X047160Y001460D01*
X047169Y001401D01*
X047183Y001344D01*
X047200Y001288D01*
X047221Y001233D01*
X047245Y001179D01*
X047273Y001127D01*
X047304Y001077D01*
X047338Y001029D01*
X047375Y000984D01*
X047416Y000941D01*
X047459Y000900D01*
X047504Y000863D01*
X047552Y000829D01*
X047602Y000798D01*
X047654Y000770D01*
X047708Y000746D01*
X047763Y000725D01*
X047819Y000708D01*
X047876Y000694D01*
X047935Y000685D01*
X047993Y000679D01*
X048052Y000677D01*
X051052Y000677D01*
X051111Y000679D01*
X051169Y000685D01*
X051228Y000694D01*
X051285Y000708D01*
X051341Y000725D01*
X051396Y000746D01*
X051450Y000770D01*
X051502Y000798D01*
X051552Y000829D01*
X051600Y000863D01*
X051645Y000900D01*
X051688Y000941D01*
X051729Y000984D01*
X051766Y001029D01*
X051800Y001077D01*
X051831Y001127D01*
X051859Y001179D01*
X051883Y001233D01*
X051904Y001288D01*
X051921Y001344D01*
X051935Y001401D01*
X051944Y001460D01*
X051950Y001518D01*
X051952Y001577D01*
X051952Y004577D01*
X050752Y005777D01*
X048352Y005777D01*
X047152Y004577D01*
D15*
X023468Y004535D02*
X023362Y004535D01*
X023362Y004531D02*
X023468Y004531D01*
X023468Y004532D02*
X023468Y004546D01*
X023362Y004566D01*
X023362Y004508D01*
X023001Y004508D01*
X023001Y004620D01*
X023320Y004620D01*
X023329Y004620D01*
X023337Y004621D01*
X023345Y004621D01*
X023353Y004622D01*
X023361Y004623D01*
X023368Y004624D01*
X023375Y004625D01*
X023381Y004626D01*
X023387Y004628D01*
X023393Y004630D01*
X022896Y004630D01*
X022896Y004631D02*
X022896Y004624D01*
X022895Y004616D01*
X022895Y004608D01*
X022895Y004599D01*
X022895Y004532D01*
X022895Y004523D01*
X023001Y004523D01*
X023001Y004519D02*
X022895Y004519D01*
X022895Y004515D02*
X023001Y004515D01*
X023001Y004512D02*
X022895Y004512D01*
X022895Y004515D02*
X022896Y004508D01*
X023467Y004508D01*
X023467Y004509D02*
X023468Y004515D01*
X023468Y004523D01*
X023362Y004523D01*
X023362Y004519D02*
X023468Y004519D01*
X023467Y004515D02*
X023362Y004515D01*
X023362Y004512D02*
X023467Y004512D01*
X023467Y004509D02*
X023466Y004501D01*
X023466Y004494D01*
X023465Y004487D01*
X023464Y004481D01*
X023462Y004475D01*
X023460Y004469D01*
X023458Y004464D01*
X023456Y004459D01*
X023454Y004454D01*
X023451Y004451D01*
X023448Y004447D01*
X023445Y004444D01*
X023442Y004440D01*
X023438Y004437D01*
X023434Y004435D01*
X023430Y004432D01*
X023425Y004430D01*
X023420Y004428D01*
X023414Y004426D01*
X023408Y004424D01*
X023403Y004422D01*
X023396Y004421D01*
X023389Y004419D01*
X023382Y004418D01*
X023374Y004418D01*
X023366Y004417D01*
X023358Y004416D01*
X023349Y004416D01*
X023341Y004416D01*
X023022Y004416D01*
X023013Y004416D01*
X023004Y004416D01*
X022995Y004417D01*
X022987Y004418D01*
X022980Y004418D01*
X022972Y004419D01*
X022966Y004421D01*
X022960Y004422D01*
X022954Y004424D01*
X022948Y004426D01*
X022942Y004428D01*
X022937Y004430D01*
X022933Y004432D01*
X022928Y004435D01*
X022925Y004437D01*
X023437Y004437D01*
X023442Y004441D02*
X022921Y004441D01*
X022921Y004440D02*
X022925Y004437D01*
X022921Y004440D02*
X022918Y004444D01*
X022915Y004447D01*
X022912Y004451D01*
X022909Y004454D01*
X022907Y004459D01*
X022904Y004464D01*
X023458Y004464D01*
X023456Y004460D02*
X022906Y004460D01*
X022908Y004456D02*
X023454Y004456D01*
X023452Y004452D02*
X022911Y004452D01*
X022913Y004449D02*
X023449Y004449D01*
X023446Y004445D02*
X022917Y004445D01*
X022931Y004433D02*
X023431Y004433D01*
X023423Y004429D02*
X022939Y004429D01*
X022950Y004425D02*
X023412Y004425D01*
X023398Y004421D02*
X022965Y004421D01*
X022994Y004417D02*
X023367Y004417D01*
X023460Y004468D02*
X022904Y004468D01*
X022903Y004469D02*
X022904Y004464D01*
X022903Y004469D02*
X022902Y004475D01*
X022900Y004481D01*
X022899Y004487D01*
X022897Y004494D01*
X022896Y004501D01*
X022896Y004508D01*
X022896Y004504D02*
X023467Y004504D01*
X023466Y004500D02*
X022897Y004500D01*
X022897Y004496D02*
X023466Y004496D01*
X023466Y004492D02*
X022898Y004492D01*
X022898Y004488D02*
X023465Y004488D01*
X023464Y004484D02*
X022899Y004484D01*
X022900Y004480D02*
X023463Y004480D01*
X023462Y004476D02*
X022901Y004476D01*
X022902Y004472D02*
X023461Y004472D01*
X023468Y004523D02*
X023468Y004532D01*
X023468Y004527D02*
X023362Y004527D01*
X023362Y004539D02*
X023468Y004539D01*
X023468Y004543D02*
X023362Y004543D01*
X023362Y004547D02*
X023465Y004547D01*
X023444Y004551D02*
X023362Y004551D01*
X023362Y004555D02*
X023423Y004555D01*
X023403Y004559D02*
X023362Y004559D01*
X023362Y004563D02*
X023381Y004563D01*
X023378Y004626D02*
X022896Y004626D01*
X022896Y004622D02*
X023352Y004622D01*
X023393Y004630D02*
X023399Y004632D01*
X023404Y004634D01*
X023408Y004636D01*
X023412Y004639D01*
X023416Y004641D01*
X022898Y004641D01*
X022899Y004644D02*
X022897Y004638D01*
X023410Y004638D01*
X023416Y004641D02*
X023420Y004644D01*
X023423Y004647D01*
X023427Y004650D01*
X023430Y004654D01*
X023432Y004659D01*
X023435Y004663D01*
X023437Y004668D01*
X023439Y004674D01*
X023441Y004679D01*
X023443Y004685D01*
X022915Y004685D01*
X022912Y004681D01*
X023442Y004681D01*
X023443Y004685D02*
X023444Y004692D01*
X023446Y004698D01*
X023447Y004705D01*
X023448Y004712D01*
X022974Y004712D01*
X022972Y004711D02*
X022966Y004710D01*
X022960Y004709D01*
X022954Y004707D01*
X022948Y004705D01*
X022942Y004703D01*
X022937Y004701D01*
X022933Y004700D01*
X022928Y004697D01*
X023445Y004697D01*
X023446Y004701D02*
X022934Y004701D01*
X022928Y004697D02*
X022925Y004694D01*
X022921Y004691D01*
X022918Y004688D01*
X022915Y004685D01*
X022918Y004689D02*
X023444Y004689D01*
X023445Y004693D02*
X022923Y004693D01*
X022912Y004681D02*
X022909Y004677D01*
X023440Y004677D01*
X023439Y004673D02*
X022907Y004673D01*
X022907Y004672D02*
X022904Y004667D01*
X022903Y004662D01*
X022902Y004656D01*
X022900Y004650D01*
X022899Y004644D01*
X022899Y004645D02*
X023421Y004645D01*
X023425Y004649D02*
X022900Y004649D01*
X022901Y004653D02*
X023428Y004653D01*
X023431Y004657D02*
X022902Y004657D01*
X022903Y004661D02*
X023433Y004661D01*
X023436Y004665D02*
X022904Y004665D01*
X022905Y004669D02*
X023437Y004669D01*
X023447Y004704D02*
X022943Y004704D01*
X022956Y004708D02*
X023447Y004708D01*
X023448Y004712D02*
X023448Y004720D01*
X023341Y004720D01*
X023341Y004716D02*
X023448Y004716D01*
X023448Y004720D02*
X023448Y004728D01*
X023341Y004728D01*
X023341Y004724D02*
X023448Y004724D01*
X023448Y004728D02*
X023449Y004736D01*
X023341Y004736D01*
X023341Y004740D02*
X023449Y004740D01*
X023449Y004744D02*
X023341Y004744D01*
X023341Y004748D02*
X023449Y004748D01*
X023449Y004752D02*
X023341Y004752D01*
X023341Y004756D02*
X023449Y004756D01*
X023449Y004760D02*
X023341Y004760D01*
X023341Y004764D02*
X023449Y004764D01*
X023449Y004767D02*
X023341Y004767D01*
X023341Y004771D02*
X023449Y004771D01*
X023449Y004775D02*
X023341Y004775D01*
X023341Y004779D02*
X023449Y004779D01*
X023449Y004783D02*
X023341Y004783D01*
X023341Y004787D02*
X023449Y004787D01*
X023449Y004790D02*
X023448Y004799D01*
X023341Y004799D01*
X023341Y004803D02*
X023448Y004803D01*
X023448Y004807D02*
X023341Y004807D01*
X023341Y004811D02*
X023448Y004811D01*
X023448Y004815D02*
X023341Y004815D01*
X023341Y004817D02*
X023341Y004715D01*
X023022Y004715D01*
X023013Y004715D01*
X023004Y004714D01*
X022995Y004714D01*
X022987Y004713D01*
X022980Y004712D01*
X022972Y004711D01*
X022975Y004771D02*
X023003Y004771D01*
X023003Y004767D02*
X022994Y004767D01*
X023003Y004765D02*
X023003Y004817D01*
X023341Y004817D01*
X023341Y004795D02*
X023449Y004795D01*
X023449Y004791D02*
X023341Y004791D01*
X023341Y004732D02*
X023449Y004732D01*
X023449Y004736D02*
X023449Y004790D01*
X023448Y004799D02*
X023448Y004807D01*
X023448Y004815D01*
X023447Y004822D01*
X023446Y004828D01*
X023444Y004835D01*
X023443Y004841D01*
X023441Y004847D01*
X023439Y004853D01*
X022908Y004853D01*
X022907Y004852D02*
X022906Y004846D01*
X022904Y004840D01*
X022904Y004834D01*
X023445Y004834D01*
X023445Y004830D02*
X022903Y004830D01*
X022903Y004827D02*
X022902Y004822D01*
X022901Y004814D01*
X022901Y004807D01*
X023003Y004807D01*
X023003Y004811D02*
X022901Y004811D01*
X022901Y004815D02*
X023003Y004815D01*
X023003Y004803D02*
X022901Y004803D01*
X022901Y004807D02*
X022901Y004799D01*
X023003Y004799D01*
X023003Y004795D02*
X022901Y004795D01*
X022901Y004791D02*
X023003Y004791D01*
X023003Y004787D02*
X022903Y004787D01*
X022901Y004787D02*
X023003Y004765D01*
X023003Y004775D02*
X022958Y004775D01*
X022939Y004779D02*
X023003Y004779D01*
X023003Y004783D02*
X022920Y004783D01*
X022901Y004787D02*
X022901Y004799D01*
X022902Y004819D02*
X023447Y004819D01*
X023447Y004823D02*
X022902Y004823D01*
X022902Y004826D02*
X023446Y004826D01*
X023444Y004838D02*
X022904Y004838D01*
X022904Y004834D02*
X022903Y004827D01*
X022904Y004842D02*
X023443Y004842D01*
X023442Y004845D02*
X022905Y004845D01*
X022907Y004849D02*
X023440Y004849D01*
X023439Y004853D02*
X023437Y004858D01*
X023435Y004863D01*
X023432Y004868D01*
X023430Y004872D01*
X023427Y004876D01*
X023423Y004879D01*
X023420Y004882D01*
X023416Y004885D01*
X022931Y004885D01*
X022929Y004884D02*
X022926Y004881D01*
X023421Y004881D01*
X023416Y004885D02*
X023412Y004888D01*
X023408Y004890D01*
X023404Y004892D01*
X023399Y004894D01*
X023393Y004896D01*
X022956Y004896D01*
X022957Y004897D02*
X022952Y004895D01*
X022946Y004893D01*
X022942Y004891D01*
X022937Y004889D01*
X022933Y004887D01*
X022929Y004884D01*
X022926Y004881D02*
X022922Y004878D01*
X022919Y004875D01*
X022917Y004871D01*
X022914Y004866D01*
X022912Y004862D01*
X022909Y004857D01*
X022907Y004852D01*
X022910Y004857D02*
X023437Y004857D01*
X023436Y004861D02*
X022911Y004861D01*
X022913Y004865D02*
X023434Y004865D01*
X023431Y004869D02*
X022916Y004869D01*
X022919Y004873D02*
X023428Y004873D01*
X023425Y004877D02*
X022922Y004877D01*
X022937Y004889D02*
X023410Y004889D01*
X023403Y004892D02*
X022945Y004892D01*
X022957Y004897D02*
X022963Y004898D01*
X022968Y004900D01*
X022974Y004901D01*
X022981Y004903D01*
X022988Y004904D01*
X022996Y004904D01*
X023004Y004905D01*
X023012Y004905D01*
X023020Y004906D01*
X023029Y004906D01*
X023320Y004906D01*
X023329Y004906D01*
X023337Y004905D01*
X023345Y004905D01*
X023353Y004904D01*
X023361Y004903D01*
X023368Y004902D01*
X023375Y004901D01*
X023381Y004900D01*
X023387Y004898D01*
X023393Y004896D01*
X023378Y004900D02*
X022970Y004900D01*
X022997Y004904D02*
X023352Y004904D01*
X023403Y004634D02*
X022897Y004634D01*
X022896Y004631D02*
X022897Y004638D01*
X022895Y004618D02*
X023001Y004618D01*
X023001Y004614D02*
X022895Y004614D01*
X022895Y004610D02*
X023001Y004610D01*
X023001Y004606D02*
X022895Y004606D01*
X022895Y004602D02*
X023001Y004602D01*
X023001Y004598D02*
X022895Y004598D01*
X022895Y004594D02*
X023001Y004594D01*
X023001Y004590D02*
X022895Y004590D01*
X022895Y004586D02*
X023001Y004586D01*
X023001Y004582D02*
X022895Y004582D01*
X022895Y004578D02*
X023001Y004578D01*
X023001Y004575D02*
X022895Y004575D01*
X022895Y004571D02*
X023001Y004571D01*
X023001Y004567D02*
X022895Y004567D01*
X022895Y004563D02*
X023001Y004563D01*
X023001Y004559D02*
X022895Y004559D01*
X022895Y004555D02*
X023001Y004555D01*
X023001Y004551D02*
X022895Y004551D01*
X022895Y004547D02*
X023001Y004547D01*
X023001Y004543D02*
X022895Y004543D01*
X022895Y004539D02*
X023001Y004539D01*
X023001Y004535D02*
X022895Y004535D01*
X022895Y004531D02*
X023001Y004531D01*
X023001Y004527D02*
X022895Y004527D01*
X022895Y004523D02*
X022895Y004515D01*
X022907Y004672D02*
X022909Y004677D01*
X022688Y004673D02*
X022569Y004673D01*
X022569Y004677D02*
X022688Y004677D01*
X022688Y004681D02*
X022569Y004681D01*
X022569Y004685D02*
X022688Y004685D01*
X022688Y004689D02*
X022569Y004689D01*
X022569Y004693D02*
X022688Y004693D01*
X022688Y004697D02*
X022569Y004697D01*
X022569Y004701D02*
X022688Y004701D01*
X022688Y004704D02*
X022569Y004704D01*
X022569Y004708D02*
X022688Y004708D01*
X022688Y004712D02*
X022569Y004712D01*
X022569Y004716D02*
X022688Y004716D01*
X022688Y004720D02*
X022569Y004720D01*
X022569Y004724D02*
X022688Y004724D01*
X022688Y004728D02*
X022569Y004728D01*
X022569Y004732D02*
X022688Y004732D01*
X022688Y004736D02*
X022569Y004736D01*
X022569Y004740D02*
X022688Y004740D01*
X022688Y004744D02*
X022569Y004744D01*
X022569Y004748D02*
X022688Y004748D01*
X022688Y004752D02*
X022569Y004752D01*
X022569Y004756D02*
X022688Y004756D01*
X022688Y004760D02*
X022569Y004760D01*
X022569Y004764D02*
X022688Y004764D01*
X022688Y004767D02*
X022569Y004767D01*
X022569Y004771D02*
X022688Y004771D01*
X022688Y004775D02*
X022569Y004775D01*
X022569Y004779D02*
X022688Y004779D01*
X022688Y004783D02*
X022569Y004783D01*
X022569Y004787D02*
X022688Y004787D01*
X022688Y004791D02*
X022569Y004791D01*
X022569Y004795D02*
X022688Y004795D01*
X022688Y004799D02*
X022569Y004799D01*
X022569Y004803D02*
X022688Y004803D01*
X022688Y004807D02*
X022569Y004807D01*
X022569Y004811D02*
X022688Y004811D01*
X022688Y004815D02*
X022569Y004815D01*
X022569Y004819D02*
X022688Y004819D01*
X022688Y004823D02*
X022569Y004823D01*
X022569Y004826D02*
X022688Y004826D01*
X022688Y004830D02*
X022569Y004830D01*
X022569Y004834D02*
X022688Y004834D01*
X022688Y004838D02*
X022569Y004838D01*
X022569Y004842D02*
X022688Y004842D01*
X022688Y004845D02*
X022569Y004845D01*
X022569Y004849D02*
X022688Y004849D01*
X022688Y004853D02*
X022569Y004853D01*
X022569Y004857D02*
X022688Y004857D01*
X022688Y004861D02*
X022569Y004861D01*
X022569Y004865D02*
X022688Y004865D01*
X022688Y004869D02*
X022569Y004869D01*
X022569Y004873D02*
X022688Y004873D01*
X022688Y004877D02*
X022569Y004877D01*
X022569Y004881D02*
X022688Y004881D01*
X022688Y004885D02*
X022569Y004885D01*
X022569Y004889D02*
X022688Y004889D01*
X022688Y004892D02*
X022569Y004892D01*
X022569Y004896D02*
X022688Y004896D01*
X022688Y004900D02*
X022569Y004900D01*
X022569Y004904D02*
X022688Y004904D01*
X022688Y004906D02*
X022569Y004906D01*
X022569Y004508D01*
X022228Y004508D01*
X022228Y004906D01*
X022107Y004906D01*
X022107Y004532D01*
X022107Y004523D01*
X022228Y004523D01*
X022228Y004519D02*
X022107Y004519D01*
X022108Y004515D02*
X022228Y004515D01*
X022228Y004512D02*
X022108Y004512D01*
X022108Y004509D02*
X022109Y004501D01*
X022110Y004494D01*
X022111Y004487D01*
X022112Y004481D01*
X022114Y004475D01*
X022116Y004469D01*
X022118Y004464D01*
X022120Y004459D01*
X022123Y004454D01*
X022125Y004451D01*
X022128Y004447D01*
X022131Y004444D01*
X022135Y004440D01*
X022138Y004437D01*
X022142Y004435D01*
X022147Y004432D01*
X022151Y004430D01*
X022155Y004428D01*
X022161Y004426D01*
X022167Y004424D01*
X022173Y004422D01*
X022180Y004421D01*
X022187Y004419D01*
X022194Y004418D01*
X022202Y004418D01*
X022210Y004417D01*
X022218Y004416D01*
X022227Y004416D01*
X022236Y004416D01*
X022560Y004416D01*
X022570Y004416D01*
X022579Y004416D01*
X022587Y004417D01*
X022594Y004418D01*
X022602Y004418D01*
X022610Y004419D01*
X022617Y004421D01*
X022623Y004422D01*
X022630Y004424D01*
X022635Y004426D01*
X022641Y004428D01*
X022646Y004430D01*
X022650Y004432D01*
X022654Y004435D01*
X022658Y004437D01*
X022661Y004440D01*
X022664Y004444D01*
X022667Y004447D01*
X022670Y004451D01*
X022673Y004454D01*
X022675Y004459D01*
X022678Y004464D01*
X022118Y004464D01*
X022120Y004460D02*
X022676Y004460D01*
X022674Y004456D02*
X022122Y004456D01*
X022124Y004452D02*
X022671Y004452D01*
X022669Y004449D02*
X022127Y004449D01*
X022130Y004445D02*
X022666Y004445D01*
X022662Y004441D02*
X022134Y004441D01*
X022139Y004437D02*
X022657Y004437D01*
X022652Y004433D02*
X022145Y004433D01*
X022153Y004429D02*
X022644Y004429D01*
X022633Y004425D02*
X022163Y004425D01*
X022179Y004421D02*
X022618Y004421D01*
X022588Y004417D02*
X022209Y004417D01*
X022116Y004468D02*
X022679Y004468D01*
X022680Y004469D02*
X022682Y004475D01*
X022683Y004481D01*
X022685Y004487D01*
X022686Y004494D01*
X022687Y004501D01*
X022687Y004509D01*
X022688Y004515D01*
X022569Y004515D01*
X022569Y004512D02*
X022688Y004512D01*
X022688Y004515D02*
X022688Y004523D01*
X022569Y004523D01*
X022569Y004519D02*
X022688Y004519D01*
X022688Y004523D02*
X022688Y004532D01*
X022688Y004906D01*
X022688Y004669D02*
X022569Y004669D01*
X022569Y004665D02*
X022688Y004665D01*
X022688Y004661D02*
X022569Y004661D01*
X022569Y004657D02*
X022688Y004657D01*
X022688Y004653D02*
X022569Y004653D01*
X022569Y004649D02*
X022688Y004649D01*
X022688Y004645D02*
X022569Y004645D01*
X022569Y004641D02*
X022688Y004641D01*
X022688Y004638D02*
X022569Y004638D01*
X022569Y004634D02*
X022688Y004634D01*
X022688Y004630D02*
X022569Y004630D01*
X022569Y004626D02*
X022688Y004626D01*
X022688Y004622D02*
X022569Y004622D01*
X022569Y004618D02*
X022688Y004618D01*
X022688Y004614D02*
X022569Y004614D01*
X022569Y004610D02*
X022688Y004610D01*
X022688Y004606D02*
X022569Y004606D01*
X022569Y004602D02*
X022688Y004602D01*
X022688Y004598D02*
X022569Y004598D01*
X022569Y004594D02*
X022688Y004594D01*
X022688Y004590D02*
X022569Y004590D01*
X022569Y004586D02*
X022688Y004586D01*
X022688Y004582D02*
X022569Y004582D01*
X022569Y004578D02*
X022688Y004578D01*
X022688Y004575D02*
X022569Y004575D01*
X022569Y004571D02*
X022688Y004571D01*
X022688Y004567D02*
X022569Y004567D01*
X022569Y004563D02*
X022688Y004563D01*
X022688Y004559D02*
X022569Y004559D01*
X022569Y004555D02*
X022688Y004555D01*
X022688Y004551D02*
X022569Y004551D01*
X022569Y004547D02*
X022688Y004547D01*
X022688Y004543D02*
X022569Y004543D01*
X022569Y004539D02*
X022688Y004539D01*
X022688Y004535D02*
X022569Y004535D01*
X022569Y004531D02*
X022688Y004531D01*
X022688Y004527D02*
X022569Y004527D01*
X022687Y004508D02*
X022108Y004508D01*
X022108Y004509D02*
X022108Y004515D01*
X022107Y004523D01*
X022107Y004527D02*
X022228Y004527D01*
X022228Y004531D02*
X022107Y004531D01*
X022107Y004535D02*
X022228Y004535D01*
X022228Y004539D02*
X022107Y004539D01*
X022107Y004543D02*
X022228Y004543D01*
X022228Y004547D02*
X022107Y004547D01*
X022107Y004551D02*
X022228Y004551D01*
X022228Y004555D02*
X022107Y004555D01*
X022107Y004559D02*
X022228Y004559D01*
X022228Y004563D02*
X022107Y004563D01*
X022107Y004567D02*
X022228Y004567D01*
X022228Y004571D02*
X022107Y004571D01*
X022107Y004575D02*
X022228Y004575D01*
X022228Y004578D02*
X022107Y004578D01*
X022107Y004582D02*
X022228Y004582D01*
X022228Y004586D02*
X022107Y004586D01*
X022107Y004590D02*
X022228Y004590D01*
X022228Y004594D02*
X022107Y004594D01*
X022107Y004598D02*
X022228Y004598D01*
X022228Y004602D02*
X022107Y004602D01*
X022107Y004606D02*
X022228Y004606D01*
X022228Y004610D02*
X022107Y004610D01*
X022107Y004614D02*
X022228Y004614D01*
X022228Y004618D02*
X022107Y004618D01*
X022107Y004622D02*
X022228Y004622D01*
X022228Y004626D02*
X022107Y004626D01*
X022107Y004630D02*
X022228Y004630D01*
X022228Y004634D02*
X022107Y004634D01*
X022107Y004638D02*
X022228Y004638D01*
X022228Y004641D02*
X022107Y004641D01*
X022107Y004645D02*
X022228Y004645D01*
X022228Y004649D02*
X022107Y004649D01*
X022107Y004653D02*
X022228Y004653D01*
X022228Y004657D02*
X022107Y004657D01*
X022107Y004661D02*
X022228Y004661D01*
X022228Y004665D02*
X022107Y004665D01*
X022107Y004669D02*
X022228Y004669D01*
X022228Y004673D02*
X022107Y004673D01*
X022107Y004677D02*
X022228Y004677D01*
X022228Y004681D02*
X022107Y004681D01*
X022107Y004685D02*
X022228Y004685D01*
X022228Y004689D02*
X022107Y004689D01*
X022107Y004693D02*
X022228Y004693D01*
X022228Y004697D02*
X022107Y004697D01*
X022107Y004701D02*
X022228Y004701D01*
X022228Y004704D02*
X022107Y004704D01*
X022107Y004708D02*
X022228Y004708D01*
X022228Y004712D02*
X022107Y004712D01*
X022107Y004716D02*
X022228Y004716D01*
X022228Y004720D02*
X022107Y004720D01*
X022107Y004724D02*
X022228Y004724D01*
X022228Y004728D02*
X022107Y004728D01*
X022107Y004732D02*
X022228Y004732D01*
X022228Y004736D02*
X022107Y004736D01*
X022107Y004740D02*
X022228Y004740D01*
X022228Y004744D02*
X022107Y004744D01*
X022107Y004748D02*
X022228Y004748D01*
X022228Y004752D02*
X022107Y004752D01*
X022107Y004756D02*
X022228Y004756D01*
X022228Y004760D02*
X022107Y004760D01*
X022107Y004764D02*
X022228Y004764D01*
X022228Y004767D02*
X022107Y004767D01*
X022107Y004771D02*
X022228Y004771D01*
X022228Y004775D02*
X022107Y004775D01*
X022107Y004779D02*
X022228Y004779D01*
X022228Y004783D02*
X022107Y004783D01*
X022107Y004787D02*
X022228Y004787D01*
X022228Y004791D02*
X022107Y004791D01*
X022107Y004795D02*
X022228Y004795D01*
X022228Y004799D02*
X022107Y004799D01*
X022107Y004803D02*
X022228Y004803D01*
X022228Y004807D02*
X022107Y004807D01*
X022107Y004811D02*
X022228Y004811D01*
X022228Y004815D02*
X022107Y004815D01*
X022107Y004819D02*
X022228Y004819D01*
X022228Y004823D02*
X022107Y004823D01*
X022107Y004826D02*
X022228Y004826D01*
X022228Y004830D02*
X022107Y004830D01*
X022107Y004834D02*
X022228Y004834D01*
X022228Y004838D02*
X022107Y004838D01*
X022107Y004842D02*
X022228Y004842D01*
X022228Y004845D02*
X022107Y004845D01*
X022107Y004849D02*
X022228Y004849D01*
X022228Y004853D02*
X022107Y004853D01*
X022107Y004857D02*
X022228Y004857D01*
X022228Y004861D02*
X022107Y004861D01*
X022107Y004865D02*
X022228Y004865D01*
X022228Y004869D02*
X022107Y004869D01*
X022107Y004873D02*
X022228Y004873D01*
X022228Y004877D02*
X022107Y004877D01*
X022107Y004881D02*
X022228Y004881D01*
X022228Y004885D02*
X022107Y004885D01*
X022107Y004889D02*
X022228Y004889D01*
X022228Y004892D02*
X022107Y004892D01*
X022107Y004896D02*
X022228Y004896D01*
X022228Y004900D02*
X022107Y004900D01*
X022107Y004904D02*
X022228Y004904D01*
X021891Y004900D02*
X021609Y004900D01*
X021402Y004900D01*
X021400Y004900D02*
X021389Y004896D01*
X021380Y004892D01*
X021609Y004892D01*
X021891Y004892D01*
X021891Y004889D02*
X021609Y004889D01*
X021373Y004889D01*
X021371Y004888D02*
X021363Y004883D01*
X021356Y004876D01*
X021350Y004869D01*
X021345Y004861D01*
X021341Y004852D01*
X021339Y004843D01*
X021337Y004833D01*
X021335Y004823D01*
X021609Y004823D01*
X021891Y004823D01*
X021891Y004826D02*
X021609Y004826D01*
X021336Y004826D01*
X021335Y004823D02*
X021335Y004811D01*
X021459Y004811D01*
X021460Y004812D02*
X021464Y004814D01*
X021467Y004816D01*
X021472Y004818D01*
X021476Y004819D01*
X021482Y004820D01*
X021488Y004821D01*
X021494Y004821D01*
X021500Y004821D01*
X021609Y004821D01*
X021609Y004906D01*
X021891Y004906D01*
X021891Y004416D01*
X021773Y004416D01*
X021773Y004601D01*
X021659Y004601D01*
X021609Y004555D01*
X021458Y004555D01*
X021463Y004559D02*
X021609Y004559D01*
X021613Y004559D01*
X021609Y004563D02*
X021617Y004563D01*
X021622Y004567D02*
X021609Y004567D01*
X021472Y004567D01*
X021467Y004563D02*
X021609Y004563D01*
X021609Y004571D02*
X021626Y004571D01*
X021630Y004575D02*
X021609Y004575D01*
X021482Y004575D01*
X021477Y004571D02*
X021609Y004571D01*
X021609Y004578D02*
X021635Y004578D01*
X021639Y004582D02*
X021609Y004582D01*
X021493Y004582D01*
X021488Y004578D02*
X021609Y004578D01*
X021609Y004586D02*
X021643Y004586D01*
X021648Y004590D02*
X021609Y004590D01*
X021503Y004590D01*
X021498Y004586D02*
X021609Y004586D01*
X021609Y004594D02*
X021652Y004594D01*
X021656Y004598D02*
X021609Y004598D01*
X021513Y004598D01*
X021517Y004601D02*
X021283Y004416D01*
X021456Y004416D01*
X021609Y004555D01*
X021609Y004686D01*
X021773Y004686D01*
X021773Y004821D01*
X021609Y004821D01*
X021609Y004906D01*
X021450Y004906D01*
X021436Y004905D01*
X021422Y004904D01*
X021410Y004902D01*
X021400Y004900D01*
X021390Y004896D02*
X021609Y004896D01*
X021891Y004896D01*
X021891Y004904D02*
X021609Y004904D01*
X021424Y004904D01*
X021380Y004892D02*
X021371Y004888D01*
X021367Y004885D02*
X021609Y004885D01*
X021891Y004885D01*
X021891Y004881D02*
X021609Y004881D01*
X021362Y004881D01*
X021358Y004877D02*
X021609Y004877D01*
X021891Y004877D01*
X021891Y004873D02*
X021609Y004873D01*
X021354Y004873D01*
X021351Y004869D02*
X021609Y004869D01*
X021891Y004869D01*
X021891Y004865D02*
X021609Y004865D01*
X021348Y004865D01*
X021346Y004861D02*
X021609Y004861D01*
X021891Y004861D01*
X021891Y004857D02*
X021609Y004857D01*
X021343Y004857D01*
X021342Y004853D02*
X021609Y004853D01*
X021891Y004853D01*
X021891Y004849D02*
X021609Y004849D01*
X021341Y004849D01*
X021340Y004845D02*
X021609Y004845D01*
X021891Y004845D01*
X021891Y004842D02*
X021609Y004842D01*
X021339Y004842D01*
X021338Y004838D02*
X021609Y004838D01*
X021891Y004838D01*
X021891Y004834D02*
X021609Y004834D01*
X021337Y004834D01*
X021336Y004830D02*
X021609Y004830D01*
X021891Y004830D01*
X021891Y004819D02*
X021773Y004819D01*
X021773Y004815D02*
X021891Y004815D01*
X021891Y004811D02*
X021773Y004811D01*
X021773Y004807D02*
X021891Y004807D01*
X021891Y004803D02*
X021773Y004803D01*
X021773Y004799D02*
X021891Y004799D01*
X021891Y004795D02*
X021773Y004795D01*
X021773Y004791D02*
X021891Y004791D01*
X021891Y004787D02*
X021773Y004787D01*
X021773Y004783D02*
X021891Y004783D01*
X021891Y004779D02*
X021773Y004779D01*
X021773Y004775D02*
X021891Y004775D01*
X021891Y004771D02*
X021773Y004771D01*
X021773Y004767D02*
X021891Y004767D01*
X021891Y004764D02*
X021773Y004764D01*
X021773Y004760D02*
X021891Y004760D01*
X021891Y004756D02*
X021773Y004756D01*
X021773Y004752D02*
X021891Y004752D01*
X021891Y004748D02*
X021773Y004748D01*
X021773Y004744D02*
X021891Y004744D01*
X021891Y004740D02*
X021773Y004740D01*
X021773Y004736D02*
X021891Y004736D01*
X021891Y004732D02*
X021773Y004732D01*
X021773Y004728D02*
X021891Y004728D01*
X021891Y004724D02*
X021773Y004724D01*
X021773Y004720D02*
X021891Y004720D01*
X021891Y004716D02*
X021773Y004716D01*
X021773Y004712D02*
X021891Y004712D01*
X021891Y004708D02*
X021773Y004708D01*
X021773Y004704D02*
X021891Y004704D01*
X021891Y004701D02*
X021773Y004701D01*
X021773Y004697D02*
X021891Y004697D01*
X021891Y004693D02*
X021773Y004693D01*
X021773Y004689D02*
X021891Y004689D01*
X021891Y004685D02*
X021609Y004685D01*
X021335Y004685D01*
X021335Y004684D02*
X021337Y004673D01*
X021609Y004673D01*
X021891Y004673D01*
X021891Y004677D02*
X021609Y004677D01*
X021336Y004677D01*
X021336Y004681D02*
X021609Y004681D01*
X021891Y004681D01*
X021891Y004669D02*
X021609Y004669D01*
X021338Y004669D01*
X021339Y004665D02*
X021609Y004665D01*
X021891Y004665D01*
X021891Y004661D02*
X021609Y004661D01*
X021340Y004661D01*
X021339Y004663D02*
X021341Y004654D01*
X021345Y004645D01*
X021350Y004639D01*
X021356Y004631D01*
X021363Y004625D01*
X021371Y004619D01*
X021380Y004615D01*
X021389Y004610D01*
X021400Y004607D01*
X021410Y004604D01*
X021422Y004602D01*
X021436Y004601D01*
X021450Y004601D01*
X021517Y004601D01*
X021508Y004594D02*
X021609Y004594D01*
X021609Y004602D02*
X021891Y004602D01*
X021891Y004598D02*
X021773Y004598D01*
X021773Y004594D02*
X021891Y004594D01*
X021891Y004590D02*
X021773Y004590D01*
X021773Y004586D02*
X021891Y004586D01*
X021891Y004582D02*
X021773Y004582D01*
X021773Y004578D02*
X021891Y004578D01*
X021891Y004575D02*
X021773Y004575D01*
X021773Y004571D02*
X021891Y004571D01*
X021891Y004567D02*
X021773Y004567D01*
X021773Y004563D02*
X021891Y004563D01*
X021891Y004559D02*
X021773Y004559D01*
X021773Y004555D02*
X021891Y004555D01*
X021891Y004551D02*
X021773Y004551D01*
X021773Y004547D02*
X021891Y004547D01*
X021891Y004543D02*
X021773Y004543D01*
X021773Y004539D02*
X021891Y004539D01*
X021891Y004535D02*
X021773Y004535D01*
X021773Y004531D02*
X021891Y004531D01*
X021891Y004527D02*
X021773Y004527D01*
X021773Y004523D02*
X021891Y004523D01*
X021891Y004519D02*
X021773Y004519D01*
X021773Y004515D02*
X021891Y004515D01*
X021891Y004512D02*
X021773Y004512D01*
X021773Y004508D02*
X021891Y004508D01*
X021891Y004504D02*
X021773Y004504D01*
X021773Y004500D02*
X021891Y004500D01*
X021891Y004496D02*
X021773Y004496D01*
X021773Y004492D02*
X021891Y004492D01*
X021891Y004488D02*
X021773Y004488D01*
X021773Y004484D02*
X021891Y004484D01*
X021891Y004480D02*
X021773Y004480D01*
X021773Y004476D02*
X021891Y004476D01*
X021891Y004472D02*
X021773Y004472D01*
X021773Y004468D02*
X021891Y004468D01*
X021891Y004464D02*
X021773Y004464D01*
X021773Y004460D02*
X021891Y004460D01*
X021891Y004456D02*
X021773Y004456D01*
X021773Y004452D02*
X021891Y004452D01*
X021891Y004449D02*
X021773Y004449D01*
X021773Y004445D02*
X021891Y004445D01*
X021891Y004441D02*
X021773Y004441D01*
X021773Y004437D02*
X021891Y004437D01*
X021891Y004433D02*
X021773Y004433D01*
X021773Y004429D02*
X021891Y004429D01*
X021891Y004425D02*
X021773Y004425D01*
X021773Y004421D02*
X021891Y004421D01*
X021891Y004417D02*
X021773Y004417D01*
X021609Y004555D02*
X021609Y004686D01*
X021500Y004686D01*
X021494Y004686D01*
X021488Y004687D01*
X021482Y004688D01*
X021476Y004689D01*
X021472Y004690D01*
X021467Y004692D01*
X021464Y004694D01*
X021460Y004696D01*
X021457Y004699D01*
X021454Y004701D01*
X021452Y004704D01*
X021335Y004704D01*
X021335Y004701D02*
X021455Y004701D01*
X021452Y004704D02*
X021450Y004708D01*
X021335Y004708D01*
X021335Y004712D02*
X021448Y004712D01*
X021449Y004711D02*
X021447Y004716D01*
X021335Y004716D01*
X021335Y004720D02*
X021447Y004720D01*
X021447Y004725D01*
X021447Y004782D01*
X021447Y004787D01*
X021335Y004787D01*
X021335Y004783D02*
X021447Y004783D01*
X021447Y004779D02*
X021335Y004779D01*
X021335Y004775D02*
X021447Y004775D01*
X021447Y004771D02*
X021335Y004771D01*
X021335Y004767D02*
X021447Y004767D01*
X021447Y004764D02*
X021335Y004764D01*
X021335Y004760D02*
X021447Y004760D01*
X021447Y004756D02*
X021335Y004756D01*
X021335Y004752D02*
X021447Y004752D01*
X021447Y004748D02*
X021335Y004748D01*
X021335Y004744D02*
X021447Y004744D01*
X021447Y004740D02*
X021335Y004740D01*
X021335Y004736D02*
X021447Y004736D01*
X021447Y004732D02*
X021335Y004732D01*
X021335Y004728D02*
X021447Y004728D01*
X021447Y004724D02*
X021335Y004724D01*
X021335Y004697D02*
X021460Y004697D01*
X021466Y004693D02*
X021335Y004693D01*
X021335Y004695D02*
X021335Y004684D01*
X021335Y004689D02*
X021477Y004689D01*
X021450Y004708D02*
X021449Y004711D01*
X021447Y004716D02*
X021447Y004720D01*
X021447Y004787D02*
X021447Y004791D01*
X021335Y004791D01*
X021335Y004795D02*
X021448Y004795D01*
X021449Y004795D02*
X021450Y004799D01*
X021335Y004799D01*
X021335Y004803D02*
X021452Y004803D01*
X021454Y004806D01*
X021457Y004809D01*
X021460Y004812D01*
X021465Y004815D02*
X021335Y004815D01*
X021335Y004819D02*
X021475Y004819D01*
X021455Y004807D02*
X021335Y004807D01*
X021335Y004811D02*
X021335Y004695D01*
X021337Y004673D02*
X021339Y004663D01*
X021341Y004657D02*
X021609Y004657D01*
X021891Y004657D01*
X021891Y004653D02*
X021609Y004653D01*
X021342Y004653D01*
X021344Y004649D02*
X021609Y004649D01*
X021891Y004649D01*
X021891Y004645D02*
X021609Y004645D01*
X021346Y004645D01*
X021348Y004641D02*
X021609Y004641D01*
X021891Y004641D01*
X021891Y004638D02*
X021609Y004638D01*
X021351Y004638D01*
X021354Y004634D02*
X021609Y004634D01*
X021891Y004634D01*
X021891Y004630D02*
X021609Y004630D01*
X021358Y004630D01*
X021363Y004626D02*
X021609Y004626D01*
X021891Y004626D01*
X021891Y004622D02*
X021609Y004622D01*
X021368Y004622D01*
X021374Y004618D02*
X021609Y004618D01*
X021891Y004618D01*
X021891Y004614D02*
X021609Y004614D01*
X021381Y004614D01*
X021391Y004610D02*
X021609Y004610D01*
X021891Y004610D01*
X021891Y004606D02*
X021609Y004606D01*
X021404Y004606D01*
X021430Y004602D02*
X021609Y004602D01*
X021604Y004551D02*
X021453Y004551D01*
X021448Y004547D02*
X021600Y004547D01*
X021595Y004543D02*
X021443Y004543D01*
X021438Y004539D02*
X021591Y004539D01*
X021588Y004535D02*
X021433Y004535D01*
X021428Y004531D02*
X021583Y004531D01*
X021579Y004527D02*
X021423Y004527D01*
X021418Y004523D02*
X021574Y004523D01*
X021570Y004519D02*
X021413Y004519D01*
X021408Y004515D02*
X021565Y004515D01*
X021561Y004512D02*
X021404Y004512D01*
X021399Y004508D02*
X021557Y004508D01*
X021552Y004504D02*
X021394Y004504D01*
X021389Y004500D02*
X021548Y004500D01*
X021543Y004496D02*
X021384Y004496D01*
X021379Y004492D02*
X021539Y004492D01*
X021534Y004488D02*
X021374Y004488D01*
X021369Y004484D02*
X021530Y004484D01*
X021527Y004480D02*
X021364Y004480D01*
X021359Y004476D02*
X021522Y004476D01*
X021518Y004472D02*
X021354Y004472D01*
X021349Y004468D02*
X021513Y004468D01*
X021509Y004464D02*
X021344Y004464D01*
X021340Y004460D02*
X021504Y004460D01*
X021500Y004456D02*
X021334Y004456D01*
X021329Y004452D02*
X021496Y004452D01*
X021491Y004449D02*
X021324Y004449D01*
X021319Y004445D02*
X021487Y004445D01*
X021482Y004441D02*
X021314Y004441D01*
X021309Y004437D02*
X021478Y004437D01*
X021473Y004433D02*
X021304Y004433D01*
X021299Y004429D02*
X021469Y004429D01*
X021466Y004425D02*
X021294Y004425D01*
X021289Y004421D02*
X021461Y004421D01*
X021457Y004417D02*
X021284Y004417D01*
X021139Y004416D02*
X021139Y004906D01*
X020856Y004906D01*
X020856Y004821D01*
X021020Y004821D01*
X021020Y004686D01*
X020856Y004686D01*
X020856Y004555D01*
X020706Y004555D01*
X020711Y004559D02*
X020856Y004559D01*
X020860Y004559D01*
X020856Y004563D02*
X020865Y004563D01*
X020869Y004567D02*
X020856Y004567D01*
X020720Y004567D01*
X020716Y004563D02*
X020856Y004563D01*
X020856Y004571D02*
X020873Y004571D01*
X020878Y004575D02*
X020856Y004575D01*
X020730Y004575D01*
X020735Y004578D02*
X020856Y004578D01*
X020882Y004578D01*
X020887Y004582D02*
X020856Y004582D01*
X020740Y004582D01*
X020745Y004586D02*
X020856Y004586D01*
X020891Y004586D01*
X020896Y004590D02*
X020856Y004590D01*
X020750Y004590D01*
X020755Y004594D02*
X020856Y004594D01*
X020900Y004594D01*
X020904Y004598D02*
X020856Y004598D01*
X020760Y004598D01*
X020764Y004601D02*
X020531Y004416D01*
X020703Y004416D01*
X020856Y004555D01*
X020907Y004601D01*
X021020Y004601D01*
X021020Y004416D01*
X021139Y004416D01*
X021139Y004417D02*
X021020Y004417D01*
X021020Y004421D02*
X021139Y004421D01*
X021139Y004425D02*
X021020Y004425D01*
X021020Y004429D02*
X021139Y004429D01*
X021139Y004433D02*
X021020Y004433D01*
X021020Y004437D02*
X021139Y004437D01*
X021139Y004441D02*
X021020Y004441D01*
X021020Y004445D02*
X021139Y004445D01*
X021139Y004449D02*
X021020Y004449D01*
X021020Y004452D02*
X021139Y004452D01*
X021139Y004456D02*
X021020Y004456D01*
X021020Y004460D02*
X021139Y004460D01*
X021139Y004464D02*
X021020Y004464D01*
X021020Y004468D02*
X021139Y004468D01*
X021139Y004472D02*
X021020Y004472D01*
X021020Y004476D02*
X021139Y004476D01*
X021139Y004480D02*
X021020Y004480D01*
X021020Y004484D02*
X021139Y004484D01*
X021139Y004488D02*
X021020Y004488D01*
X021020Y004492D02*
X021139Y004492D01*
X021139Y004496D02*
X021020Y004496D01*
X021020Y004500D02*
X021139Y004500D01*
X021139Y004504D02*
X021020Y004504D01*
X021020Y004508D02*
X021139Y004508D01*
X021139Y004512D02*
X021020Y004512D01*
X021020Y004515D02*
X021139Y004515D01*
X021139Y004519D02*
X021020Y004519D01*
X021020Y004523D02*
X021139Y004523D01*
X021139Y004527D02*
X021020Y004527D01*
X021020Y004531D02*
X021139Y004531D01*
X021139Y004535D02*
X021020Y004535D01*
X021020Y004539D02*
X021139Y004539D01*
X021139Y004543D02*
X021020Y004543D01*
X021020Y004547D02*
X021139Y004547D01*
X021139Y004551D02*
X021020Y004551D01*
X021020Y004555D02*
X021139Y004555D01*
X021139Y004559D02*
X021020Y004559D01*
X021020Y004563D02*
X021139Y004563D01*
X021139Y004567D02*
X021020Y004567D01*
X021020Y004571D02*
X021139Y004571D01*
X021139Y004575D02*
X021020Y004575D01*
X021020Y004578D02*
X021139Y004578D01*
X021139Y004582D02*
X021020Y004582D01*
X021020Y004586D02*
X021139Y004586D01*
X021139Y004590D02*
X021020Y004590D01*
X021020Y004594D02*
X021139Y004594D01*
X021139Y004598D02*
X021020Y004598D01*
X021020Y004689D02*
X021139Y004689D01*
X021139Y004693D02*
X021020Y004693D01*
X021020Y004697D02*
X021139Y004697D01*
X021139Y004701D02*
X021020Y004701D01*
X021020Y004704D02*
X021139Y004704D01*
X021139Y004708D02*
X021020Y004708D01*
X021020Y004712D02*
X021139Y004712D01*
X021139Y004716D02*
X021020Y004716D01*
X021020Y004720D02*
X021139Y004720D01*
X021139Y004724D02*
X021020Y004724D01*
X021020Y004728D02*
X021139Y004728D01*
X021139Y004732D02*
X021020Y004732D01*
X021020Y004736D02*
X021139Y004736D01*
X021139Y004740D02*
X021020Y004740D01*
X021020Y004744D02*
X021139Y004744D01*
X021139Y004748D02*
X021020Y004748D01*
X021020Y004752D02*
X021139Y004752D01*
X021139Y004756D02*
X021020Y004756D01*
X021020Y004760D02*
X021139Y004760D01*
X021139Y004764D02*
X021020Y004764D01*
X021020Y004767D02*
X021139Y004767D01*
X021139Y004771D02*
X021020Y004771D01*
X021020Y004775D02*
X021139Y004775D01*
X021139Y004779D02*
X021020Y004779D01*
X021020Y004783D02*
X021139Y004783D01*
X021139Y004787D02*
X021020Y004787D01*
X021020Y004791D02*
X021139Y004791D01*
X021139Y004795D02*
X021020Y004795D01*
X021020Y004799D02*
X021139Y004799D01*
X021139Y004803D02*
X021020Y004803D01*
X021020Y004807D02*
X021139Y004807D01*
X021139Y004811D02*
X021020Y004811D01*
X021020Y004815D02*
X021139Y004815D01*
X021139Y004819D02*
X021020Y004819D01*
X021139Y004823D02*
X020856Y004823D01*
X020583Y004823D01*
X020583Y004811D01*
X020706Y004811D01*
X020707Y004812D02*
X020711Y004814D01*
X020715Y004816D01*
X020719Y004818D01*
X020724Y004819D01*
X020729Y004820D01*
X020735Y004821D01*
X020742Y004821D01*
X020748Y004821D01*
X020856Y004821D01*
X020856Y004906D01*
X020697Y004906D01*
X020683Y004905D01*
X020669Y004904D01*
X020657Y004902D01*
X020647Y004900D01*
X020636Y004896D01*
X020627Y004892D01*
X020618Y004888D01*
X020611Y004883D01*
X020604Y004876D01*
X020598Y004869D01*
X020856Y004869D01*
X021139Y004869D01*
X021139Y004873D02*
X020856Y004873D01*
X020602Y004873D01*
X020605Y004877D02*
X020856Y004877D01*
X021139Y004877D01*
X021139Y004881D02*
X020856Y004881D01*
X020609Y004881D01*
X020614Y004885D02*
X020856Y004885D01*
X021139Y004885D01*
X021139Y004889D02*
X020856Y004889D01*
X020620Y004889D01*
X020628Y004892D02*
X020856Y004892D01*
X021139Y004892D01*
X021139Y004896D02*
X020856Y004896D01*
X020637Y004896D01*
X020649Y004900D02*
X020856Y004900D01*
X021139Y004900D01*
X021139Y004904D02*
X020856Y004904D01*
X020670Y004904D01*
X020598Y004869D02*
X020593Y004861D01*
X020856Y004861D01*
X021139Y004861D01*
X021139Y004865D02*
X020856Y004865D01*
X020596Y004865D01*
X020593Y004861D02*
X020590Y004852D01*
X020587Y004843D01*
X020585Y004833D01*
X020583Y004823D01*
X020584Y004826D02*
X020856Y004826D01*
X021139Y004826D01*
X021139Y004830D02*
X020856Y004830D01*
X020584Y004830D01*
X020585Y004834D02*
X020856Y004834D01*
X021139Y004834D01*
X021139Y004838D02*
X020856Y004838D01*
X020585Y004838D01*
X020586Y004842D02*
X020856Y004842D01*
X021139Y004842D01*
X021139Y004845D02*
X020856Y004845D01*
X020588Y004845D01*
X020589Y004849D02*
X020856Y004849D01*
X021139Y004849D01*
X021139Y004853D02*
X020856Y004853D01*
X020590Y004853D01*
X020591Y004857D02*
X020856Y004857D01*
X021139Y004857D01*
X021139Y004685D02*
X020856Y004685D01*
X020583Y004685D01*
X020583Y004684D02*
X020585Y004673D01*
X020856Y004673D01*
X021139Y004673D01*
X021139Y004677D02*
X020856Y004677D01*
X020584Y004677D01*
X020584Y004681D02*
X020856Y004681D01*
X021139Y004681D01*
X021139Y004669D02*
X020856Y004669D01*
X020585Y004669D01*
X020585Y004673D02*
X020587Y004663D01*
X020590Y004654D01*
X020593Y004645D01*
X020856Y004645D01*
X021139Y004645D01*
X021139Y004641D02*
X020856Y004641D01*
X020596Y004641D01*
X020598Y004639D02*
X020604Y004631D01*
X020611Y004625D01*
X020618Y004619D01*
X020627Y004615D01*
X020636Y004610D01*
X020647Y004607D01*
X020657Y004604D01*
X020669Y004602D01*
X020683Y004601D01*
X020697Y004601D01*
X020764Y004601D01*
X020725Y004571D02*
X020856Y004571D01*
X020856Y004555D02*
X020856Y004686D01*
X020748Y004686D01*
X020742Y004686D01*
X020735Y004687D01*
X020729Y004688D01*
X020724Y004689D01*
X020583Y004689D01*
X020583Y004693D02*
X020714Y004693D01*
X020715Y004692D02*
X020711Y004694D01*
X020707Y004696D01*
X020704Y004699D01*
X020701Y004701D01*
X020699Y004704D01*
X020583Y004704D01*
X020583Y004701D02*
X020702Y004701D01*
X020699Y004704D02*
X020697Y004708D01*
X020583Y004708D01*
X020583Y004712D02*
X020695Y004712D01*
X020695Y004711D02*
X020694Y004716D01*
X020583Y004716D01*
X020583Y004720D02*
X020694Y004720D01*
X020694Y004725D01*
X020694Y004782D01*
X020694Y004787D01*
X020583Y004787D01*
X020583Y004783D02*
X020694Y004783D01*
X020694Y004779D02*
X020583Y004779D01*
X020583Y004775D02*
X020694Y004775D01*
X020694Y004771D02*
X020583Y004771D01*
X020583Y004767D02*
X020694Y004767D01*
X020694Y004764D02*
X020583Y004764D01*
X020583Y004760D02*
X020694Y004760D01*
X020694Y004756D02*
X020583Y004756D01*
X020583Y004752D02*
X020694Y004752D01*
X020694Y004748D02*
X020583Y004748D01*
X020583Y004744D02*
X020694Y004744D01*
X020694Y004740D02*
X020583Y004740D01*
X020583Y004736D02*
X020694Y004736D01*
X020694Y004732D02*
X020583Y004732D01*
X020583Y004728D02*
X020694Y004728D01*
X020694Y004724D02*
X020583Y004724D01*
X020583Y004697D02*
X020707Y004697D01*
X020715Y004692D02*
X020719Y004690D01*
X020724Y004689D01*
X020697Y004708D02*
X020695Y004711D01*
X020694Y004716D02*
X020694Y004720D01*
X020694Y004787D02*
X020694Y004791D01*
X020583Y004791D01*
X020583Y004795D02*
X020695Y004795D01*
X020697Y004799D01*
X020583Y004799D01*
X020583Y004803D02*
X020699Y004803D01*
X020701Y004806D01*
X020704Y004809D01*
X020707Y004812D01*
X020712Y004815D02*
X020583Y004815D01*
X020583Y004819D02*
X020722Y004819D01*
X020702Y004807D02*
X020583Y004807D01*
X020583Y004811D02*
X020583Y004695D01*
X020583Y004684D01*
X020586Y004665D02*
X020856Y004665D01*
X021139Y004665D01*
X021139Y004661D02*
X020856Y004661D01*
X020588Y004661D01*
X020589Y004657D02*
X020856Y004657D01*
X021139Y004657D01*
X021139Y004653D02*
X020856Y004653D01*
X020591Y004653D01*
X020591Y004649D02*
X020856Y004649D01*
X021139Y004649D01*
X021139Y004638D02*
X020856Y004638D01*
X020599Y004638D01*
X020598Y004639D02*
X020593Y004645D01*
X020602Y004634D02*
X020856Y004634D01*
X021139Y004634D01*
X021139Y004630D02*
X020856Y004630D01*
X020606Y004630D01*
X020610Y004626D02*
X020856Y004626D01*
X021139Y004626D01*
X021139Y004622D02*
X020856Y004622D01*
X020615Y004622D01*
X020621Y004618D02*
X020856Y004618D01*
X021139Y004618D01*
X021139Y004614D02*
X020856Y004614D01*
X020629Y004614D01*
X020638Y004610D02*
X020856Y004610D01*
X021139Y004610D01*
X021139Y004606D02*
X020856Y004606D01*
X020652Y004606D01*
X020677Y004602D02*
X020856Y004602D01*
X021139Y004602D01*
X020851Y004551D02*
X020701Y004551D01*
X020695Y004547D02*
X020847Y004547D01*
X020842Y004543D02*
X020690Y004543D01*
X020685Y004539D02*
X020839Y004539D01*
X020835Y004535D02*
X020680Y004535D01*
X020675Y004531D02*
X020830Y004531D01*
X020826Y004527D02*
X020670Y004527D01*
X020665Y004523D02*
X020821Y004523D01*
X020817Y004519D02*
X020660Y004519D01*
X020655Y004515D02*
X020812Y004515D01*
X020808Y004512D02*
X020651Y004512D01*
X020646Y004508D02*
X020804Y004508D01*
X020799Y004504D02*
X020641Y004504D01*
X020636Y004500D02*
X020795Y004500D01*
X020790Y004496D02*
X020631Y004496D01*
X020626Y004492D02*
X020786Y004492D01*
X020781Y004488D02*
X020621Y004488D01*
X020616Y004484D02*
X020778Y004484D01*
X020774Y004480D02*
X020611Y004480D01*
X020606Y004476D02*
X020769Y004476D01*
X020765Y004472D02*
X020601Y004472D01*
X020596Y004468D02*
X020760Y004468D01*
X020756Y004464D02*
X020591Y004464D01*
X020587Y004460D02*
X020751Y004460D01*
X020747Y004456D02*
X020582Y004456D01*
X020577Y004452D02*
X020743Y004452D01*
X020738Y004449D02*
X020572Y004449D01*
X020567Y004445D02*
X020734Y004445D01*
X020729Y004441D02*
X020562Y004441D01*
X020557Y004437D02*
X020725Y004437D01*
X020720Y004433D02*
X020552Y004433D01*
X020547Y004429D02*
X020716Y004429D01*
X020713Y004425D02*
X020542Y004425D01*
X020537Y004421D02*
X020708Y004421D01*
X020704Y004417D02*
X020532Y004417D01*
X020386Y004416D02*
X020386Y004906D01*
X019859Y004906D01*
X019859Y004819D01*
X020265Y004819D01*
X020386Y004819D01*
X020386Y004823D02*
X019859Y004823D01*
X019859Y004826D02*
X020386Y004826D01*
X020386Y004830D02*
X019859Y004830D01*
X019859Y004834D02*
X020386Y004834D01*
X020386Y004838D02*
X019859Y004838D01*
X019859Y004842D02*
X020386Y004842D01*
X020386Y004845D02*
X019859Y004845D01*
X019859Y004849D02*
X020386Y004849D01*
X020386Y004853D02*
X019859Y004853D01*
X019859Y004857D02*
X020386Y004857D01*
X020386Y004861D02*
X019859Y004861D01*
X019859Y004865D02*
X020386Y004865D01*
X020386Y004869D02*
X019859Y004869D01*
X019859Y004873D02*
X020386Y004873D01*
X020386Y004877D02*
X019859Y004877D01*
X019859Y004881D02*
X020386Y004881D01*
X020386Y004885D02*
X019859Y004885D01*
X019859Y004889D02*
X020386Y004889D01*
X020386Y004892D02*
X019859Y004892D01*
X019859Y004896D02*
X020386Y004896D01*
X020386Y004900D02*
X019859Y004900D01*
X019859Y004904D02*
X020386Y004904D01*
X020386Y004815D02*
X020265Y004815D01*
X020265Y004819D02*
X020265Y004713D01*
X020029Y004713D01*
X020029Y004628D01*
X020265Y004628D01*
X020265Y004508D01*
X019853Y004508D01*
X020386Y004508D01*
X020386Y004512D02*
X020265Y004512D01*
X020265Y004515D02*
X020386Y004515D01*
X020386Y004519D02*
X020265Y004519D01*
X020265Y004523D02*
X020386Y004523D01*
X020386Y004527D02*
X020265Y004527D01*
X020265Y004531D02*
X020386Y004531D01*
X020386Y004535D02*
X020265Y004535D01*
X020265Y004539D02*
X020386Y004539D01*
X020386Y004543D02*
X020265Y004543D01*
X020265Y004547D02*
X020386Y004547D01*
X020386Y004551D02*
X020265Y004551D01*
X020265Y004555D02*
X020386Y004555D01*
X020386Y004559D02*
X020265Y004559D01*
X020265Y004563D02*
X020386Y004563D01*
X020386Y004567D02*
X020265Y004567D01*
X020265Y004571D02*
X020386Y004571D01*
X020386Y004575D02*
X020265Y004575D01*
X020265Y004578D02*
X020386Y004578D01*
X020386Y004582D02*
X020265Y004582D01*
X020265Y004586D02*
X020386Y004586D01*
X020386Y004590D02*
X020265Y004590D01*
X020265Y004594D02*
X020386Y004594D01*
X020386Y004598D02*
X020265Y004598D01*
X020265Y004602D02*
X020386Y004602D01*
X020386Y004606D02*
X020265Y004606D01*
X020265Y004610D02*
X020386Y004610D01*
X020386Y004614D02*
X020265Y004614D01*
X020265Y004618D02*
X020386Y004618D01*
X020386Y004622D02*
X020265Y004622D01*
X020265Y004626D02*
X020386Y004626D01*
X020386Y004630D02*
X020029Y004630D01*
X020029Y004634D02*
X020386Y004634D01*
X020386Y004638D02*
X020029Y004638D01*
X020029Y004641D02*
X020386Y004641D01*
X020386Y004645D02*
X020029Y004645D01*
X020029Y004649D02*
X020386Y004649D01*
X020386Y004653D02*
X020029Y004653D01*
X020029Y004657D02*
X020386Y004657D01*
X020386Y004661D02*
X020029Y004661D01*
X020029Y004665D02*
X020386Y004665D01*
X020386Y004669D02*
X020029Y004669D01*
X020029Y004673D02*
X020386Y004673D01*
X020386Y004677D02*
X020029Y004677D01*
X020029Y004681D02*
X020386Y004681D01*
X020386Y004685D02*
X020029Y004685D01*
X020029Y004689D02*
X020386Y004689D01*
X020386Y004693D02*
X020029Y004693D01*
X020029Y004697D02*
X020386Y004697D01*
X020386Y004701D02*
X020029Y004701D01*
X020029Y004704D02*
X020386Y004704D01*
X020386Y004708D02*
X020029Y004708D01*
X020029Y004712D02*
X020386Y004712D01*
X020386Y004716D02*
X020265Y004716D01*
X020265Y004720D02*
X020386Y004720D01*
X020386Y004724D02*
X020265Y004724D01*
X020265Y004728D02*
X020386Y004728D01*
X020386Y004732D02*
X020265Y004732D01*
X020265Y004736D02*
X020386Y004736D01*
X020386Y004740D02*
X020265Y004740D01*
X020265Y004744D02*
X020386Y004744D01*
X020386Y004748D02*
X020265Y004748D01*
X020265Y004752D02*
X020386Y004752D01*
X020386Y004756D02*
X020265Y004756D01*
X020265Y004760D02*
X020386Y004760D01*
X020386Y004764D02*
X020265Y004764D01*
X020265Y004767D02*
X020386Y004767D01*
X020386Y004771D02*
X020265Y004771D01*
X020265Y004775D02*
X020386Y004775D01*
X020386Y004779D02*
X020265Y004779D01*
X020265Y004783D02*
X020386Y004783D01*
X020386Y004787D02*
X020265Y004787D01*
X020265Y004791D02*
X020386Y004791D01*
X020386Y004795D02*
X020265Y004795D01*
X020265Y004799D02*
X020386Y004799D01*
X020386Y004803D02*
X020265Y004803D01*
X020265Y004807D02*
X020386Y004807D01*
X020386Y004811D02*
X020265Y004811D01*
X020386Y004504D02*
X019853Y004504D01*
X019853Y004508D02*
X019853Y004416D01*
X020386Y004416D01*
X020386Y004417D02*
X019853Y004417D01*
X019853Y004421D02*
X020386Y004421D01*
X020386Y004425D02*
X019853Y004425D01*
X019853Y004429D02*
X020386Y004429D01*
X020386Y004433D02*
X019853Y004433D01*
X019853Y004437D02*
X020386Y004437D01*
X020386Y004441D02*
X019853Y004441D01*
X019853Y004445D02*
X020386Y004445D01*
X020386Y004449D02*
X019853Y004449D01*
X019853Y004452D02*
X020386Y004452D01*
X020386Y004456D02*
X019853Y004456D01*
X019853Y004460D02*
X020386Y004460D01*
X020386Y004464D02*
X019853Y004464D01*
X019853Y004468D02*
X020386Y004468D01*
X020386Y004472D02*
X019853Y004472D01*
X019853Y004476D02*
X020386Y004476D01*
X020386Y004480D02*
X019853Y004480D01*
X019853Y004484D02*
X020386Y004484D01*
X020386Y004488D02*
X019853Y004488D01*
X019853Y004492D02*
X020386Y004492D01*
X020386Y004496D02*
X019853Y004496D01*
X019853Y004500D02*
X020386Y004500D01*
X020694Y004791D02*
X020695Y004795D01*
X020697Y004799D02*
X020699Y004803D01*
X021447Y004791D02*
X021449Y004795D01*
X021450Y004799D02*
X021452Y004803D01*
X022109Y004504D02*
X022687Y004504D01*
X022687Y004500D02*
X022109Y004500D01*
X022110Y004496D02*
X022686Y004496D01*
X022685Y004492D02*
X022110Y004492D01*
X022111Y004488D02*
X022685Y004488D01*
X022684Y004484D02*
X022112Y004484D01*
X022113Y004480D02*
X022683Y004480D01*
X022682Y004476D02*
X022114Y004476D01*
X022115Y004472D02*
X022681Y004472D01*
X022680Y004469D02*
X022678Y004464D01*
X019756Y004416D02*
X019465Y004906D01*
X019411Y004906D01*
X019411Y004813D01*
X019414Y004817D01*
X019525Y004613D01*
X019411Y004613D01*
X019411Y004524D01*
X019575Y004524D01*
X019637Y004416D01*
X019756Y004416D01*
X019755Y004417D02*
X019636Y004417D01*
X019634Y004421D02*
X019753Y004421D01*
X019750Y004425D02*
X019632Y004425D01*
X019629Y004429D02*
X019748Y004429D01*
X019745Y004433D02*
X019627Y004433D01*
X019625Y004437D02*
X019743Y004437D01*
X019741Y004441D02*
X019622Y004441D01*
X019620Y004445D02*
X019738Y004445D01*
X019736Y004449D02*
X019618Y004449D01*
X019615Y004452D02*
X019734Y004452D01*
X019731Y004456D02*
X019613Y004456D01*
X019611Y004460D02*
X019729Y004460D01*
X019726Y004464D02*
X019609Y004464D01*
X019606Y004468D02*
X019724Y004468D01*
X019722Y004472D02*
X019604Y004472D01*
X019602Y004476D02*
X019719Y004476D01*
X019717Y004480D02*
X019599Y004480D01*
X019597Y004484D02*
X019716Y004484D01*
X019713Y004488D02*
X019595Y004488D01*
X019593Y004492D02*
X019711Y004492D01*
X019709Y004496D02*
X019591Y004496D01*
X019589Y004500D02*
X019706Y004500D01*
X019704Y004504D02*
X019587Y004504D01*
X019584Y004508D02*
X019701Y004508D01*
X019699Y004512D02*
X019582Y004512D01*
X019580Y004515D02*
X019697Y004515D01*
X019694Y004519D02*
X019577Y004519D01*
X019575Y004523D02*
X019692Y004523D01*
X019690Y004527D02*
X019411Y004527D01*
X019122Y004527D01*
X019120Y004523D02*
X019250Y004523D01*
X019250Y004524D02*
X019411Y004524D01*
X019411Y004613D01*
X019299Y004613D01*
X019411Y004813D01*
X019411Y004906D01*
X019350Y004906D01*
X019055Y004416D01*
X019189Y004416D01*
X019250Y004524D01*
X019248Y004519D02*
X019117Y004519D01*
X019115Y004515D02*
X019245Y004515D01*
X019243Y004512D02*
X019113Y004512D01*
X019110Y004508D02*
X019241Y004508D01*
X019239Y004504D02*
X019108Y004504D01*
X019105Y004500D02*
X019236Y004500D01*
X019234Y004496D02*
X019103Y004496D01*
X019101Y004492D02*
X019232Y004492D01*
X019230Y004488D02*
X019098Y004488D01*
X019096Y004484D02*
X019227Y004484D01*
X019225Y004480D02*
X019093Y004480D01*
X019091Y004476D02*
X019223Y004476D01*
X019221Y004472D02*
X019090Y004472D01*
X019087Y004468D02*
X019218Y004468D01*
X019216Y004464D02*
X019085Y004464D01*
X019082Y004460D02*
X019215Y004460D01*
X019213Y004456D02*
X019080Y004456D01*
X019078Y004452D02*
X019210Y004452D01*
X019208Y004449D02*
X019075Y004449D01*
X019073Y004445D02*
X019206Y004445D01*
X019204Y004441D02*
X019070Y004441D01*
X019068Y004437D02*
X019201Y004437D01*
X019199Y004433D02*
X019066Y004433D01*
X019063Y004429D02*
X019197Y004429D01*
X019195Y004425D02*
X019061Y004425D01*
X019058Y004421D02*
X019192Y004421D01*
X019190Y004417D02*
X019056Y004417D01*
X018933Y004417D02*
X018428Y004417D01*
X018428Y004416D02*
X018933Y004416D01*
X018933Y004906D01*
X018812Y004906D01*
X018812Y004508D01*
X018428Y004508D01*
X018933Y004508D01*
X018933Y004512D02*
X018812Y004512D01*
X018812Y004515D02*
X018933Y004515D01*
X018933Y004519D02*
X018812Y004519D01*
X018812Y004523D02*
X018933Y004523D01*
X018933Y004527D02*
X018812Y004527D01*
X018812Y004531D02*
X018933Y004531D01*
X018933Y004535D02*
X018812Y004535D01*
X018812Y004539D02*
X018933Y004539D01*
X018933Y004543D02*
X018812Y004543D01*
X018812Y004547D02*
X018933Y004547D01*
X018933Y004551D02*
X018812Y004551D01*
X018812Y004555D02*
X018933Y004555D01*
X018933Y004559D02*
X018812Y004559D01*
X018812Y004563D02*
X018933Y004563D01*
X018933Y004567D02*
X018812Y004567D01*
X018812Y004571D02*
X018933Y004571D01*
X018933Y004575D02*
X018812Y004575D01*
X018812Y004578D02*
X018933Y004578D01*
X018933Y004582D02*
X018812Y004582D01*
X018812Y004586D02*
X018933Y004586D01*
X018933Y004590D02*
X018812Y004590D01*
X018812Y004594D02*
X018933Y004594D01*
X018933Y004598D02*
X018812Y004598D01*
X018812Y004602D02*
X018933Y004602D01*
X018933Y004606D02*
X018812Y004606D01*
X018812Y004610D02*
X018933Y004610D01*
X018933Y004614D02*
X018812Y004614D01*
X018812Y004618D02*
X018933Y004618D01*
X018933Y004622D02*
X018812Y004622D01*
X018812Y004626D02*
X018933Y004626D01*
X018933Y004630D02*
X018812Y004630D01*
X018812Y004634D02*
X018933Y004634D01*
X018933Y004638D02*
X018812Y004638D01*
X018812Y004641D02*
X018933Y004641D01*
X018933Y004645D02*
X018812Y004645D01*
X018812Y004649D02*
X018933Y004649D01*
X018933Y004653D02*
X018812Y004653D01*
X018812Y004657D02*
X018933Y004657D01*
X018933Y004661D02*
X018812Y004661D01*
X018812Y004665D02*
X018933Y004665D01*
X018933Y004669D02*
X018812Y004669D01*
X018812Y004673D02*
X018933Y004673D01*
X018933Y004677D02*
X018812Y004677D01*
X018812Y004681D02*
X018933Y004681D01*
X018933Y004685D02*
X018812Y004685D01*
X018812Y004689D02*
X018933Y004689D01*
X018933Y004693D02*
X018812Y004693D01*
X018812Y004697D02*
X018933Y004697D01*
X018933Y004701D02*
X018812Y004701D01*
X018812Y004704D02*
X018933Y004704D01*
X018933Y004708D02*
X018812Y004708D01*
X018812Y004712D02*
X018933Y004712D01*
X018933Y004716D02*
X018812Y004716D01*
X018812Y004720D02*
X018933Y004720D01*
X018933Y004724D02*
X018812Y004724D01*
X018812Y004728D02*
X018933Y004728D01*
X018933Y004732D02*
X018812Y004732D01*
X018812Y004736D02*
X018933Y004736D01*
X018933Y004740D02*
X018812Y004740D01*
X018812Y004744D02*
X018933Y004744D01*
X018933Y004748D02*
X018812Y004748D01*
X018812Y004752D02*
X018933Y004752D01*
X018933Y004756D02*
X018812Y004756D01*
X018812Y004760D02*
X018933Y004760D01*
X018933Y004764D02*
X018812Y004764D01*
X018812Y004767D02*
X018933Y004767D01*
X018933Y004771D02*
X018812Y004771D01*
X018812Y004775D02*
X018933Y004775D01*
X018933Y004779D02*
X018812Y004779D01*
X018812Y004783D02*
X018933Y004783D01*
X018933Y004787D02*
X018812Y004787D01*
X018812Y004791D02*
X018933Y004791D01*
X018933Y004795D02*
X018812Y004795D01*
X018812Y004799D02*
X018933Y004799D01*
X018933Y004803D02*
X018812Y004803D01*
X018812Y004807D02*
X018933Y004807D01*
X018933Y004811D02*
X018812Y004811D01*
X018812Y004815D02*
X018933Y004815D01*
X018933Y004819D02*
X018812Y004819D01*
X018812Y004823D02*
X018933Y004823D01*
X018933Y004826D02*
X018812Y004826D01*
X018812Y004830D02*
X018933Y004830D01*
X018933Y004834D02*
X018812Y004834D01*
X018812Y004838D02*
X018933Y004838D01*
X018933Y004842D02*
X018812Y004842D01*
X018812Y004845D02*
X018933Y004845D01*
X018933Y004849D02*
X018812Y004849D01*
X018812Y004853D02*
X018933Y004853D01*
X018933Y004857D02*
X018812Y004857D01*
X018812Y004861D02*
X018933Y004861D01*
X018933Y004865D02*
X018812Y004865D01*
X018812Y004869D02*
X018933Y004869D01*
X018933Y004873D02*
X018812Y004873D01*
X018812Y004877D02*
X018933Y004877D01*
X018933Y004881D02*
X018812Y004881D01*
X018812Y004885D02*
X018933Y004885D01*
X018933Y004889D02*
X018812Y004889D01*
X018812Y004892D02*
X018933Y004892D01*
X018933Y004896D02*
X018812Y004896D01*
X018812Y004900D02*
X018933Y004900D01*
X018933Y004904D02*
X018812Y004904D01*
X018933Y004504D02*
X018428Y004504D01*
X018428Y004508D02*
X018428Y004416D01*
X018428Y004421D02*
X018933Y004421D01*
X018933Y004425D02*
X018428Y004425D01*
X018428Y004429D02*
X018933Y004429D01*
X018933Y004433D02*
X018428Y004433D01*
X018428Y004437D02*
X018933Y004437D01*
X018933Y004441D02*
X018428Y004441D01*
X018428Y004445D02*
X018933Y004445D01*
X018933Y004449D02*
X018428Y004449D01*
X018428Y004452D02*
X018933Y004452D01*
X018933Y004456D02*
X018428Y004456D01*
X018428Y004460D02*
X018933Y004460D01*
X018933Y004464D02*
X018428Y004464D01*
X018428Y004468D02*
X018933Y004468D01*
X018933Y004472D02*
X018428Y004472D01*
X018428Y004476D02*
X018933Y004476D01*
X018933Y004480D02*
X018428Y004480D01*
X018428Y004484D02*
X018933Y004484D01*
X018933Y004488D02*
X018428Y004488D01*
X018428Y004492D02*
X018933Y004492D01*
X018933Y004496D02*
X018428Y004496D01*
X018428Y004500D02*
X018933Y004500D01*
X019125Y004531D02*
X019411Y004531D01*
X019687Y004531D01*
X019685Y004535D02*
X019411Y004535D01*
X019127Y004535D01*
X019129Y004539D02*
X019411Y004539D01*
X019682Y004539D01*
X019680Y004543D02*
X019411Y004543D01*
X019132Y004543D01*
X019134Y004547D02*
X019411Y004547D01*
X019678Y004547D01*
X019675Y004551D02*
X019411Y004551D01*
X019137Y004551D01*
X019139Y004555D02*
X019411Y004555D01*
X019673Y004555D01*
X019671Y004559D02*
X019411Y004559D01*
X019141Y004559D01*
X019144Y004563D02*
X019411Y004563D01*
X019668Y004563D01*
X019666Y004567D02*
X019411Y004567D01*
X019146Y004567D01*
X019149Y004571D02*
X019411Y004571D01*
X019663Y004571D01*
X019661Y004575D02*
X019411Y004575D01*
X019151Y004575D01*
X019154Y004578D02*
X019411Y004578D01*
X019659Y004578D01*
X019656Y004582D02*
X019411Y004582D01*
X019155Y004582D01*
X019157Y004586D02*
X019411Y004586D01*
X019654Y004586D01*
X019653Y004590D02*
X019411Y004590D01*
X019160Y004590D01*
X019162Y004594D02*
X019411Y004594D01*
X019650Y004594D01*
X019648Y004598D02*
X019411Y004598D01*
X019165Y004598D01*
X019167Y004602D02*
X019411Y004602D01*
X019645Y004602D01*
X019643Y004606D02*
X019411Y004606D01*
X019169Y004606D01*
X019172Y004610D02*
X019411Y004610D01*
X019641Y004610D01*
X019638Y004614D02*
X019525Y004614D01*
X019522Y004618D02*
X019636Y004618D01*
X019634Y004622D02*
X019520Y004622D01*
X019518Y004626D02*
X019631Y004626D01*
X019629Y004630D02*
X019516Y004630D01*
X019514Y004634D02*
X019626Y004634D01*
X019624Y004638D02*
X019512Y004638D01*
X019509Y004641D02*
X019622Y004641D01*
X019619Y004645D02*
X019507Y004645D01*
X019505Y004649D02*
X019617Y004649D01*
X019615Y004653D02*
X019503Y004653D01*
X019501Y004657D02*
X019612Y004657D01*
X019610Y004661D02*
X019499Y004661D01*
X019497Y004665D02*
X019607Y004665D01*
X019605Y004669D02*
X019494Y004669D01*
X019492Y004673D02*
X019603Y004673D01*
X019600Y004677D02*
X019490Y004677D01*
X019488Y004681D02*
X019598Y004681D01*
X019596Y004685D02*
X019486Y004685D01*
X019484Y004689D02*
X019593Y004689D01*
X019591Y004693D02*
X019481Y004693D01*
X019479Y004697D02*
X019589Y004697D01*
X019587Y004701D02*
X019477Y004701D01*
X019475Y004704D02*
X019585Y004704D01*
X019582Y004708D02*
X019473Y004708D01*
X019471Y004712D02*
X019580Y004712D01*
X019578Y004716D02*
X019468Y004716D01*
X019466Y004720D02*
X019575Y004720D01*
X019573Y004724D02*
X019465Y004724D01*
X019463Y004728D02*
X019570Y004728D01*
X019568Y004732D02*
X019461Y004732D01*
X019459Y004736D02*
X019566Y004736D01*
X019563Y004740D02*
X019457Y004740D01*
X019454Y004744D02*
X019561Y004744D01*
X019559Y004748D02*
X019452Y004748D01*
X019450Y004752D02*
X019556Y004752D01*
X019554Y004756D02*
X019448Y004756D01*
X019446Y004760D02*
X019552Y004760D01*
X019549Y004764D02*
X019444Y004764D01*
X019441Y004767D02*
X019547Y004767D01*
X019544Y004771D02*
X019439Y004771D01*
X019437Y004775D02*
X019542Y004775D01*
X019540Y004779D02*
X019435Y004779D01*
X019433Y004783D02*
X019537Y004783D01*
X019535Y004787D02*
X019431Y004787D01*
X019429Y004791D02*
X019533Y004791D01*
X019530Y004795D02*
X019426Y004795D01*
X019424Y004799D02*
X019529Y004799D01*
X019526Y004803D02*
X019422Y004803D01*
X019420Y004807D02*
X019524Y004807D01*
X019522Y004811D02*
X019418Y004811D01*
X019416Y004815D02*
X019519Y004815D01*
X019517Y004819D02*
X019411Y004819D01*
X019297Y004819D01*
X019295Y004815D02*
X019411Y004815D01*
X019412Y004815D01*
X019409Y004811D02*
X019292Y004811D01*
X019290Y004807D02*
X019407Y004807D01*
X019405Y004803D02*
X019288Y004803D01*
X019285Y004799D02*
X019404Y004799D01*
X019401Y004795D02*
X019283Y004795D01*
X019280Y004791D02*
X019399Y004791D01*
X019397Y004787D02*
X019279Y004787D01*
X019277Y004783D02*
X019395Y004783D01*
X019393Y004779D02*
X019274Y004779D01*
X019272Y004775D02*
X019390Y004775D01*
X019388Y004771D02*
X019269Y004771D01*
X019267Y004767D02*
X019386Y004767D01*
X019384Y004764D02*
X019265Y004764D01*
X019262Y004760D02*
X019381Y004760D01*
X019379Y004756D02*
X019260Y004756D01*
X019257Y004752D02*
X019377Y004752D01*
X019375Y004748D02*
X019255Y004748D01*
X019253Y004744D02*
X019372Y004744D01*
X019370Y004740D02*
X019250Y004740D01*
X019248Y004736D02*
X019368Y004736D01*
X019366Y004732D02*
X019245Y004732D01*
X019243Y004728D02*
X019363Y004728D01*
X019361Y004724D02*
X019241Y004724D01*
X019238Y004720D02*
X019359Y004720D01*
X019357Y004716D02*
X019236Y004716D01*
X019233Y004712D02*
X019354Y004712D01*
X019352Y004708D02*
X019231Y004708D01*
X019229Y004704D02*
X019350Y004704D01*
X019348Y004701D02*
X019226Y004701D01*
X019224Y004697D02*
X019346Y004697D01*
X019343Y004693D02*
X019221Y004693D01*
X019219Y004689D02*
X019341Y004689D01*
X019340Y004685D02*
X019216Y004685D01*
X019215Y004681D02*
X019338Y004681D01*
X019335Y004677D02*
X019213Y004677D01*
X019210Y004673D02*
X019333Y004673D01*
X019331Y004669D02*
X019208Y004669D01*
X019205Y004665D02*
X019329Y004665D01*
X019326Y004661D02*
X019203Y004661D01*
X019201Y004657D02*
X019324Y004657D01*
X019322Y004653D02*
X019198Y004653D01*
X019196Y004649D02*
X019320Y004649D01*
X019317Y004645D02*
X019193Y004645D01*
X019191Y004641D02*
X019315Y004641D01*
X019313Y004638D02*
X019189Y004638D01*
X019186Y004634D02*
X019311Y004634D01*
X019309Y004630D02*
X019184Y004630D01*
X019181Y004626D02*
X019306Y004626D01*
X019304Y004622D02*
X019179Y004622D01*
X019177Y004618D02*
X019302Y004618D01*
X019300Y004614D02*
X019174Y004614D01*
X019300Y004823D02*
X019411Y004823D01*
X019515Y004823D01*
X019512Y004826D02*
X019411Y004826D01*
X019302Y004826D01*
X019304Y004830D02*
X019411Y004830D01*
X019510Y004830D01*
X019507Y004834D02*
X019411Y004834D01*
X019307Y004834D01*
X019309Y004838D02*
X019411Y004838D01*
X019505Y004838D01*
X019503Y004842D02*
X019411Y004842D01*
X019312Y004842D01*
X019314Y004845D02*
X019411Y004845D01*
X019500Y004845D01*
X019498Y004849D02*
X019411Y004849D01*
X019317Y004849D01*
X019319Y004853D02*
X019411Y004853D01*
X019496Y004853D01*
X019493Y004857D02*
X019411Y004857D01*
X019321Y004857D01*
X019324Y004861D02*
X019411Y004861D01*
X019491Y004861D01*
X019488Y004865D02*
X019411Y004865D01*
X019326Y004865D01*
X019329Y004869D02*
X019411Y004869D01*
X019486Y004869D01*
X019484Y004873D02*
X019411Y004873D01*
X019331Y004873D01*
X019333Y004877D02*
X019411Y004877D01*
X019481Y004877D01*
X019479Y004881D02*
X019411Y004881D01*
X019336Y004881D01*
X019338Y004885D02*
X019411Y004885D01*
X019477Y004885D01*
X019474Y004889D02*
X019411Y004889D01*
X019341Y004889D01*
X019342Y004892D02*
X019411Y004892D01*
X019472Y004892D01*
X019469Y004896D02*
X019411Y004896D01*
X019344Y004896D01*
X019347Y004900D02*
X019411Y004900D01*
X019467Y004900D01*
X019466Y004904D02*
X019411Y004904D01*
X019349Y004904D01*
X018294Y004906D02*
X018294Y004416D01*
X018174Y004416D01*
X018174Y004906D01*
X018294Y004906D01*
X018294Y004904D02*
X018174Y004904D01*
X018174Y004900D02*
X018294Y004900D01*
X018294Y004896D02*
X018174Y004896D01*
X018174Y004892D02*
X018294Y004892D01*
X018294Y004889D02*
X018174Y004889D01*
X018174Y004885D02*
X018294Y004885D01*
X018294Y004881D02*
X018174Y004881D01*
X018174Y004877D02*
X018294Y004877D01*
X018294Y004873D02*
X018174Y004873D01*
X018174Y004869D02*
X018294Y004869D01*
X018294Y004865D02*
X018174Y004865D01*
X018174Y004861D02*
X018294Y004861D01*
X018294Y004857D02*
X018174Y004857D01*
X018174Y004853D02*
X018294Y004853D01*
X018294Y004849D02*
X018174Y004849D01*
X018174Y004845D02*
X018294Y004845D01*
X018294Y004842D02*
X018174Y004842D01*
X018174Y004838D02*
X018294Y004838D01*
X018294Y004834D02*
X018174Y004834D01*
X018174Y004830D02*
X018294Y004830D01*
X018294Y004826D02*
X018174Y004826D01*
X018174Y004823D02*
X018294Y004823D01*
X018294Y004819D02*
X018174Y004819D01*
X018174Y004815D02*
X018294Y004815D01*
X018294Y004811D02*
X018174Y004811D01*
X018174Y004807D02*
X018294Y004807D01*
X018294Y004803D02*
X018174Y004803D01*
X018174Y004799D02*
X018294Y004799D01*
X018294Y004795D02*
X018174Y004795D01*
X018174Y004791D02*
X018294Y004791D01*
X018294Y004787D02*
X018174Y004787D01*
X018174Y004783D02*
X018294Y004783D01*
X018294Y004779D02*
X018174Y004779D01*
X018174Y004775D02*
X018294Y004775D01*
X018294Y004771D02*
X018174Y004771D01*
X018174Y004767D02*
X018294Y004767D01*
X018294Y004764D02*
X018174Y004764D01*
X018174Y004760D02*
X018294Y004760D01*
X018294Y004756D02*
X018174Y004756D01*
X018174Y004752D02*
X018294Y004752D01*
X018294Y004748D02*
X018174Y004748D01*
X018174Y004744D02*
X018294Y004744D01*
X018294Y004740D02*
X018174Y004740D01*
X018174Y004736D02*
X018294Y004736D01*
X018294Y004732D02*
X018174Y004732D01*
X018174Y004728D02*
X018294Y004728D01*
X018294Y004724D02*
X018174Y004724D01*
X018174Y004720D02*
X018294Y004720D01*
X018294Y004716D02*
X018174Y004716D01*
X018174Y004712D02*
X018294Y004712D01*
X018294Y004708D02*
X018174Y004708D01*
X018174Y004704D02*
X018294Y004704D01*
X018294Y004701D02*
X018174Y004701D01*
X018174Y004697D02*
X018294Y004697D01*
X018294Y004693D02*
X018174Y004693D01*
X018174Y004689D02*
X018294Y004689D01*
X018294Y004685D02*
X018174Y004685D01*
X018174Y004681D02*
X018294Y004681D01*
X018294Y004677D02*
X018174Y004677D01*
X018174Y004673D02*
X018294Y004673D01*
X018294Y004669D02*
X018174Y004669D01*
X018174Y004665D02*
X018294Y004665D01*
X018294Y004661D02*
X018174Y004661D01*
X018174Y004657D02*
X018294Y004657D01*
X018294Y004653D02*
X018174Y004653D01*
X018174Y004649D02*
X018294Y004649D01*
X018294Y004645D02*
X018174Y004645D01*
X018174Y004641D02*
X018294Y004641D01*
X018294Y004638D02*
X018174Y004638D01*
X018174Y004634D02*
X018294Y004634D01*
X018294Y004630D02*
X018174Y004630D01*
X018174Y004626D02*
X018294Y004626D01*
X018294Y004622D02*
X018174Y004622D01*
X018174Y004618D02*
X018294Y004618D01*
X018294Y004614D02*
X018174Y004614D01*
X018174Y004610D02*
X018294Y004610D01*
X018294Y004606D02*
X018174Y004606D01*
X018174Y004602D02*
X018294Y004602D01*
X018294Y004598D02*
X018174Y004598D01*
X018174Y004594D02*
X018294Y004594D01*
X018294Y004590D02*
X018174Y004590D01*
X018174Y004586D02*
X018294Y004586D01*
X018294Y004582D02*
X018174Y004582D01*
X018174Y004578D02*
X018294Y004578D01*
X018294Y004575D02*
X018174Y004575D01*
X018174Y004571D02*
X018294Y004571D01*
X018294Y004567D02*
X018174Y004567D01*
X018174Y004563D02*
X018294Y004563D01*
X018294Y004559D02*
X018174Y004559D01*
X018174Y004555D02*
X018294Y004555D01*
X018294Y004551D02*
X018174Y004551D01*
X018174Y004547D02*
X018294Y004547D01*
X018294Y004543D02*
X018174Y004543D01*
X018174Y004539D02*
X018294Y004539D01*
X018294Y004535D02*
X018174Y004535D01*
X018174Y004531D02*
X018294Y004531D01*
X018294Y004527D02*
X018174Y004527D01*
X018174Y004523D02*
X018294Y004523D01*
X018294Y004519D02*
X018174Y004519D01*
X018174Y004515D02*
X018294Y004515D01*
X018294Y004512D02*
X018174Y004512D01*
X018174Y004508D02*
X018294Y004508D01*
X018294Y004504D02*
X018174Y004504D01*
X018174Y004500D02*
X018294Y004500D01*
X018294Y004496D02*
X018174Y004496D01*
X018174Y004492D02*
X018294Y004492D01*
X018294Y004488D02*
X018174Y004488D01*
X018174Y004484D02*
X018294Y004484D01*
X018294Y004480D02*
X018174Y004480D01*
X018174Y004476D02*
X018294Y004476D01*
X018294Y004472D02*
X018174Y004472D01*
X018174Y004468D02*
X018294Y004468D01*
X018294Y004464D02*
X018174Y004464D01*
X018174Y004460D02*
X018294Y004460D01*
X018294Y004456D02*
X018174Y004456D01*
X018174Y004452D02*
X018294Y004452D01*
X018294Y004449D02*
X018174Y004449D01*
X018174Y004445D02*
X018294Y004445D01*
X018294Y004441D02*
X018174Y004441D01*
X018174Y004437D02*
X018294Y004437D01*
X018294Y004433D02*
X018174Y004433D01*
X018174Y004429D02*
X018294Y004429D01*
X018294Y004425D02*
X018174Y004425D01*
X018174Y004421D02*
X018294Y004421D01*
X018294Y004417D02*
X018174Y004417D01*
X017784Y004416D02*
X017784Y004817D01*
X018021Y004817D01*
X018021Y004906D01*
X017427Y004906D01*
X017427Y004817D01*
X017664Y004817D01*
X017664Y004416D01*
X017784Y004416D01*
X017784Y004417D02*
X017664Y004417D01*
X017664Y004421D02*
X017784Y004421D01*
X017784Y004425D02*
X017664Y004425D01*
X017664Y004429D02*
X017784Y004429D01*
X017784Y004433D02*
X017664Y004433D01*
X017664Y004437D02*
X017784Y004437D01*
X017784Y004441D02*
X017664Y004441D01*
X017664Y004445D02*
X017784Y004445D01*
X017784Y004449D02*
X017664Y004449D01*
X017664Y004452D02*
X017784Y004452D01*
X017784Y004456D02*
X017664Y004456D01*
X017664Y004460D02*
X017784Y004460D01*
X017784Y004464D02*
X017664Y004464D01*
X017664Y004468D02*
X017784Y004468D01*
X017784Y004472D02*
X017664Y004472D01*
X017664Y004476D02*
X017784Y004476D01*
X017784Y004480D02*
X017664Y004480D01*
X017664Y004484D02*
X017784Y004484D01*
X017784Y004488D02*
X017664Y004488D01*
X017664Y004492D02*
X017784Y004492D01*
X017784Y004496D02*
X017664Y004496D01*
X017664Y004500D02*
X017784Y004500D01*
X017784Y004504D02*
X017664Y004504D01*
X017664Y004508D02*
X017784Y004508D01*
X017784Y004512D02*
X017664Y004512D01*
X017664Y004515D02*
X017784Y004515D01*
X017784Y004519D02*
X017664Y004519D01*
X017664Y004523D02*
X017784Y004523D01*
X017784Y004527D02*
X017664Y004527D01*
X017664Y004531D02*
X017784Y004531D01*
X017784Y004535D02*
X017664Y004535D01*
X017664Y004539D02*
X017784Y004539D01*
X017784Y004543D02*
X017664Y004543D01*
X017664Y004547D02*
X017784Y004547D01*
X017784Y004551D02*
X017664Y004551D01*
X017664Y004555D02*
X017784Y004555D01*
X017784Y004559D02*
X017664Y004559D01*
X017664Y004563D02*
X017784Y004563D01*
X017784Y004567D02*
X017664Y004567D01*
X017664Y004571D02*
X017784Y004571D01*
X017784Y004575D02*
X017664Y004575D01*
X017664Y004578D02*
X017784Y004578D01*
X017784Y004582D02*
X017664Y004582D01*
X017664Y004586D02*
X017784Y004586D01*
X017784Y004590D02*
X017664Y004590D01*
X017664Y004594D02*
X017784Y004594D01*
X017784Y004598D02*
X017664Y004598D01*
X017664Y004602D02*
X017784Y004602D01*
X017784Y004606D02*
X017664Y004606D01*
X017664Y004610D02*
X017784Y004610D01*
X017784Y004614D02*
X017664Y004614D01*
X017664Y004618D02*
X017784Y004618D01*
X017784Y004622D02*
X017664Y004622D01*
X017664Y004626D02*
X017784Y004626D01*
X017784Y004630D02*
X017664Y004630D01*
X017664Y004634D02*
X017784Y004634D01*
X017784Y004638D02*
X017664Y004638D01*
X017664Y004641D02*
X017784Y004641D01*
X017784Y004645D02*
X017664Y004645D01*
X017664Y004649D02*
X017784Y004649D01*
X017784Y004653D02*
X017664Y004653D01*
X017664Y004657D02*
X017784Y004657D01*
X017784Y004661D02*
X017664Y004661D01*
X017664Y004665D02*
X017784Y004665D01*
X017784Y004669D02*
X017664Y004669D01*
X017664Y004673D02*
X017784Y004673D01*
X017784Y004677D02*
X017664Y004677D01*
X017664Y004681D02*
X017784Y004681D01*
X017784Y004685D02*
X017664Y004685D01*
X017664Y004689D02*
X017784Y004689D01*
X017784Y004693D02*
X017664Y004693D01*
X017664Y004697D02*
X017784Y004697D01*
X017784Y004701D02*
X017664Y004701D01*
X017664Y004704D02*
X017784Y004704D01*
X017784Y004708D02*
X017664Y004708D01*
X017664Y004712D02*
X017784Y004712D01*
X017784Y004716D02*
X017664Y004716D01*
X017664Y004720D02*
X017784Y004720D01*
X017784Y004724D02*
X017664Y004724D01*
X017664Y004728D02*
X017784Y004728D01*
X017784Y004732D02*
X017664Y004732D01*
X017664Y004736D02*
X017784Y004736D01*
X017784Y004740D02*
X017664Y004740D01*
X017664Y004744D02*
X017784Y004744D01*
X017784Y004748D02*
X017664Y004748D01*
X017664Y004752D02*
X017784Y004752D01*
X017784Y004756D02*
X017664Y004756D01*
X017664Y004760D02*
X017784Y004760D01*
X017784Y004764D02*
X017664Y004764D01*
X017664Y004767D02*
X017784Y004767D01*
X017784Y004771D02*
X017664Y004771D01*
X017664Y004775D02*
X017784Y004775D01*
X017784Y004779D02*
X017664Y004779D01*
X017664Y004783D02*
X017784Y004783D01*
X017784Y004787D02*
X017664Y004787D01*
X017664Y004791D02*
X017784Y004791D01*
X017784Y004795D02*
X017664Y004795D01*
X017664Y004799D02*
X017784Y004799D01*
X017784Y004803D02*
X017664Y004803D01*
X017664Y004807D02*
X017784Y004807D01*
X017784Y004811D02*
X017664Y004811D01*
X017664Y004815D02*
X017784Y004815D01*
X018021Y004819D02*
X017427Y004819D01*
X017427Y004823D02*
X018021Y004823D01*
X018021Y004826D02*
X017427Y004826D01*
X017427Y004830D02*
X018021Y004830D01*
X018021Y004834D02*
X017427Y004834D01*
X017427Y004838D02*
X018021Y004838D01*
X018021Y004842D02*
X017427Y004842D01*
X017427Y004845D02*
X018021Y004845D01*
X018021Y004849D02*
X017427Y004849D01*
X017427Y004853D02*
X018021Y004853D01*
X018021Y004857D02*
X017427Y004857D01*
X017427Y004861D02*
X018021Y004861D01*
X018021Y004865D02*
X017427Y004865D01*
X017427Y004869D02*
X018021Y004869D01*
X018021Y004873D02*
X017427Y004873D01*
X017427Y004877D02*
X018021Y004877D01*
X018021Y004881D02*
X017427Y004881D01*
X017427Y004885D02*
X018021Y004885D01*
X018021Y004889D02*
X017427Y004889D01*
X017427Y004892D02*
X018021Y004892D01*
X018021Y004896D02*
X017427Y004896D01*
X017427Y004900D02*
X018021Y004900D01*
X018021Y004904D02*
X017427Y004904D01*
X017356Y004906D02*
X017197Y004906D01*
X017022Y004723D01*
X016844Y004906D01*
X016705Y004906D01*
X016970Y004639D01*
X016970Y004416D01*
X017090Y004416D01*
X017090Y004637D01*
X017356Y004906D01*
X017355Y004904D02*
X017195Y004904D01*
X017191Y004900D02*
X017351Y004900D01*
X017347Y004896D02*
X017188Y004896D01*
X017184Y004892D02*
X017343Y004892D01*
X017340Y004889D02*
X017180Y004889D01*
X017176Y004885D02*
X017336Y004885D01*
X017332Y004881D02*
X017172Y004881D01*
X017168Y004877D02*
X017328Y004877D01*
X017324Y004873D02*
X017165Y004873D01*
X017161Y004869D02*
X017320Y004869D01*
X017316Y004865D02*
X017157Y004865D01*
X017154Y004861D02*
X017312Y004861D01*
X017308Y004857D02*
X017150Y004857D01*
X017147Y004853D02*
X017304Y004853D01*
X017300Y004849D02*
X017143Y004849D01*
X017139Y004845D02*
X017296Y004845D01*
X017293Y004842D02*
X017135Y004842D01*
X017131Y004838D02*
X017289Y004838D01*
X017285Y004834D02*
X017127Y004834D01*
X017124Y004830D02*
X017281Y004830D01*
X017278Y004826D02*
X017120Y004826D01*
X017116Y004823D02*
X017274Y004823D01*
X017270Y004819D02*
X017112Y004819D01*
X017108Y004815D02*
X017266Y004815D01*
X017262Y004811D02*
X017105Y004811D01*
X017101Y004807D02*
X017258Y004807D01*
X017254Y004803D02*
X017097Y004803D01*
X017093Y004799D02*
X017250Y004799D01*
X017246Y004795D02*
X017090Y004795D01*
X017086Y004791D02*
X017242Y004791D01*
X017238Y004787D02*
X017083Y004787D01*
X017079Y004783D02*
X017234Y004783D01*
X017230Y004779D02*
X017075Y004779D01*
X017071Y004775D02*
X017226Y004775D01*
X017222Y004771D02*
X017067Y004771D01*
X017064Y004767D02*
X017218Y004767D01*
X017216Y004764D02*
X017060Y004764D01*
X017056Y004760D02*
X017212Y004760D01*
X017208Y004756D02*
X017052Y004756D01*
X017048Y004752D02*
X017204Y004752D01*
X017200Y004748D02*
X017044Y004748D01*
X017041Y004744D02*
X017196Y004744D01*
X017192Y004740D02*
X017037Y004740D01*
X017033Y004736D02*
X017188Y004736D01*
X017184Y004732D02*
X017029Y004732D01*
X017026Y004728D02*
X017180Y004728D01*
X017176Y004724D02*
X017022Y004724D01*
X017021Y004724D02*
X016886Y004724D01*
X016890Y004720D02*
X017172Y004720D01*
X017168Y004716D02*
X016894Y004716D01*
X016898Y004712D02*
X017164Y004712D01*
X017160Y004708D02*
X016902Y004708D01*
X016905Y004704D02*
X017156Y004704D01*
X017153Y004701D02*
X016909Y004701D01*
X016913Y004697D02*
X017149Y004697D01*
X017145Y004693D02*
X016917Y004693D01*
X016921Y004689D02*
X017141Y004689D01*
X017137Y004685D02*
X016925Y004685D01*
X016929Y004681D02*
X017134Y004681D01*
X017130Y004677D02*
X016933Y004677D01*
X016937Y004673D02*
X017126Y004673D01*
X017122Y004669D02*
X016941Y004669D01*
X016945Y004665D02*
X017118Y004665D01*
X017114Y004661D02*
X016949Y004661D01*
X016953Y004657D02*
X017110Y004657D01*
X017106Y004653D02*
X016957Y004653D01*
X016961Y004649D02*
X017102Y004649D01*
X017098Y004645D02*
X016965Y004645D01*
X016968Y004641D02*
X017094Y004641D01*
X017091Y004638D02*
X016970Y004638D01*
X016970Y004634D02*
X017090Y004634D01*
X017090Y004630D02*
X016970Y004630D01*
X016970Y004626D02*
X017090Y004626D01*
X017090Y004622D02*
X016970Y004622D01*
X016970Y004618D02*
X017090Y004618D01*
X017090Y004614D02*
X016970Y004614D01*
X016970Y004610D02*
X017090Y004610D01*
X017090Y004606D02*
X016970Y004606D01*
X016970Y004602D02*
X017090Y004602D01*
X017090Y004598D02*
X016970Y004598D01*
X016970Y004594D02*
X017090Y004594D01*
X017090Y004590D02*
X016970Y004590D01*
X016970Y004586D02*
X017090Y004586D01*
X017090Y004582D02*
X016970Y004582D01*
X016970Y004578D02*
X017090Y004578D01*
X017090Y004575D02*
X016970Y004575D01*
X016970Y004571D02*
X017090Y004571D01*
X017090Y004567D02*
X016970Y004567D01*
X016970Y004563D02*
X017090Y004563D01*
X017090Y004559D02*
X016970Y004559D01*
X016970Y004555D02*
X017090Y004555D01*
X017090Y004551D02*
X016970Y004551D01*
X016970Y004547D02*
X017090Y004547D01*
X017090Y004543D02*
X016970Y004543D01*
X016970Y004539D02*
X017090Y004539D01*
X017090Y004535D02*
X016970Y004535D01*
X016970Y004531D02*
X017090Y004531D01*
X017090Y004527D02*
X016970Y004527D01*
X016970Y004523D02*
X017090Y004523D01*
X017090Y004519D02*
X016970Y004519D01*
X016970Y004515D02*
X017090Y004515D01*
X017090Y004512D02*
X016970Y004512D01*
X016970Y004508D02*
X017090Y004508D01*
X017090Y004504D02*
X016970Y004504D01*
X016970Y004500D02*
X017090Y004500D01*
X017090Y004496D02*
X016970Y004496D01*
X016970Y004492D02*
X017090Y004492D01*
X017090Y004488D02*
X016970Y004488D01*
X016970Y004484D02*
X017090Y004484D01*
X017090Y004480D02*
X016970Y004480D01*
X016970Y004476D02*
X017090Y004476D01*
X017090Y004472D02*
X016970Y004472D01*
X016970Y004468D02*
X017090Y004468D01*
X017090Y004464D02*
X016970Y004464D01*
X016970Y004460D02*
X017090Y004460D01*
X017090Y004456D02*
X016970Y004456D01*
X016970Y004452D02*
X017090Y004452D01*
X017090Y004449D02*
X016970Y004449D01*
X016970Y004445D02*
X017090Y004445D01*
X017090Y004441D02*
X016970Y004441D01*
X016970Y004437D02*
X017090Y004437D01*
X017090Y004433D02*
X016970Y004433D01*
X016970Y004429D02*
X017090Y004429D01*
X017090Y004425D02*
X016970Y004425D01*
X016970Y004421D02*
X017090Y004421D01*
X017090Y004417D02*
X016970Y004417D01*
X017017Y004728D02*
X016882Y004728D01*
X016878Y004732D02*
X017013Y004732D01*
X017010Y004736D02*
X016874Y004736D01*
X016870Y004740D02*
X017006Y004740D01*
X017002Y004744D02*
X016866Y004744D01*
X016862Y004748D02*
X016998Y004748D01*
X016994Y004752D02*
X016858Y004752D01*
X016854Y004756D02*
X016990Y004756D01*
X016986Y004760D02*
X016850Y004760D01*
X016846Y004764D02*
X016982Y004764D01*
X016979Y004767D02*
X016842Y004767D01*
X016839Y004771D02*
X016975Y004771D01*
X016971Y004775D02*
X016835Y004775D01*
X016831Y004779D02*
X016967Y004779D01*
X016964Y004783D02*
X016828Y004783D01*
X016824Y004787D02*
X016960Y004787D01*
X016956Y004791D02*
X016820Y004791D01*
X016816Y004795D02*
X016953Y004795D01*
X016949Y004799D02*
X016812Y004799D01*
X016808Y004803D02*
X016945Y004803D01*
X016941Y004807D02*
X016804Y004807D01*
X016800Y004811D02*
X016937Y004811D01*
X016933Y004815D02*
X016796Y004815D01*
X016792Y004819D02*
X016929Y004819D01*
X016925Y004823D02*
X016788Y004823D01*
X016784Y004826D02*
X016922Y004826D01*
X016918Y004830D02*
X016780Y004830D01*
X016777Y004834D02*
X016914Y004834D01*
X016910Y004838D02*
X016773Y004838D01*
X016769Y004842D02*
X016906Y004842D01*
X016903Y004845D02*
X016765Y004845D01*
X016761Y004849D02*
X016899Y004849D01*
X016896Y004853D02*
X016757Y004853D01*
X016753Y004857D02*
X016892Y004857D01*
X016888Y004861D02*
X016749Y004861D01*
X016745Y004865D02*
X016884Y004865D01*
X016880Y004869D02*
X016741Y004869D01*
X016737Y004873D02*
X016876Y004873D01*
X016872Y004877D02*
X016733Y004877D01*
X016729Y004881D02*
X016868Y004881D01*
X016865Y004885D02*
X016725Y004885D01*
X016721Y004889D02*
X016861Y004889D01*
X016857Y004892D02*
X016717Y004892D01*
X016714Y004896D02*
X016853Y004896D01*
X016849Y004900D02*
X016710Y004900D01*
X016706Y004904D02*
X016845Y004904D01*
X016536Y004900D02*
X016357Y004900D01*
X016357Y004896D02*
X016536Y004896D01*
X016536Y004892D02*
X016357Y004892D01*
X016357Y004889D02*
X016536Y004889D01*
X016536Y004885D02*
X016357Y004885D01*
X016357Y004881D02*
X016536Y004881D01*
X016536Y004877D02*
X016357Y004877D01*
X016357Y004873D02*
X016536Y004873D01*
X016536Y004869D02*
X016357Y004869D01*
X016357Y004865D02*
X016536Y004865D01*
X016536Y004861D02*
X016357Y004861D01*
X016357Y004857D02*
X016536Y004857D01*
X016536Y004853D02*
X016357Y004853D01*
X016357Y004849D02*
X016536Y004849D01*
X016536Y004845D02*
X016357Y004845D01*
X016357Y004842D02*
X016536Y004842D01*
X016536Y004838D02*
X016357Y004838D01*
X016357Y004834D02*
X016536Y004834D01*
X016536Y004830D02*
X016357Y004830D01*
X016357Y004826D02*
X016536Y004826D01*
X016536Y004823D02*
X016357Y004823D01*
X016357Y004819D02*
X016536Y004819D01*
X016536Y004815D02*
X016357Y004815D01*
X016357Y004811D02*
X016536Y004811D01*
X016536Y004807D02*
X016357Y004807D01*
X016357Y004803D02*
X016536Y004803D01*
X016536Y004799D02*
X016357Y004799D01*
X016357Y004795D02*
X016536Y004795D01*
X016536Y004791D02*
X016357Y004791D01*
X016357Y004787D02*
X016536Y004787D01*
X016536Y004783D02*
X016357Y004783D01*
X016357Y004779D02*
X016536Y004779D01*
X016536Y004775D02*
X016357Y004775D01*
X016357Y004771D02*
X016536Y004771D01*
X016536Y004767D02*
X016357Y004767D01*
X016357Y004764D02*
X016536Y004764D01*
X016536Y004760D02*
X016357Y004760D01*
X016357Y004756D02*
X016536Y004756D01*
X016536Y004752D02*
X016357Y004752D01*
X016357Y004748D02*
X016536Y004748D01*
X016536Y004744D02*
X016357Y004744D01*
X016357Y004740D02*
X016536Y004740D01*
X016536Y004736D02*
X016357Y004736D01*
X016357Y004732D02*
X016536Y004732D01*
X016536Y004728D02*
X016357Y004728D01*
X016357Y004724D02*
X016536Y004724D01*
X016536Y004720D02*
X016357Y004720D01*
X016357Y004716D02*
X016536Y004716D01*
X016536Y004712D02*
X016357Y004712D01*
X016357Y004708D02*
X016536Y004708D01*
X016536Y004704D02*
X016357Y004704D01*
X016357Y004701D02*
X016536Y004701D01*
X016536Y004697D02*
X016357Y004697D01*
X016357Y004693D02*
X016536Y004693D01*
X016536Y004689D02*
X016357Y004689D01*
X016357Y004685D02*
X016536Y004685D01*
X016536Y004681D02*
X016357Y004681D01*
X016357Y004677D02*
X016536Y004677D01*
X016536Y004673D02*
X016357Y004673D01*
X016357Y004669D02*
X016536Y004669D01*
X016536Y004665D02*
X016357Y004665D01*
X016357Y004661D02*
X016536Y004661D01*
X016536Y004657D02*
X016357Y004657D01*
X016357Y004653D02*
X016536Y004653D01*
X016536Y004649D02*
X016357Y004649D01*
X016357Y004645D02*
X016536Y004645D01*
X016536Y004641D02*
X016357Y004641D01*
X016357Y004638D02*
X016536Y004638D01*
X016536Y004634D02*
X016357Y004634D01*
X016357Y004630D02*
X016536Y004630D01*
X016536Y004626D02*
X016357Y004626D01*
X016357Y004622D02*
X016536Y004622D01*
X016536Y004618D02*
X016357Y004618D01*
X016357Y004614D02*
X016536Y004614D01*
X016536Y004610D02*
X016357Y004610D01*
X016357Y004606D02*
X016536Y004606D01*
X016536Y004602D02*
X016357Y004602D01*
X016357Y004598D02*
X016536Y004598D01*
X016536Y004594D02*
X016357Y004594D01*
X016357Y004590D02*
X016536Y004590D01*
X016536Y004586D02*
X016357Y004586D01*
X016357Y004582D02*
X016536Y004582D01*
X016536Y004578D02*
X016357Y004578D01*
X016357Y004575D02*
X016536Y004575D01*
X016536Y004571D02*
X016357Y004571D01*
X016357Y004567D02*
X016536Y004567D01*
X016536Y004563D02*
X016357Y004563D01*
X016357Y004559D02*
X016536Y004559D01*
X016536Y004555D02*
X016357Y004555D01*
X016357Y004551D02*
X016536Y004551D01*
X016536Y004547D02*
X016357Y004547D01*
X016357Y004543D02*
X016536Y004543D01*
X016536Y004539D02*
X016357Y004539D01*
X016357Y004535D02*
X016536Y004535D01*
X016536Y004531D02*
X016357Y004531D01*
X016357Y004527D02*
X016536Y004527D01*
X016536Y004523D02*
X016357Y004523D01*
X016357Y004519D02*
X016536Y004519D01*
X016536Y004515D02*
X016357Y004515D01*
X016357Y004512D02*
X016536Y004512D01*
X016536Y004508D02*
X016357Y004508D01*
X016357Y004504D02*
X016536Y004504D01*
X016536Y004500D02*
X016357Y004500D01*
X016357Y004496D02*
X016536Y004496D01*
X016536Y004492D02*
X016357Y004492D01*
X016357Y004488D02*
X016536Y004488D01*
X016536Y004484D02*
X016357Y004484D01*
X016357Y004480D02*
X016536Y004480D01*
X016536Y004476D02*
X016357Y004476D01*
X016357Y004472D02*
X016536Y004472D01*
X016536Y004468D02*
X016357Y004468D01*
X016357Y004464D02*
X016536Y004464D01*
X016536Y004460D02*
X016357Y004460D01*
X016357Y004456D02*
X016536Y004456D01*
X016536Y004452D02*
X016357Y004452D01*
X016357Y004449D02*
X016536Y004449D01*
X016536Y004445D02*
X016357Y004445D01*
X016357Y004441D02*
X016536Y004441D01*
X016536Y004437D02*
X016357Y004437D01*
X016357Y004433D02*
X016536Y004433D01*
X016536Y004429D02*
X016357Y004429D01*
X016357Y004425D02*
X016536Y004425D01*
X016536Y004421D02*
X016357Y004421D01*
X016357Y004417D02*
X016536Y004417D01*
X016536Y004413D02*
X013469Y004413D01*
X013469Y004409D02*
X016536Y004409D01*
X016536Y004405D02*
X013469Y004405D01*
X013469Y004401D02*
X016536Y004401D01*
X016536Y004397D02*
X013469Y004397D01*
X013469Y004393D02*
X016536Y004393D01*
X016536Y004389D02*
X013469Y004389D01*
X013469Y004386D02*
X016536Y004386D01*
X016536Y004382D02*
X013469Y004382D01*
X013469Y004378D02*
X016536Y004378D01*
X016536Y004374D02*
X013469Y004374D01*
X013469Y004370D02*
X016536Y004370D01*
X016536Y004366D02*
X013469Y004366D01*
X013469Y004362D02*
X016536Y004362D01*
X016536Y004358D02*
X013469Y004358D01*
X013469Y004354D02*
X016536Y004354D01*
X016536Y004350D02*
X013469Y004350D01*
X013469Y004346D02*
X016536Y004346D01*
X016536Y004342D02*
X013469Y004342D01*
X013469Y004338D02*
X016536Y004338D01*
X016536Y004334D02*
X013469Y004334D01*
X013469Y004330D02*
X016536Y004330D01*
X016536Y004326D02*
X013469Y004326D01*
X013469Y004323D02*
X016536Y004323D01*
X016536Y004319D02*
X013469Y004319D01*
X013469Y004315D02*
X016536Y004315D01*
X016536Y004311D02*
X013469Y004311D01*
X013469Y004307D02*
X016536Y004307D01*
X016536Y004303D02*
X013469Y004303D01*
X013469Y004299D02*
X016536Y004299D01*
X016536Y004295D02*
X013469Y004295D01*
X013469Y004291D02*
X016536Y004291D01*
X016536Y004287D02*
X013469Y004287D01*
X013469Y004283D02*
X016536Y004283D01*
X016536Y004279D02*
X013469Y004279D01*
X013469Y004275D02*
X016536Y004275D01*
X016536Y004271D02*
X013469Y004271D01*
X013469Y004267D02*
X016536Y004267D01*
X016536Y004264D02*
X013469Y004264D01*
X013469Y004260D02*
X016536Y004260D01*
X016536Y004256D02*
X013469Y004256D01*
X013469Y004252D02*
X016536Y004252D01*
X016536Y004248D02*
X013469Y004248D01*
X013469Y004244D02*
X016536Y004244D01*
X016536Y004240D02*
X013469Y004240D01*
X013469Y004236D02*
X016536Y004236D01*
X016536Y004232D02*
X013469Y004232D01*
X013469Y004228D02*
X016536Y004228D01*
X016536Y004224D02*
X013469Y004224D01*
X013469Y004220D02*
X016536Y004220D01*
X016536Y004216D02*
X013469Y004216D01*
X013469Y004212D02*
X016536Y004212D01*
X016536Y004208D02*
X013469Y004208D01*
X013469Y004204D02*
X016536Y004204D01*
X016536Y004201D02*
X013469Y004201D01*
X013469Y004197D02*
X016536Y004197D01*
X016536Y004193D02*
X013469Y004193D01*
X013469Y004189D02*
X016536Y004189D01*
X016536Y004185D02*
X013469Y004185D01*
X013469Y004181D02*
X016536Y004181D01*
X016536Y004177D02*
X013469Y004177D01*
X013469Y004173D02*
X016536Y004173D01*
X016536Y004169D02*
X013469Y004169D01*
X013469Y004165D02*
X016536Y004165D01*
X016536Y004161D02*
X013469Y004161D01*
X013469Y004157D02*
X016536Y004157D01*
X016536Y004153D02*
X013469Y004153D01*
X013469Y004149D02*
X016536Y004149D01*
X016536Y004147D02*
X013469Y004147D01*
X013469Y005176D01*
X016536Y005176D01*
X013469Y005176D01*
X013469Y005172D02*
X016536Y005172D01*
X016536Y005176D02*
X016536Y004147D01*
X016357Y004416D02*
X016357Y004906D01*
X016237Y004906D01*
X016237Y004508D01*
X015852Y004508D01*
X015739Y004508D01*
X015737Y004512D02*
X016237Y004512D01*
X016237Y004515D02*
X015734Y004515D01*
X015732Y004519D02*
X016237Y004519D01*
X016237Y004523D02*
X015730Y004523D01*
X015727Y004527D02*
X016237Y004527D01*
X016237Y004531D02*
X015725Y004531D01*
X015722Y004535D02*
X016237Y004535D01*
X016237Y004539D02*
X015720Y004539D01*
X015718Y004543D02*
X016237Y004543D01*
X016237Y004547D02*
X015716Y004547D01*
X015714Y004551D02*
X016237Y004551D01*
X016237Y004555D02*
X015712Y004555D01*
X015709Y004559D02*
X016237Y004559D01*
X016237Y004563D02*
X015707Y004563D01*
X015704Y004567D02*
X016237Y004567D01*
X016237Y004571D02*
X015702Y004571D01*
X015700Y004575D02*
X016237Y004575D01*
X016237Y004578D02*
X015697Y004578D01*
X015695Y004582D02*
X016237Y004582D01*
X016237Y004586D02*
X015693Y004586D01*
X015690Y004590D02*
X016237Y004590D01*
X016237Y004594D02*
X015688Y004594D01*
X015685Y004598D02*
X016237Y004598D01*
X016237Y004602D02*
X015683Y004602D01*
X015681Y004606D02*
X016237Y004606D01*
X016237Y004610D02*
X015678Y004610D01*
X015676Y004614D02*
X016237Y004614D01*
X016237Y004618D02*
X015674Y004618D01*
X015671Y004622D02*
X016237Y004622D01*
X016237Y004626D02*
X015669Y004626D01*
X015666Y004630D02*
X016237Y004630D01*
X016237Y004634D02*
X015664Y004634D01*
X015662Y004638D02*
X016237Y004638D01*
X016237Y004641D02*
X015659Y004641D01*
X015657Y004645D02*
X016237Y004645D01*
X016237Y004649D02*
X015655Y004649D01*
X015653Y004653D02*
X016237Y004653D01*
X016237Y004657D02*
X015651Y004657D01*
X015648Y004661D02*
X016237Y004661D01*
X016237Y004665D02*
X015646Y004665D01*
X015644Y004669D02*
X016237Y004669D01*
X016237Y004673D02*
X015641Y004673D01*
X015639Y004677D02*
X016237Y004677D01*
X016237Y004681D02*
X015637Y004681D01*
X015634Y004685D02*
X016237Y004685D01*
X016237Y004689D02*
X015632Y004689D01*
X015629Y004693D02*
X016237Y004693D01*
X016237Y004697D02*
X015627Y004697D01*
X015625Y004701D02*
X016237Y004701D01*
X016237Y004704D02*
X015622Y004704D01*
X015620Y004708D02*
X016237Y004708D01*
X016237Y004712D02*
X015618Y004712D01*
X015615Y004716D02*
X016237Y004716D01*
X016237Y004720D02*
X015613Y004720D01*
X015610Y004724D02*
X016237Y004724D01*
X016237Y004728D02*
X015608Y004728D01*
X015606Y004732D02*
X016237Y004732D01*
X016237Y004736D02*
X015603Y004736D01*
X015601Y004740D02*
X016237Y004740D01*
X016237Y004744D02*
X015599Y004744D01*
X015596Y004748D02*
X016237Y004748D01*
X016237Y004752D02*
X015594Y004752D01*
X015591Y004756D02*
X016237Y004756D01*
X016237Y004760D02*
X015590Y004760D01*
X015588Y004764D02*
X016237Y004764D01*
X016237Y004767D02*
X015585Y004767D01*
X015583Y004771D02*
X016237Y004771D01*
X016237Y004775D02*
X015581Y004775D01*
X015578Y004779D02*
X016237Y004779D01*
X016237Y004783D02*
X015576Y004783D01*
X015574Y004787D02*
X016237Y004787D01*
X016237Y004791D02*
X015571Y004791D01*
X015569Y004795D02*
X016237Y004795D01*
X016237Y004799D02*
X015566Y004799D01*
X015564Y004803D02*
X016237Y004803D01*
X016237Y004807D02*
X015562Y004807D01*
X015559Y004811D02*
X016237Y004811D01*
X016237Y004815D02*
X015557Y004815D01*
X015555Y004819D02*
X016237Y004819D01*
X016237Y004823D02*
X015552Y004823D01*
X015550Y004826D02*
X016237Y004826D01*
X016237Y004830D02*
X015547Y004830D01*
X015545Y004834D02*
X016237Y004834D01*
X016237Y004838D02*
X015543Y004838D01*
X015540Y004842D02*
X016237Y004842D01*
X016237Y004845D02*
X015538Y004845D01*
X015536Y004849D02*
X016237Y004849D01*
X016237Y004853D02*
X015533Y004853D01*
X015531Y004857D02*
X016237Y004857D01*
X016237Y004861D02*
X015529Y004861D01*
X015527Y004865D02*
X016237Y004865D01*
X016237Y004869D02*
X015525Y004869D01*
X015522Y004873D02*
X016237Y004873D01*
X016237Y004877D02*
X015520Y004877D01*
X015518Y004881D02*
X016237Y004881D01*
X016237Y004885D02*
X015515Y004885D01*
X015513Y004889D02*
X016237Y004889D01*
X016237Y004892D02*
X015510Y004892D01*
X015508Y004896D02*
X016237Y004896D01*
X016237Y004900D02*
X015506Y004900D01*
X015503Y004904D02*
X016237Y004904D01*
X016357Y004904D02*
X016536Y004904D01*
X016536Y004908D02*
X013469Y004908D01*
X013469Y004904D02*
X013749Y004904D01*
X013750Y004904D02*
X013742Y004904D01*
X013735Y004903D01*
X013728Y004902D01*
X013722Y004900D01*
X013469Y004900D01*
X013469Y004896D02*
X013708Y004896D01*
X013711Y004897D02*
X013705Y004895D01*
X013700Y004893D01*
X013695Y004891D01*
X013691Y004889D01*
X013686Y004887D01*
X013682Y004884D01*
X013679Y004881D01*
X013469Y004881D01*
X013469Y004885D02*
X013684Y004885D01*
X013679Y004881D02*
X013676Y004878D01*
X013672Y004875D01*
X013670Y004871D01*
X013667Y004866D01*
X013665Y004862D01*
X013662Y004857D01*
X013660Y004852D01*
X013659Y004846D01*
X013657Y004840D01*
X013656Y004834D01*
X013469Y004834D01*
X013469Y004830D02*
X013655Y004830D01*
X013655Y004827D02*
X013654Y004822D01*
X013654Y004814D01*
X013654Y004807D01*
X013469Y004807D01*
X013469Y004811D02*
X013654Y004811D01*
X013654Y004815D02*
X013469Y004815D01*
X013469Y004819D02*
X013654Y004819D01*
X013654Y004823D02*
X013469Y004823D01*
X013469Y004826D02*
X013655Y004826D01*
X013655Y004827D02*
X013656Y004834D01*
X013657Y004838D02*
X013469Y004838D01*
X013469Y004842D02*
X013657Y004842D01*
X013658Y004845D02*
X013469Y004845D01*
X013469Y004849D02*
X013660Y004849D01*
X013661Y004853D02*
X013469Y004853D01*
X013469Y004857D02*
X013663Y004857D01*
X013664Y004861D02*
X013469Y004861D01*
X013469Y004865D02*
X013667Y004865D01*
X013669Y004869D02*
X013469Y004869D01*
X013469Y004873D02*
X013672Y004873D01*
X013675Y004877D02*
X013469Y004877D01*
X013469Y004889D02*
X013690Y004889D01*
X013698Y004892D02*
X013469Y004892D01*
X013469Y004912D02*
X016536Y004912D01*
X016536Y004916D02*
X013469Y004916D01*
X013469Y004920D02*
X016536Y004920D01*
X016536Y004924D02*
X013469Y004924D01*
X013469Y004928D02*
X016536Y004928D01*
X016536Y004932D02*
X013469Y004932D01*
X013469Y004936D02*
X016536Y004936D01*
X016536Y004940D02*
X013469Y004940D01*
X013469Y004944D02*
X016536Y004944D01*
X016536Y004948D02*
X013469Y004948D01*
X013469Y004951D02*
X016536Y004951D01*
X016536Y004955D02*
X013469Y004955D01*
X013469Y004959D02*
X016536Y004959D01*
X016536Y004963D02*
X013469Y004963D01*
X013469Y004967D02*
X016536Y004967D01*
X016536Y004971D02*
X013469Y004971D01*
X013469Y004975D02*
X016536Y004975D01*
X016536Y004979D02*
X013469Y004979D01*
X013469Y004983D02*
X016536Y004983D01*
X016536Y004987D02*
X013469Y004987D01*
X013469Y004991D02*
X016536Y004991D01*
X016536Y004995D02*
X013469Y004995D01*
X013469Y004999D02*
X016536Y004999D01*
X016536Y005003D02*
X013469Y005003D01*
X013469Y005007D02*
X016536Y005007D01*
X016536Y005011D02*
X013469Y005011D01*
X013469Y005014D02*
X016536Y005014D01*
X016536Y005018D02*
X013469Y005018D01*
X013469Y005022D02*
X016536Y005022D01*
X016536Y005026D02*
X013469Y005026D01*
X013469Y005030D02*
X016536Y005030D01*
X016536Y005034D02*
X013469Y005034D01*
X013469Y005038D02*
X016536Y005038D01*
X016536Y005042D02*
X013469Y005042D01*
X013469Y005046D02*
X016536Y005046D01*
X016536Y005050D02*
X013469Y005050D01*
X013469Y005054D02*
X016536Y005054D01*
X016536Y005058D02*
X013469Y005058D01*
X013469Y005062D02*
X016536Y005062D01*
X016536Y005066D02*
X013469Y005066D01*
X013469Y005070D02*
X016536Y005070D01*
X016536Y005074D02*
X013469Y005074D01*
X013469Y005077D02*
X016536Y005077D01*
X016536Y005081D02*
X013469Y005081D01*
X013469Y005085D02*
X016536Y005085D01*
X016536Y005089D02*
X013469Y005089D01*
X013469Y005093D02*
X016536Y005093D01*
X016536Y005097D02*
X013469Y005097D01*
X013469Y005101D02*
X016536Y005101D01*
X016536Y005105D02*
X013469Y005105D01*
X013469Y005109D02*
X016536Y005109D01*
X016536Y005113D02*
X013469Y005113D01*
X013469Y005117D02*
X016536Y005117D01*
X016536Y005121D02*
X013469Y005121D01*
X013469Y005125D02*
X016536Y005125D01*
X016536Y005129D02*
X013469Y005129D01*
X013469Y005133D02*
X016536Y005133D01*
X016536Y005137D02*
X013469Y005137D01*
X013469Y005140D02*
X016536Y005140D01*
X016536Y005144D02*
X013469Y005144D01*
X013469Y005148D02*
X016536Y005148D01*
X016536Y005152D02*
X013469Y005152D01*
X013469Y005156D02*
X016536Y005156D01*
X016536Y005160D02*
X013469Y005160D01*
X013469Y005164D02*
X016536Y005164D01*
X016536Y005168D02*
X013469Y005168D01*
X013711Y004897D02*
X013716Y004899D01*
X013722Y004900D01*
X013750Y004904D02*
X013758Y004905D01*
X013766Y004906D01*
X013774Y004906D01*
X013782Y004906D01*
X014074Y004906D01*
X014083Y004906D01*
X014091Y004905D01*
X014099Y004905D01*
X014107Y004904D01*
X014114Y004903D01*
X014121Y004902D01*
X014128Y004901D01*
X014135Y004900D01*
X014141Y004898D01*
X014147Y004896D01*
X014468Y004896D01*
X014459Y004892D01*
X014450Y004888D01*
X014443Y004883D01*
X014436Y004876D01*
X014430Y004869D01*
X014185Y004869D01*
X014186Y004868D02*
X014184Y004872D01*
X014181Y004876D01*
X014178Y004879D01*
X014174Y004882D01*
X014170Y004885D01*
X014446Y004885D01*
X014441Y004881D02*
X014175Y004881D01*
X014179Y004877D02*
X014437Y004877D01*
X014433Y004873D02*
X014182Y004873D01*
X014186Y004868D02*
X014189Y004863D01*
X014191Y004858D01*
X014193Y004853D01*
X014421Y004853D01*
X014420Y004852D02*
X014417Y004843D01*
X014415Y004833D01*
X014414Y004823D01*
X014413Y004811D01*
X014201Y004811D01*
X014201Y004815D02*
X014413Y004815D01*
X014413Y004819D02*
X014200Y004819D01*
X014200Y004822D02*
X014199Y004828D01*
X014198Y004835D01*
X014196Y004841D01*
X014195Y004847D01*
X014193Y004853D01*
X014194Y004849D02*
X014419Y004849D01*
X014420Y004852D02*
X014425Y004861D01*
X014189Y004861D01*
X014191Y004857D02*
X014423Y004857D01*
X014425Y004861D02*
X014430Y004869D01*
X014427Y004865D02*
X014187Y004865D01*
X014195Y004845D02*
X014418Y004845D01*
X014417Y004842D02*
X014196Y004842D01*
X014197Y004838D02*
X014416Y004838D01*
X014415Y004834D02*
X014198Y004834D01*
X014199Y004830D02*
X014414Y004830D01*
X014414Y004826D02*
X014199Y004826D01*
X014200Y004823D02*
X014413Y004823D01*
X014413Y004811D02*
X014413Y004752D01*
X014202Y004752D01*
X014202Y004756D02*
X014413Y004756D01*
X014413Y004760D02*
X014202Y004760D01*
X014202Y004764D02*
X014413Y004764D01*
X014413Y004767D02*
X014202Y004767D01*
X014202Y004771D02*
X014413Y004771D01*
X014413Y004775D02*
X014202Y004775D01*
X014202Y004779D02*
X014413Y004779D01*
X014413Y004783D02*
X014202Y004783D01*
X014202Y004787D02*
X014413Y004787D01*
X014413Y004791D02*
X014202Y004791D01*
X014202Y004790D02*
X014202Y004799D01*
X014413Y004799D01*
X014413Y004803D02*
X014201Y004803D01*
X014201Y004807D02*
X014413Y004807D01*
X014413Y004795D02*
X014202Y004795D01*
X014202Y004799D02*
X014201Y004807D01*
X014201Y004815D01*
X014200Y004822D01*
X014202Y004790D02*
X014202Y004736D01*
X014414Y004736D01*
X014416Y004728D01*
X014202Y004728D01*
X014202Y004736D01*
X014202Y004740D02*
X014414Y004740D01*
X014413Y004744D02*
X014202Y004744D01*
X014202Y004748D02*
X014413Y004748D01*
X014413Y004752D02*
X014413Y004744D01*
X014414Y004736D01*
X014415Y004732D02*
X014202Y004732D01*
X014202Y004728D02*
X014201Y004720D01*
X014419Y004720D01*
X014418Y004721D02*
X014421Y004715D01*
X014425Y004708D01*
X014429Y004702D01*
X014434Y004698D01*
X014440Y004693D01*
X014198Y004693D01*
X014198Y004692D02*
X014199Y004698D01*
X014200Y004705D01*
X014201Y004712D01*
X014423Y004712D01*
X014421Y004716D02*
X014201Y004716D01*
X014201Y004712D02*
X014201Y004720D01*
X014201Y004724D02*
X014418Y004724D01*
X014418Y004721D02*
X014416Y004728D01*
X014426Y004708D02*
X014200Y004708D01*
X014200Y004704D02*
X014428Y004704D01*
X014432Y004701D02*
X014199Y004701D01*
X014199Y004697D02*
X014436Y004697D01*
X014440Y004693D02*
X014446Y004688D01*
X014453Y004684D01*
X014461Y004680D01*
X014468Y004677D01*
X014194Y004677D01*
X014195Y004679D02*
X014196Y004685D01*
X014452Y004685D01*
X014446Y004689D02*
X014197Y004689D01*
X014198Y004692D02*
X014196Y004685D01*
X014195Y004681D02*
X014460Y004681D01*
X014468Y004677D02*
X014477Y004674D01*
X014487Y004671D01*
X014497Y004669D01*
X014487Y004667D01*
X014477Y004665D01*
X014189Y004665D01*
X014189Y004663D02*
X014191Y004668D01*
X014193Y004674D01*
X014195Y004679D01*
X014193Y004673D02*
X014481Y004673D01*
X014477Y004665D02*
X014467Y004661D01*
X014460Y004658D01*
X014452Y004654D01*
X014445Y004649D01*
X014438Y004644D01*
X014432Y004639D01*
X014427Y004633D01*
X014422Y004626D01*
X014132Y004626D01*
X014135Y004626D02*
X014141Y004628D01*
X014147Y004630D01*
X014425Y004630D01*
X014428Y004634D02*
X014156Y004634D01*
X014157Y004634D02*
X014162Y004636D01*
X014166Y004639D01*
X014170Y004641D01*
X014435Y004641D01*
X014431Y004638D02*
X014164Y004638D01*
X014170Y004641D02*
X014174Y004644D01*
X014178Y004647D01*
X014181Y004650D01*
X014184Y004654D01*
X014186Y004659D01*
X014189Y004663D01*
X014187Y004661D02*
X014466Y004661D01*
X014457Y004657D02*
X014185Y004657D01*
X014182Y004653D02*
X014450Y004653D01*
X014444Y004649D02*
X014179Y004649D01*
X014175Y004645D02*
X014439Y004645D01*
X014422Y004626D02*
X014419Y004619D01*
X014416Y004611D01*
X014413Y004603D01*
X014411Y004594D01*
X013756Y004594D01*
X013756Y004590D02*
X014411Y004590D01*
X014410Y004586D02*
X013756Y004586D01*
X013756Y004582D02*
X014410Y004582D01*
X014410Y004584D02*
X014410Y004576D01*
X014410Y004514D01*
X014411Y004502D01*
X014412Y004490D01*
X014415Y004480D01*
X014216Y004480D01*
X014217Y004481D02*
X014218Y004487D01*
X014219Y004494D01*
X014220Y004501D01*
X014221Y004509D01*
X014222Y004515D01*
X014410Y004515D01*
X014410Y004512D02*
X014221Y004512D01*
X014222Y004515D02*
X014222Y004523D01*
X014410Y004523D01*
X014410Y004519D02*
X014222Y004519D01*
X014222Y004523D02*
X014222Y004532D01*
X014222Y004546D01*
X014115Y004566D01*
X014115Y004508D01*
X013756Y004508D01*
X013756Y004620D01*
X014074Y004620D01*
X014083Y004620D01*
X014091Y004621D01*
X014099Y004621D01*
X014107Y004622D01*
X014114Y004623D01*
X014121Y004624D01*
X014128Y004625D01*
X014135Y004626D01*
X014147Y004630D02*
X014153Y004632D01*
X014157Y004634D01*
X014191Y004669D02*
X014495Y004669D01*
X014536Y004619D02*
X014538Y004620D01*
X014540Y004622D01*
X014852Y004622D01*
X014852Y004626D02*
X014548Y004626D01*
X014549Y004626D02*
X014552Y004627D01*
X014554Y004627D01*
X014556Y004627D01*
X014559Y004628D01*
X014562Y004628D01*
X014565Y004629D01*
X014568Y004629D01*
X014571Y004629D01*
X014574Y004629D01*
X014577Y004629D01*
X014581Y004629D01*
X014585Y004629D01*
X014852Y004629D01*
X014852Y004505D01*
X014585Y004505D01*
X014581Y004505D01*
X014577Y004506D01*
X014574Y004506D01*
X014571Y004506D01*
X014568Y004506D01*
X014565Y004506D01*
X014562Y004507D01*
X014559Y004507D01*
X014556Y004508D01*
X014554Y004508D01*
X014552Y004509D01*
X014549Y004509D01*
X014547Y004510D01*
X014545Y004511D01*
X014544Y004512D01*
X014542Y004513D01*
X014540Y004514D01*
X014538Y004514D01*
X014536Y004516D01*
X014535Y004517D01*
X014533Y004519D01*
X014532Y004521D01*
X014531Y004523D01*
X014852Y004523D01*
X014852Y004519D02*
X014534Y004519D01*
X014537Y004515D02*
X014852Y004515D01*
X014852Y004512D02*
X014543Y004512D01*
X014555Y004508D02*
X014852Y004508D01*
X014852Y004527D02*
X014529Y004527D01*
X014529Y004528D02*
X014529Y004530D01*
X014528Y004533D01*
X014528Y004536D01*
X014527Y004539D01*
X014852Y004539D01*
X014852Y004535D02*
X014528Y004535D01*
X014529Y004531D02*
X014852Y004531D01*
X014852Y004543D02*
X014527Y004543D01*
X014527Y004542D02*
X014527Y004546D01*
X014527Y004549D01*
X014527Y004586D01*
X014852Y004586D01*
X014852Y004582D02*
X014527Y004582D01*
X014527Y004578D02*
X014852Y004578D01*
X014852Y004575D02*
X014527Y004575D01*
X014527Y004571D02*
X014852Y004571D01*
X014852Y004567D02*
X014527Y004567D01*
X014527Y004563D02*
X014852Y004563D01*
X014852Y004559D02*
X014527Y004559D01*
X014527Y004555D02*
X014852Y004555D01*
X014852Y004551D02*
X014527Y004551D01*
X014527Y004547D02*
X014852Y004547D01*
X014852Y004590D02*
X014527Y004590D01*
X014527Y004589D02*
X014527Y004592D01*
X014527Y004595D01*
X014528Y004598D01*
X014852Y004598D01*
X014852Y004594D02*
X014527Y004594D01*
X014528Y004598D02*
X014528Y004601D01*
X014529Y004604D01*
X014529Y004606D01*
X014852Y004606D01*
X014852Y004602D02*
X014529Y004602D01*
X014529Y004606D02*
X014530Y004609D01*
X014531Y004611D01*
X014532Y004613D01*
X014533Y004615D01*
X014535Y004617D01*
X014536Y004619D01*
X014535Y004618D02*
X014852Y004618D01*
X014852Y004614D02*
X014532Y004614D01*
X014530Y004610D02*
X014852Y004610D01*
X014852Y004711D02*
X014585Y004711D01*
X014578Y004711D01*
X014572Y004711D01*
X014567Y004712D01*
X014561Y004713D01*
X014557Y004714D01*
X014552Y004716D01*
X014852Y004716D01*
X014852Y004712D02*
X014569Y004712D01*
X014552Y004716D02*
X014548Y004717D01*
X014545Y004719D01*
X014541Y004722D01*
X014539Y004724D01*
X014852Y004724D01*
X014852Y004720D02*
X014544Y004720D01*
X014539Y004724D02*
X014536Y004727D01*
X014534Y004730D01*
X014533Y004734D01*
X014532Y004738D01*
X014531Y004742D01*
X014531Y004746D01*
X014531Y004792D01*
X014531Y004796D01*
X014532Y004800D01*
X014533Y004804D01*
X014534Y004807D01*
X014852Y004807D01*
X014852Y004811D02*
X014536Y004811D01*
X014536Y004810D02*
X014539Y004813D01*
X014541Y004816D01*
X014545Y004818D01*
X014548Y004820D01*
X014552Y004822D01*
X014557Y004823D01*
X014561Y004824D01*
X014567Y004825D01*
X014572Y004826D01*
X014578Y004826D01*
X014585Y004826D01*
X014852Y004826D01*
X014581Y004826D01*
X014554Y004823D02*
X014852Y004823D01*
X014852Y004826D02*
X014852Y004711D01*
X014852Y004728D02*
X014536Y004728D01*
X014534Y004732D02*
X014852Y004732D01*
X014852Y004736D02*
X014532Y004736D01*
X014531Y004740D02*
X014852Y004740D01*
X014852Y004744D02*
X014531Y004744D01*
X014531Y004748D02*
X014852Y004748D01*
X014852Y004752D02*
X014531Y004752D01*
X014531Y004756D02*
X014852Y004756D01*
X014852Y004760D02*
X014531Y004760D01*
X014531Y004764D02*
X014852Y004764D01*
X014852Y004767D02*
X014531Y004767D01*
X014531Y004771D02*
X014852Y004771D01*
X014852Y004775D02*
X014531Y004775D01*
X014531Y004779D02*
X014852Y004779D01*
X014852Y004783D02*
X014531Y004783D01*
X014531Y004787D02*
X014852Y004787D01*
X014852Y004791D02*
X014531Y004791D01*
X014531Y004795D02*
X014852Y004795D01*
X014852Y004799D02*
X014531Y004799D01*
X014532Y004803D02*
X014852Y004803D01*
X014852Y004815D02*
X014540Y004815D01*
X014545Y004819D02*
X014852Y004819D01*
X014970Y004819D02*
X015335Y004819D01*
X015337Y004823D02*
X014970Y004823D01*
X014970Y004826D02*
X015340Y004826D01*
X015341Y004830D02*
X014970Y004830D01*
X014970Y004834D02*
X015343Y004834D01*
X015346Y004838D02*
X014970Y004838D01*
X014970Y004842D02*
X015348Y004842D01*
X015351Y004845D02*
X014970Y004845D01*
X014970Y004849D02*
X015353Y004849D01*
X015356Y004853D02*
X014970Y004853D01*
X014970Y004857D02*
X015358Y004857D01*
X015360Y004861D02*
X014970Y004861D01*
X014970Y004865D02*
X015363Y004865D01*
X015365Y004869D02*
X014970Y004869D01*
X014970Y004873D02*
X015368Y004873D01*
X015370Y004877D02*
X014970Y004877D01*
X014970Y004881D02*
X015372Y004881D01*
X015375Y004885D02*
X014970Y004885D01*
X014970Y004889D02*
X015377Y004889D01*
X015380Y004892D02*
X014970Y004892D01*
X014970Y004896D02*
X015382Y004896D01*
X015384Y004900D02*
X014970Y004900D01*
X014970Y004904D02*
X015387Y004904D01*
X015388Y004906D02*
X015092Y004416D01*
X015226Y004416D01*
X015288Y004524D01*
X015612Y004524D01*
X015673Y004416D01*
X015793Y004416D01*
X015502Y004906D01*
X015388Y004906D01*
X015332Y004815D02*
X014970Y004815D01*
X014970Y004811D02*
X015330Y004811D01*
X015328Y004807D02*
X014970Y004807D01*
X014970Y004803D02*
X015325Y004803D01*
X015323Y004799D02*
X014970Y004799D01*
X014970Y004795D02*
X015320Y004795D01*
X015318Y004791D02*
X014970Y004791D01*
X014970Y004787D02*
X015316Y004787D01*
X015313Y004783D02*
X014970Y004783D01*
X014970Y004779D02*
X015311Y004779D01*
X015308Y004775D02*
X014970Y004775D01*
X014970Y004771D02*
X015306Y004771D01*
X015304Y004767D02*
X014970Y004767D01*
X014970Y004764D02*
X015301Y004764D01*
X015299Y004760D02*
X014970Y004760D01*
X014970Y004756D02*
X015296Y004756D01*
X015294Y004752D02*
X014970Y004752D01*
X014970Y004748D02*
X015292Y004748D01*
X015289Y004744D02*
X014970Y004744D01*
X014970Y004740D02*
X015287Y004740D01*
X015284Y004736D02*
X014970Y004736D01*
X014970Y004732D02*
X015282Y004732D01*
X015280Y004728D02*
X014970Y004728D01*
X014970Y004724D02*
X015278Y004724D01*
X015276Y004720D02*
X014970Y004720D01*
X014970Y004716D02*
X015273Y004716D01*
X015271Y004712D02*
X014970Y004712D01*
X014970Y004708D02*
X015269Y004708D01*
X015266Y004704D02*
X014970Y004704D01*
X014970Y004701D02*
X015264Y004701D01*
X015261Y004697D02*
X014970Y004697D01*
X014970Y004693D02*
X015259Y004693D01*
X015256Y004689D02*
X014970Y004689D01*
X014970Y004685D02*
X015254Y004685D01*
X015252Y004681D02*
X014970Y004681D01*
X014970Y004677D02*
X015249Y004677D01*
X015247Y004673D02*
X014970Y004673D01*
X014970Y004669D02*
X015244Y004669D01*
X015242Y004665D02*
X014970Y004665D01*
X014970Y004661D02*
X015240Y004661D01*
X015237Y004657D02*
X014970Y004657D01*
X014970Y004653D02*
X015235Y004653D01*
X015232Y004649D02*
X014970Y004649D01*
X014970Y004645D02*
X015230Y004645D01*
X015228Y004641D02*
X014970Y004641D01*
X014970Y004638D02*
X015225Y004638D01*
X015223Y004634D02*
X014970Y004634D01*
X014970Y004630D02*
X015220Y004630D01*
X015218Y004626D02*
X014970Y004626D01*
X014970Y004622D02*
X015216Y004622D01*
X015214Y004618D02*
X014970Y004618D01*
X014970Y004614D02*
X015212Y004614D01*
X015209Y004610D02*
X014970Y004610D01*
X014970Y004606D02*
X015207Y004606D01*
X015205Y004602D02*
X014970Y004602D01*
X014970Y004598D02*
X015202Y004598D01*
X015200Y004594D02*
X014970Y004594D01*
X014970Y004590D02*
X015197Y004590D01*
X015195Y004586D02*
X014970Y004586D01*
X014970Y004582D02*
X015193Y004582D01*
X015190Y004578D02*
X014970Y004578D01*
X014970Y004575D02*
X015188Y004575D01*
X015185Y004571D02*
X014970Y004571D01*
X014970Y004567D02*
X015183Y004567D01*
X015180Y004563D02*
X014970Y004563D01*
X014970Y004559D02*
X015178Y004559D01*
X015176Y004555D02*
X014970Y004555D01*
X014970Y004551D02*
X015173Y004551D01*
X015171Y004547D02*
X014970Y004547D01*
X014970Y004543D02*
X015168Y004543D01*
X015166Y004539D02*
X014970Y004539D01*
X014970Y004535D02*
X015164Y004535D01*
X015161Y004531D02*
X014970Y004531D01*
X014970Y004527D02*
X015159Y004527D01*
X015156Y004523D02*
X014970Y004523D01*
X014970Y004519D02*
X015154Y004519D01*
X015153Y004515D02*
X014970Y004515D01*
X014970Y004512D02*
X015150Y004512D01*
X015148Y004508D02*
X014970Y004508D01*
X014970Y004504D02*
X015145Y004504D01*
X015143Y004500D02*
X014970Y004500D01*
X014970Y004496D02*
X015141Y004496D01*
X015138Y004492D02*
X014970Y004492D01*
X014970Y004488D02*
X015136Y004488D01*
X015133Y004484D02*
X014970Y004484D01*
X014970Y004480D02*
X015131Y004480D01*
X015129Y004476D02*
X014970Y004476D01*
X014970Y004472D02*
X015126Y004472D01*
X015124Y004468D02*
X014970Y004468D01*
X014970Y004464D02*
X015121Y004464D01*
X015119Y004460D02*
X014970Y004460D01*
X014970Y004456D02*
X015117Y004456D01*
X015114Y004452D02*
X014970Y004452D01*
X014970Y004449D02*
X015112Y004449D01*
X015109Y004445D02*
X014970Y004445D01*
X014970Y004441D02*
X015107Y004441D01*
X015105Y004437D02*
X014970Y004437D01*
X014970Y004433D02*
X015102Y004433D01*
X015100Y004429D02*
X014970Y004429D01*
X014970Y004425D02*
X015097Y004425D01*
X015095Y004421D02*
X014970Y004421D01*
X014970Y004417D02*
X015092Y004417D01*
X014970Y004416D02*
X014970Y004906D01*
X014529Y004906D01*
X014516Y004905D01*
X014502Y004904D01*
X014490Y004902D01*
X014478Y004900D01*
X014468Y004896D01*
X014460Y004892D02*
X014156Y004892D01*
X014157Y004892D02*
X014153Y004894D01*
X014147Y004896D01*
X014157Y004892D02*
X014162Y004890D01*
X014166Y004888D01*
X014170Y004885D01*
X014164Y004889D02*
X014452Y004889D01*
X014481Y004900D02*
X014132Y004900D01*
X014105Y004904D02*
X014503Y004904D01*
X014536Y004810D02*
X014534Y004807D01*
X014549Y004626D02*
X014547Y004625D01*
X014545Y004625D01*
X014544Y004624D01*
X014542Y004623D01*
X014540Y004622D01*
X014527Y004589D02*
X014527Y004586D01*
X014527Y004542D02*
X014527Y004539D01*
X014529Y004528D02*
X014530Y004525D01*
X014531Y004523D01*
X014527Y004418D02*
X014544Y004416D01*
X014562Y004416D01*
X014970Y004416D01*
X015227Y004417D02*
X015673Y004417D01*
X015670Y004421D02*
X015229Y004421D01*
X015231Y004425D02*
X015668Y004425D01*
X015666Y004429D02*
X015233Y004429D01*
X015236Y004433D02*
X015664Y004433D01*
X015661Y004437D02*
X015238Y004437D01*
X015240Y004441D02*
X015659Y004441D01*
X015657Y004445D02*
X015243Y004445D01*
X015245Y004449D02*
X015655Y004449D01*
X015653Y004452D02*
X015247Y004452D01*
X015250Y004456D02*
X015651Y004456D01*
X015649Y004460D02*
X015252Y004460D01*
X015254Y004464D02*
X015647Y004464D01*
X015644Y004468D02*
X015256Y004468D01*
X015259Y004472D02*
X015642Y004472D01*
X015640Y004476D02*
X015261Y004476D01*
X015263Y004480D02*
X015638Y004480D01*
X015635Y004484D02*
X015266Y004484D01*
X015268Y004488D02*
X015633Y004488D01*
X015631Y004492D02*
X015270Y004492D01*
X015272Y004496D02*
X015629Y004496D01*
X015626Y004500D02*
X015275Y004500D01*
X015277Y004504D02*
X015624Y004504D01*
X015622Y004508D02*
X015279Y004508D01*
X015281Y004512D02*
X015620Y004512D01*
X015617Y004515D02*
X015283Y004515D01*
X015285Y004519D02*
X015615Y004519D01*
X015613Y004523D02*
X015288Y004523D01*
X015337Y004613D02*
X015450Y004813D01*
X015452Y004817D01*
X015561Y004613D01*
X015337Y004613D01*
X015337Y004614D02*
X015561Y004614D01*
X015559Y004618D02*
X015339Y004618D01*
X015341Y004622D02*
X015557Y004622D01*
X015555Y004626D02*
X015343Y004626D01*
X015345Y004630D02*
X015552Y004630D01*
X015550Y004634D02*
X015347Y004634D01*
X015350Y004638D02*
X015548Y004638D01*
X015546Y004641D02*
X015352Y004641D01*
X015354Y004645D02*
X015544Y004645D01*
X015542Y004649D02*
X015356Y004649D01*
X015359Y004653D02*
X015540Y004653D01*
X015537Y004657D02*
X015361Y004657D01*
X015363Y004661D02*
X015535Y004661D01*
X015533Y004665D02*
X015366Y004665D01*
X015368Y004669D02*
X015531Y004669D01*
X015529Y004673D02*
X015370Y004673D01*
X015372Y004677D02*
X015528Y004677D01*
X015525Y004681D02*
X015375Y004681D01*
X015377Y004685D02*
X015523Y004685D01*
X015521Y004689D02*
X015379Y004689D01*
X015381Y004693D02*
X015519Y004693D01*
X015517Y004697D02*
X015384Y004697D01*
X015386Y004701D02*
X015515Y004701D01*
X015513Y004704D02*
X015388Y004704D01*
X015390Y004708D02*
X015510Y004708D01*
X015508Y004712D02*
X015393Y004712D01*
X015395Y004716D02*
X015506Y004716D01*
X015504Y004720D02*
X015397Y004720D01*
X015399Y004724D02*
X015502Y004724D01*
X015500Y004728D02*
X015402Y004728D01*
X015404Y004732D02*
X015497Y004732D01*
X015495Y004736D02*
X015405Y004736D01*
X015407Y004740D02*
X015493Y004740D01*
X015491Y004744D02*
X015410Y004744D01*
X015412Y004748D02*
X015489Y004748D01*
X015487Y004752D02*
X015414Y004752D01*
X015416Y004756D02*
X015485Y004756D01*
X015482Y004760D02*
X015419Y004760D01*
X015421Y004764D02*
X015480Y004764D01*
X015478Y004767D02*
X015423Y004767D01*
X015425Y004771D02*
X015476Y004771D01*
X015474Y004775D02*
X015428Y004775D01*
X015430Y004779D02*
X015472Y004779D01*
X015469Y004783D02*
X015432Y004783D01*
X015434Y004787D02*
X015467Y004787D01*
X015466Y004791D02*
X015437Y004791D01*
X015439Y004795D02*
X015464Y004795D01*
X015462Y004799D02*
X015441Y004799D01*
X015444Y004803D02*
X015460Y004803D01*
X015458Y004807D02*
X015446Y004807D01*
X015448Y004811D02*
X015455Y004811D01*
X015453Y004815D02*
X015450Y004815D01*
X015741Y004504D02*
X015852Y004504D01*
X015852Y004508D02*
X015852Y004416D01*
X016357Y004416D01*
X015852Y004417D02*
X015793Y004417D01*
X015790Y004421D02*
X015852Y004421D01*
X015852Y004425D02*
X015788Y004425D01*
X015785Y004429D02*
X015852Y004429D01*
X015852Y004433D02*
X015783Y004433D01*
X015781Y004437D02*
X015852Y004437D01*
X015852Y004441D02*
X015779Y004441D01*
X015777Y004445D02*
X015852Y004445D01*
X015852Y004449D02*
X015775Y004449D01*
X015772Y004452D02*
X015852Y004452D01*
X015852Y004456D02*
X015770Y004456D01*
X015767Y004460D02*
X015852Y004460D01*
X015852Y004464D02*
X015765Y004464D01*
X015763Y004468D02*
X015852Y004468D01*
X015852Y004472D02*
X015760Y004472D01*
X015758Y004476D02*
X015852Y004476D01*
X015852Y004480D02*
X015756Y004480D01*
X015753Y004484D02*
X015852Y004484D01*
X015852Y004488D02*
X015751Y004488D01*
X015748Y004492D02*
X015852Y004492D01*
X015852Y004496D02*
X015746Y004496D01*
X015744Y004500D02*
X015852Y004500D01*
X014534Y004417D02*
X014121Y004417D01*
X014120Y004417D02*
X014128Y004418D01*
X014136Y004418D01*
X014143Y004419D01*
X014150Y004421D01*
X014155Y004422D01*
X014162Y004424D01*
X014167Y004426D01*
X014173Y004428D01*
X014178Y004430D01*
X014183Y004432D01*
X014187Y004435D01*
X014191Y004437D01*
X014195Y004440D01*
X014198Y004444D01*
X014201Y004447D01*
X014204Y004451D01*
X014207Y004454D01*
X014210Y004459D01*
X014212Y004464D01*
X014424Y004464D01*
X014425Y004461D02*
X014432Y004453D01*
X014440Y004447D01*
X014449Y004441D01*
X014459Y004435D01*
X014469Y004430D01*
X014482Y004426D01*
X014496Y004422D01*
X014511Y004419D01*
X014527Y004418D01*
X014502Y004421D02*
X014151Y004421D01*
X014166Y004425D02*
X014484Y004425D01*
X014472Y004429D02*
X014176Y004429D01*
X014184Y004433D02*
X014463Y004433D01*
X014455Y004437D02*
X014190Y004437D01*
X014195Y004441D02*
X014448Y004441D01*
X014442Y004445D02*
X014199Y004445D01*
X014203Y004449D02*
X014438Y004449D01*
X014433Y004452D02*
X014206Y004452D01*
X014208Y004456D02*
X014430Y004456D01*
X014426Y004460D02*
X014210Y004460D01*
X014212Y004464D02*
X014214Y004469D01*
X014216Y004475D01*
X014217Y004481D01*
X014217Y004484D02*
X014414Y004484D01*
X014413Y004488D02*
X014218Y004488D01*
X014219Y004492D02*
X014412Y004492D01*
X014411Y004496D02*
X014220Y004496D01*
X014220Y004500D02*
X014411Y004500D01*
X014410Y004504D02*
X014221Y004504D01*
X014221Y004508D02*
X014410Y004508D01*
X014410Y004527D02*
X014222Y004527D01*
X014222Y004531D02*
X014410Y004531D01*
X014410Y004535D02*
X014222Y004535D01*
X014222Y004539D02*
X014410Y004539D01*
X014410Y004543D02*
X014222Y004543D01*
X014218Y004547D02*
X014410Y004547D01*
X014410Y004551D02*
X014198Y004551D01*
X014176Y004555D02*
X014410Y004555D01*
X014410Y004559D02*
X014155Y004559D01*
X014135Y004563D02*
X014410Y004563D01*
X014410Y004567D02*
X013756Y004567D01*
X013756Y004571D02*
X014410Y004571D01*
X014410Y004575D02*
X013756Y004575D01*
X013756Y004578D02*
X014410Y004578D01*
X014410Y004584D02*
X014411Y004594D01*
X014412Y004598D02*
X013756Y004598D01*
X013756Y004602D02*
X014413Y004602D01*
X014414Y004606D02*
X013756Y004606D01*
X013756Y004610D02*
X014415Y004610D01*
X014417Y004614D02*
X013756Y004614D01*
X013756Y004618D02*
X014418Y004618D01*
X014420Y004622D02*
X014106Y004622D01*
X014115Y004563D02*
X013756Y004563D01*
X013756Y004559D02*
X014115Y004559D01*
X014115Y004555D02*
X013756Y004555D01*
X013756Y004551D02*
X014115Y004551D01*
X014115Y004547D02*
X013756Y004547D01*
X013756Y004543D02*
X014115Y004543D01*
X014115Y004539D02*
X013756Y004539D01*
X013756Y004535D02*
X014115Y004535D01*
X014115Y004531D02*
X013756Y004531D01*
X013756Y004527D02*
X014115Y004527D01*
X014115Y004523D02*
X013756Y004523D01*
X013756Y004519D02*
X014115Y004519D01*
X014115Y004515D02*
X013756Y004515D01*
X013756Y004512D02*
X014115Y004512D01*
X014120Y004417D02*
X014111Y004416D01*
X014102Y004416D01*
X014093Y004416D01*
X013776Y004416D01*
X013767Y004416D01*
X013758Y004416D01*
X013749Y004417D01*
X013741Y004418D01*
X013733Y004418D01*
X013726Y004419D01*
X013719Y004421D01*
X013713Y004422D01*
X013707Y004424D01*
X013701Y004426D01*
X013696Y004428D01*
X013691Y004430D01*
X013686Y004432D01*
X013682Y004435D01*
X013678Y004437D01*
X013674Y004440D01*
X013671Y004444D01*
X013668Y004447D01*
X013665Y004451D01*
X013662Y004454D01*
X013660Y004459D01*
X013658Y004464D01*
X013469Y004464D01*
X013469Y004460D02*
X013659Y004460D01*
X013661Y004456D02*
X013469Y004456D01*
X013469Y004452D02*
X013664Y004452D01*
X013666Y004449D02*
X013469Y004449D01*
X013469Y004445D02*
X013670Y004445D01*
X013674Y004441D02*
X013469Y004441D01*
X013469Y004437D02*
X013679Y004437D01*
X013685Y004433D02*
X013469Y004433D01*
X013469Y004429D02*
X013693Y004429D01*
X013703Y004425D02*
X013469Y004425D01*
X013469Y004421D02*
X013718Y004421D01*
X013748Y004417D02*
X013469Y004417D01*
X013469Y004468D02*
X013656Y004468D01*
X013655Y004469D02*
X013658Y004464D01*
X013655Y004469D02*
X013654Y004475D01*
X013653Y004481D01*
X013652Y004487D01*
X013650Y004494D01*
X013650Y004501D01*
X013649Y004509D01*
X013648Y004515D01*
X013469Y004515D01*
X013469Y004512D02*
X013649Y004512D01*
X013648Y004515D02*
X013648Y004523D01*
X013469Y004523D01*
X013469Y004519D02*
X013648Y004519D01*
X013648Y004523D02*
X013648Y004532D01*
X013648Y004599D01*
X013648Y004608D01*
X013648Y004616D01*
X013649Y004624D01*
X013650Y004631D01*
X013650Y004638D01*
X013469Y004638D01*
X013469Y004641D02*
X013651Y004641D01*
X013652Y004644D02*
X013650Y004638D01*
X013650Y004634D02*
X013469Y004634D01*
X013469Y004630D02*
X013649Y004630D01*
X013649Y004626D02*
X013469Y004626D01*
X013469Y004622D02*
X013649Y004622D01*
X013648Y004618D02*
X013469Y004618D01*
X013469Y004614D02*
X013648Y004614D01*
X013648Y004610D02*
X013469Y004610D01*
X013469Y004606D02*
X013648Y004606D01*
X013648Y004602D02*
X013469Y004602D01*
X013469Y004598D02*
X013648Y004598D01*
X013648Y004594D02*
X013469Y004594D01*
X013469Y004590D02*
X013648Y004590D01*
X013648Y004586D02*
X013469Y004586D01*
X013469Y004582D02*
X013648Y004582D01*
X013648Y004578D02*
X013469Y004578D01*
X013469Y004575D02*
X013648Y004575D01*
X013648Y004571D02*
X013469Y004571D01*
X013469Y004567D02*
X013648Y004567D01*
X013648Y004563D02*
X013469Y004563D01*
X013469Y004559D02*
X013648Y004559D01*
X013648Y004555D02*
X013469Y004555D01*
X013469Y004551D02*
X013648Y004551D01*
X013648Y004547D02*
X013469Y004547D01*
X013469Y004543D02*
X013648Y004543D01*
X013648Y004539D02*
X013469Y004539D01*
X013469Y004535D02*
X013648Y004535D01*
X013648Y004531D02*
X013469Y004531D01*
X013469Y004527D02*
X013648Y004527D01*
X013649Y004508D02*
X013469Y004508D01*
X013469Y004504D02*
X013649Y004504D01*
X013650Y004500D02*
X013469Y004500D01*
X013469Y004496D02*
X013650Y004496D01*
X013651Y004492D02*
X013469Y004492D01*
X013469Y004488D02*
X013652Y004488D01*
X013652Y004484D02*
X013469Y004484D01*
X013469Y004480D02*
X013653Y004480D01*
X013654Y004476D02*
X013469Y004476D01*
X013469Y004472D02*
X013655Y004472D01*
X013652Y004644D02*
X013653Y004650D01*
X013654Y004656D01*
X013655Y004662D01*
X013658Y004667D01*
X013660Y004672D01*
X013662Y004677D01*
X013469Y004677D01*
X013469Y004681D02*
X013665Y004681D01*
X013662Y004677D01*
X013660Y004673D02*
X013469Y004673D01*
X013469Y004669D02*
X013658Y004669D01*
X013657Y004665D02*
X013469Y004665D01*
X013469Y004661D02*
X013655Y004661D01*
X013654Y004657D02*
X013469Y004657D01*
X013469Y004653D02*
X013654Y004653D01*
X013653Y004649D02*
X013469Y004649D01*
X013469Y004645D02*
X013652Y004645D01*
X013665Y004681D02*
X013668Y004685D01*
X013469Y004685D01*
X013469Y004689D02*
X013671Y004689D01*
X013671Y004688D02*
X013668Y004685D01*
X013671Y004688D02*
X013674Y004691D01*
X013678Y004694D01*
X013682Y004697D01*
X013686Y004700D01*
X013691Y004701D01*
X013696Y004703D01*
X013701Y004705D01*
X013707Y004707D01*
X013713Y004709D01*
X013719Y004710D01*
X013726Y004711D01*
X013733Y004712D01*
X013741Y004713D01*
X013749Y004714D01*
X013758Y004714D01*
X013767Y004715D01*
X013776Y004715D01*
X014094Y004715D01*
X014094Y004817D01*
X013757Y004817D01*
X013757Y004765D01*
X013654Y004787D01*
X013654Y004799D01*
X013469Y004799D01*
X013469Y004803D02*
X013654Y004803D01*
X013654Y004807D02*
X013654Y004799D01*
X013654Y004795D02*
X013469Y004795D01*
X013469Y004791D02*
X013654Y004791D01*
X013655Y004787D02*
X013469Y004787D01*
X013469Y004783D02*
X013673Y004783D01*
X013692Y004779D02*
X013469Y004779D01*
X013469Y004775D02*
X013711Y004775D01*
X013728Y004771D02*
X013469Y004771D01*
X013469Y004767D02*
X013747Y004767D01*
X013757Y004767D02*
X014094Y004767D01*
X014094Y004764D02*
X013469Y004764D01*
X013469Y004760D02*
X014094Y004760D01*
X014094Y004756D02*
X013469Y004756D01*
X013469Y004752D02*
X014094Y004752D01*
X014094Y004748D02*
X013469Y004748D01*
X013469Y004744D02*
X014094Y004744D01*
X014094Y004740D02*
X013469Y004740D01*
X013469Y004736D02*
X014094Y004736D01*
X014094Y004732D02*
X013469Y004732D01*
X013469Y004728D02*
X014094Y004728D01*
X014094Y004724D02*
X013469Y004724D01*
X013469Y004720D02*
X014094Y004720D01*
X014094Y004716D02*
X013469Y004716D01*
X013469Y004712D02*
X013728Y004712D01*
X013709Y004708D02*
X013469Y004708D01*
X013469Y004704D02*
X013697Y004704D01*
X013688Y004701D02*
X013469Y004701D01*
X013469Y004697D02*
X013681Y004697D01*
X013676Y004693D02*
X013469Y004693D01*
X013757Y004771D02*
X014094Y004771D01*
X014094Y004775D02*
X013757Y004775D01*
X013757Y004779D02*
X014094Y004779D01*
X014094Y004783D02*
X013757Y004783D01*
X013757Y004787D02*
X014094Y004787D01*
X014094Y004791D02*
X013757Y004791D01*
X013757Y004795D02*
X014094Y004795D01*
X014094Y004799D02*
X013757Y004799D01*
X013757Y004803D02*
X014094Y004803D01*
X014094Y004807D02*
X013757Y004807D01*
X013757Y004811D02*
X014094Y004811D01*
X014094Y004815D02*
X013757Y004815D01*
X014216Y004476D02*
X014417Y004476D01*
X014415Y004480D02*
X014420Y004470D01*
X014425Y004461D01*
X014421Y004468D02*
X014214Y004468D01*
X014215Y004472D02*
X014419Y004472D01*
M02*
