G75*
G70*
%OFA0B0*%
%FSLAX24Y24*%
%IPPOS*%
%LPD*%
%AMOC8*
5,1,8,0,0,1.08239X$1,22.5*
%
%ADD10C,0.1340*%
%ADD11C,0.0600*%
%ADD12OC8,0.0600*%
%ADD13C,0.0740*%
%ADD14C,0.0600*%
%ADD15R,0.0680X0.0680*%
%ADD16OC8,0.0680*%
%ADD17R,0.0780X0.0780*%
%ADD18C,0.0780*%
%ADD19C,0.1852*%
%ADD20C,0.0740*%
%ADD21C,0.1380*%
%ADD22OC8,0.0710*%
%ADD23C,0.0710*%
%ADD24C,0.0965*%
%ADD25R,0.1640X0.1640*%
%ADD26R,0.1330X0.1330*%
%ADD27C,0.0640*%
%ADD28C,0.0674*%
D10*
X003052Y002152D03*
X003052Y014152D03*
X006052Y020652D03*
X006052Y050652D03*
X057052Y050652D03*
X057052Y020652D03*
X060052Y014152D03*
X060052Y002152D03*
D11*
X051552Y006392D02*
X051552Y006912D01*
X050552Y006912D02*
X050552Y006392D01*
X049552Y006392D02*
X049552Y006912D01*
X048552Y006912D02*
X048552Y006392D01*
X047552Y006392D02*
X047552Y006912D01*
X046552Y006912D02*
X046552Y006392D01*
X045552Y006392D02*
X045552Y006912D01*
X044552Y006912D02*
X044552Y006392D01*
X043552Y006392D02*
X043552Y006912D01*
X042552Y006912D02*
X042552Y006392D01*
X039552Y006412D02*
X039552Y005892D01*
X038552Y005892D02*
X038552Y006412D01*
X037552Y006412D02*
X037552Y005892D01*
X036552Y005892D02*
X036552Y006412D01*
X035552Y006412D02*
X035552Y005892D01*
X034552Y005892D02*
X034552Y006412D01*
X033552Y006412D02*
X033552Y005892D01*
X032552Y005892D02*
X032552Y006412D01*
X031552Y006412D02*
X031552Y005892D01*
X030552Y005892D02*
X030552Y006412D01*
X030552Y008892D02*
X030552Y009412D01*
X031552Y009412D02*
X031552Y008892D01*
X032552Y008892D02*
X032552Y009412D01*
X033552Y009412D02*
X033552Y008892D01*
X034552Y008892D02*
X034552Y009412D01*
X035552Y009412D02*
X035552Y008892D01*
X036552Y008892D02*
X036552Y009412D01*
X037552Y009412D02*
X037552Y008892D01*
X038552Y008892D02*
X038552Y009412D01*
X039552Y009412D02*
X039552Y008892D01*
X042552Y009392D02*
X042552Y009912D01*
X043552Y009912D02*
X043552Y009392D01*
X044552Y009392D02*
X044552Y009912D01*
X045552Y009912D02*
X045552Y009392D01*
X046552Y009392D02*
X046552Y009912D01*
X047552Y009912D02*
X047552Y009392D01*
X048552Y009392D02*
X048552Y009912D01*
X049552Y009912D02*
X049552Y009392D01*
X050552Y009392D02*
X050552Y009912D01*
X051552Y009912D02*
X051552Y009392D01*
X027552Y009412D02*
X027552Y008892D01*
X026552Y008892D02*
X026552Y009412D01*
X025552Y009412D02*
X025552Y008892D01*
X024552Y008892D02*
X024552Y009412D01*
X023552Y009412D02*
X023552Y008892D01*
X022552Y008892D02*
X022552Y009412D01*
X021552Y009412D02*
X021552Y008892D01*
X020552Y008892D02*
X020552Y009412D01*
X020552Y006412D02*
X020552Y005892D01*
X021552Y005892D02*
X021552Y006412D01*
X022552Y006412D02*
X022552Y005892D01*
X023552Y005892D02*
X023552Y006412D01*
X024552Y006412D02*
X024552Y005892D01*
X025552Y005892D02*
X025552Y006412D01*
X026552Y006412D02*
X026552Y005892D01*
X027552Y005892D02*
X027552Y006412D01*
X017552Y006412D02*
X017552Y005892D01*
X016552Y005892D02*
X016552Y006412D01*
X015552Y006412D02*
X015552Y005892D01*
X014552Y005892D02*
X014552Y006412D01*
X013552Y006412D02*
X013552Y005892D01*
X012552Y005892D02*
X012552Y006412D01*
X011552Y006412D02*
X011552Y005892D01*
X010552Y005892D02*
X010552Y006412D01*
X010552Y008892D02*
X010552Y009412D01*
X011552Y009412D02*
X011552Y008892D01*
X012552Y008892D02*
X012552Y009412D01*
X013552Y009412D02*
X013552Y008892D01*
X014552Y008892D02*
X014552Y009412D01*
X015552Y009412D02*
X015552Y008892D01*
X016552Y008892D02*
X016552Y009412D01*
X017552Y009412D02*
X017552Y008892D01*
D12*
X019052Y008652D03*
X019052Y006652D03*
X018552Y010652D03*
X017552Y010652D03*
X017552Y011652D03*
X018552Y011652D03*
X016552Y011652D03*
X016552Y010652D03*
X015552Y010652D03*
X015552Y011652D03*
X014552Y011652D03*
X014552Y010652D03*
X013552Y010652D03*
X012552Y010652D03*
X012552Y011652D03*
X013552Y011652D03*
X011552Y011652D03*
X011552Y010652D03*
X021552Y010652D03*
X021552Y011652D03*
X022552Y011652D03*
X022552Y010652D03*
X023552Y010652D03*
X023552Y011652D03*
X024552Y011652D03*
X024552Y010652D03*
X025552Y010652D03*
X026552Y010652D03*
X026552Y011652D03*
X025552Y011652D03*
X027552Y011652D03*
X027552Y010652D03*
X028552Y010652D03*
X028552Y011652D03*
X029052Y008652D03*
X029052Y006652D03*
X027052Y004152D03*
X027052Y003152D03*
X027052Y002152D03*
X031052Y002152D03*
X031052Y003152D03*
X031052Y004152D03*
X040552Y003152D03*
X041052Y006652D03*
X041052Y008652D03*
X044552Y003152D03*
X053052Y007152D03*
X053052Y009152D03*
D13*
X050552Y014652D03*
X049552Y014652D03*
X048552Y014652D03*
X047552Y014652D03*
X046552Y014652D03*
X045552Y014652D03*
X044552Y014652D03*
X043552Y014652D03*
X038552Y014652D03*
X037552Y014652D03*
X036552Y014652D03*
X035552Y014652D03*
X034552Y014652D03*
X033552Y014652D03*
X032552Y014652D03*
X031552Y014652D03*
X028552Y014652D03*
X027552Y014652D03*
X026552Y014652D03*
X025552Y014652D03*
X024552Y014652D03*
X023552Y014652D03*
X022552Y014652D03*
X021552Y014652D03*
X018552Y014652D03*
X017552Y014652D03*
X016552Y014652D03*
X015552Y014652D03*
X014552Y014652D03*
X013552Y014652D03*
X012552Y014652D03*
X011552Y014652D03*
X009052Y002152D03*
X005052Y002152D03*
D14*
X041802Y011152D03*
X041802Y012152D03*
D15*
X057052Y002652D03*
D16*
X056052Y002652D03*
X056052Y001652D03*
X057052Y001652D03*
X055052Y001652D03*
X055052Y002652D03*
X037442Y002162D03*
X035662Y002162D03*
X023942Y002162D03*
X022162Y002162D03*
X019442Y002162D03*
X017662Y002162D03*
X014942Y002162D03*
X013162Y002162D03*
D17*
X056552Y012652D03*
D18*
X055552Y012652D03*
X054552Y012652D03*
X053552Y012652D03*
X052552Y012652D03*
X051552Y012652D03*
D19*
X005552Y006152D03*
X003190Y006152D03*
X004371Y004302D03*
D20*
X008722Y009652D02*
X009382Y009652D01*
X009382Y010652D02*
X008722Y010652D01*
X008722Y011652D02*
X009382Y011652D01*
D21*
X003152Y010652D03*
D22*
X010052Y013652D03*
X007852Y004652D03*
X060552Y004652D03*
D23*
X059552Y004652D03*
X009252Y004652D03*
X009052Y013652D03*
D24*
X012672Y003142D03*
X015432Y003142D03*
X017172Y003142D03*
X019932Y003142D03*
X021672Y003142D03*
X024432Y003142D03*
X035172Y003142D03*
X037932Y003142D03*
D25*
X049552Y003277D03*
D26*
X046452Y003277D03*
X052652Y003277D03*
D27*
X051677Y017152D03*
X053927Y017152D03*
X055927Y017152D03*
X055927Y019152D03*
X053927Y019152D03*
X051677Y019152D03*
X049677Y019152D03*
X047427Y019152D03*
X045427Y019152D03*
X045427Y017152D03*
X047427Y017152D03*
X049677Y017152D03*
X049677Y022152D03*
X047427Y022152D03*
X045427Y022152D03*
X045427Y024152D03*
X047427Y024152D03*
X049677Y024152D03*
X051677Y024152D03*
X053927Y024152D03*
X055927Y024152D03*
X055927Y022152D03*
X053927Y022152D03*
X051677Y022152D03*
X051677Y027152D03*
X053927Y027152D03*
X055927Y027152D03*
X055927Y029152D03*
X053927Y029152D03*
X051677Y029152D03*
X049677Y029152D03*
X047427Y029152D03*
X045427Y029152D03*
X045427Y027152D03*
X047427Y027152D03*
X049677Y027152D03*
X049677Y032152D03*
X047427Y032152D03*
X045427Y032152D03*
X045427Y034152D03*
X047427Y034152D03*
X049677Y034152D03*
X051677Y034152D03*
X053927Y034152D03*
X055927Y034152D03*
X055927Y032152D03*
X053927Y032152D03*
X051677Y032152D03*
X051677Y037152D03*
X053927Y037152D03*
X055927Y037152D03*
X055927Y039152D03*
X053927Y039152D03*
X051677Y039152D03*
X049677Y039152D03*
X047427Y039152D03*
X045427Y039152D03*
X045427Y037152D03*
X047427Y037152D03*
X049677Y037152D03*
X049677Y042152D03*
X047427Y042152D03*
X045427Y042152D03*
X045427Y044152D03*
X047427Y044152D03*
X049677Y044152D03*
X051677Y044152D03*
X053927Y044152D03*
X055927Y044152D03*
X055927Y042152D03*
X053927Y042152D03*
X051677Y042152D03*
X051677Y047152D03*
X053927Y047152D03*
X055927Y047152D03*
X055927Y049152D03*
X053927Y049152D03*
X051677Y049152D03*
X049677Y049152D03*
X047427Y049152D03*
X045427Y049152D03*
X045427Y047152D03*
X047427Y047152D03*
X049677Y047152D03*
X049677Y052152D03*
X047427Y052152D03*
X045427Y052152D03*
X045427Y054152D03*
X047427Y054152D03*
X049677Y054152D03*
X051677Y054152D03*
X053927Y054152D03*
X055927Y054152D03*
X055927Y052152D03*
X053927Y052152D03*
X051677Y052152D03*
X058177Y052152D03*
X060177Y052152D03*
X060177Y054152D03*
X058177Y054152D03*
X058177Y049152D03*
X060177Y049152D03*
X060177Y047152D03*
X058177Y047152D03*
X058177Y044152D03*
X060177Y044152D03*
X060177Y042152D03*
X058177Y042152D03*
X058177Y039152D03*
X060177Y039152D03*
X060177Y037152D03*
X058177Y037152D03*
X058177Y034152D03*
X060177Y034152D03*
X060177Y032152D03*
X058177Y032152D03*
X058177Y029152D03*
X060177Y029152D03*
X060177Y027152D03*
X058177Y027152D03*
X058177Y024152D03*
X060177Y024152D03*
X060177Y022152D03*
X058177Y022152D03*
X058177Y019152D03*
X060177Y019152D03*
X060177Y017152D03*
X058177Y017152D03*
X043177Y017152D03*
X041177Y017152D03*
X041177Y019152D03*
X043177Y019152D03*
X043177Y022152D03*
X041177Y022152D03*
X041177Y024152D03*
X043177Y024152D03*
X043177Y027152D03*
X041177Y027152D03*
X041177Y029152D03*
X043177Y029152D03*
X043177Y032152D03*
X041177Y032152D03*
X041177Y034152D03*
X043177Y034152D03*
X043177Y037152D03*
X041177Y037152D03*
X041177Y039152D03*
X043177Y039152D03*
X043177Y042152D03*
X041177Y042152D03*
X041177Y044152D03*
X043177Y044152D03*
X043177Y047152D03*
X041177Y047152D03*
X041177Y049152D03*
X043177Y049152D03*
X043177Y052152D03*
X041177Y052152D03*
X041177Y054152D03*
X043177Y054152D03*
X038927Y054152D03*
X036927Y054152D03*
X036927Y052152D03*
X038927Y052152D03*
X038927Y049152D03*
X036927Y049152D03*
X036927Y047152D03*
X038927Y047152D03*
X038927Y044152D03*
X036927Y044152D03*
X036927Y042152D03*
X038927Y042152D03*
X038927Y039152D03*
X036927Y039152D03*
X036927Y037152D03*
X038927Y037152D03*
X038927Y034152D03*
X036927Y034152D03*
X036927Y032152D03*
X038927Y032152D03*
X038927Y029152D03*
X036927Y029152D03*
X036927Y027152D03*
X038927Y027152D03*
X038927Y024152D03*
X036927Y024152D03*
X036927Y022152D03*
X038927Y022152D03*
X038927Y019152D03*
X036927Y019152D03*
X036927Y017152D03*
X038927Y017152D03*
X034677Y017152D03*
X032677Y017152D03*
X032677Y019152D03*
X034677Y019152D03*
X034677Y022152D03*
X032677Y022152D03*
X032677Y024152D03*
X034677Y024152D03*
X034677Y027152D03*
X032677Y027152D03*
X032677Y029152D03*
X034677Y029152D03*
X034677Y032152D03*
X032677Y032152D03*
X032677Y034152D03*
X034677Y034152D03*
X034677Y037152D03*
X032677Y037152D03*
X032677Y039152D03*
X034677Y039152D03*
X034677Y042152D03*
X032677Y042152D03*
X032677Y044152D03*
X034677Y044152D03*
X034677Y047152D03*
X032677Y047152D03*
X032677Y049152D03*
X034677Y049152D03*
X034677Y052152D03*
X032677Y052152D03*
X032677Y054152D03*
X034677Y054152D03*
X030427Y054152D03*
X028427Y054152D03*
X026177Y054152D03*
X026177Y052152D03*
X028427Y052152D03*
X030427Y052152D03*
X030427Y049152D03*
X028427Y049152D03*
X026177Y049152D03*
X026177Y047152D03*
X028427Y047152D03*
X030427Y047152D03*
X030427Y044152D03*
X028427Y044152D03*
X026177Y044152D03*
X026177Y042152D03*
X028427Y042152D03*
X030427Y042152D03*
X030427Y039152D03*
X028427Y039152D03*
X026177Y039152D03*
X026177Y037152D03*
X028427Y037152D03*
X030427Y037152D03*
X030427Y034152D03*
X028427Y034152D03*
X026177Y034152D03*
X026177Y032152D03*
X028427Y032152D03*
X030427Y032152D03*
X030427Y029152D03*
X028427Y029152D03*
X026177Y029152D03*
X026177Y027152D03*
X028427Y027152D03*
X030427Y027152D03*
X030427Y024152D03*
X028427Y024152D03*
X026177Y024152D03*
X026177Y022152D03*
X028427Y022152D03*
X030427Y022152D03*
X030427Y019152D03*
X028427Y019152D03*
X026177Y019152D03*
X026177Y017152D03*
X028427Y017152D03*
X030427Y017152D03*
X024177Y017152D03*
X021927Y017152D03*
X019927Y017152D03*
X019927Y019152D03*
X021927Y019152D03*
X024177Y019152D03*
X024177Y022152D03*
X021927Y022152D03*
X019927Y022152D03*
X019927Y024152D03*
X021927Y024152D03*
X024177Y024152D03*
X024177Y027152D03*
X021927Y027152D03*
X019927Y027152D03*
X019927Y029152D03*
X021927Y029152D03*
X024177Y029152D03*
X024177Y032152D03*
X021927Y032152D03*
X019927Y032152D03*
X019927Y034152D03*
X021927Y034152D03*
X024177Y034152D03*
X024177Y037152D03*
X021927Y037152D03*
X019927Y037152D03*
X019927Y039152D03*
X021927Y039152D03*
X024177Y039152D03*
X024177Y042152D03*
X021927Y042152D03*
X019927Y042152D03*
X019927Y044152D03*
X021927Y044152D03*
X024177Y044152D03*
X024177Y047152D03*
X021927Y047152D03*
X019927Y047152D03*
X019927Y049152D03*
X021927Y049152D03*
X024177Y049152D03*
X024177Y052152D03*
X021927Y052152D03*
X019927Y052152D03*
X019927Y054152D03*
X021927Y054152D03*
X024177Y054152D03*
X017677Y054152D03*
X015677Y054152D03*
X015677Y052152D03*
X017677Y052152D03*
X017677Y049152D03*
X015677Y049152D03*
X015677Y047152D03*
X017677Y047152D03*
X017677Y044152D03*
X015677Y044152D03*
X015677Y042152D03*
X017677Y042152D03*
X017677Y039152D03*
X015677Y039152D03*
X015677Y037152D03*
X017677Y037152D03*
X017677Y034152D03*
X015677Y034152D03*
X015677Y032152D03*
X017677Y032152D03*
X017677Y029152D03*
X015677Y029152D03*
X015677Y027152D03*
X017677Y027152D03*
X017677Y024152D03*
X015677Y024152D03*
X015677Y022152D03*
X017677Y022152D03*
X017677Y019152D03*
X015677Y019152D03*
X015677Y017152D03*
X017677Y017152D03*
X013427Y017152D03*
X011427Y017152D03*
X011427Y019152D03*
X013427Y019152D03*
X013427Y022152D03*
X011427Y022152D03*
X011427Y024152D03*
X013427Y024152D03*
X013427Y027152D03*
X011427Y027152D03*
X011427Y029152D03*
X013427Y029152D03*
X013427Y032152D03*
X011427Y032152D03*
X011427Y034152D03*
X013427Y034152D03*
X013427Y037152D03*
X011427Y037152D03*
X011427Y039152D03*
X013427Y039152D03*
X013427Y042152D03*
X011427Y042152D03*
X011427Y044152D03*
X013427Y044152D03*
X013427Y047152D03*
X011427Y047152D03*
X011427Y049152D03*
X013427Y049152D03*
X013427Y052152D03*
X011427Y052152D03*
X011427Y054152D03*
X013427Y054152D03*
X009177Y054152D03*
X007177Y054152D03*
X007177Y052152D03*
X009177Y052152D03*
X009177Y049152D03*
X007177Y049152D03*
X007177Y047152D03*
X009177Y047152D03*
X009177Y044152D03*
X007177Y044152D03*
X007177Y042152D03*
X009177Y042152D03*
X009177Y039152D03*
X007177Y039152D03*
X007177Y037152D03*
X009177Y037152D03*
X009177Y034152D03*
X007177Y034152D03*
X007177Y032152D03*
X009177Y032152D03*
X009177Y029152D03*
X007177Y029152D03*
X007177Y027152D03*
X009177Y027152D03*
X009177Y024152D03*
X007177Y024152D03*
X007177Y022152D03*
X009177Y022152D03*
X009177Y019152D03*
X007177Y019152D03*
X007177Y017152D03*
X009177Y017152D03*
X004927Y017152D03*
X002927Y017152D03*
X002927Y019152D03*
X004927Y019152D03*
X004927Y022152D03*
X002927Y022152D03*
X002927Y024152D03*
X004927Y024152D03*
X004927Y027152D03*
X002927Y027152D03*
X002927Y029152D03*
X004927Y029152D03*
X004927Y032152D03*
X002927Y032152D03*
X002927Y034152D03*
X004927Y034152D03*
X004927Y037152D03*
X002927Y037152D03*
X002927Y039152D03*
X004927Y039152D03*
X004927Y042152D03*
X002927Y042152D03*
X002927Y044152D03*
X004927Y044152D03*
X004927Y047152D03*
X002927Y047152D03*
X002927Y049152D03*
X004927Y049152D03*
X004927Y052152D03*
X002927Y052152D03*
X002927Y054152D03*
X004927Y054152D03*
D28*
X059755Y012152D02*
X060349Y012152D01*
X060349Y011152D02*
X059755Y011152D01*
X059755Y010152D02*
X060349Y010152D01*
M02*
